<svg width="13" height="14" viewBox="0 0 13 14" fill="none" xmlns="http://www.w3.org/2000/svg">
<path d="M8.75 0C8.51794 0 8.29538 0.0921872 8.13128 0.256282C7.96719 0.420376 7.875 0.642936 7.875 0.875V4.8125H1.09375C0.803669 4.8125 0.52547 4.92773 0.320352 5.13285C0.115234 5.33797 3.18933e-08 5.61617 3.18933e-08 5.90625V6.78125C-5.21784e-05 6.94882 0.0639997 7.11006 0.179024 7.23192C0.294048 7.35378 0.45133 7.42702 0.618625 7.43662C0.875345 8.34204 1.3919 9.15232 2.10437 9.76719C2.34456 9.97456 2.60531 10.1592 2.884 10.3167L2.22994 11.6244C2.18925 11.7057 2.13063 11.8226 2.08644 11.9451C2.04269 12.0662 1.99456 12.2417 2.01731 12.4307C2.04356 12.6494 2.16256 12.8503 2.38131 12.9776C2.57381 13.0887 2.81094 13.125 3.0625 13.125H9.1875C9.54844 13.125 9.87306 12.9491 10.0984 12.7234C10.3237 12.4981 10.5 12.1734 10.5 11.8125V8.3125C10.5 8.19525 10.5678 8.03819 10.6947 7.8645C11.1225 7.81661 11.5176 7.61271 11.8046 7.2918C12.0915 6.97089 12.2501 6.55548 12.25 6.125V0.875C12.25 0.642936 12.1578 0.420376 11.9937 0.256282C11.8296 0.0921872 11.6071 0 11.375 0H8.75ZM3.682 10.6763C4.18656 10.8498 4.71646 10.938 5.25 10.9375C7.09625 10.9375 8.79988 10.0271 9.625 8.49537V11.8125C9.625 11.8891 9.58212 12.0019 9.47975 12.1047C9.37694 12.2076 9.26406 12.25 9.1875 12.25H3.0625C2.99863 12.25 2.94831 12.2465 2.90981 12.2413C2.93519 12.1717 2.97194 12.0969 3.01612 12.0081L3.682 10.6763ZM8.53125 7C8.67737 7.19469 8.88737 7.33906 9.12975 7.4025C8.66731 9.00681 7.09756 10.0625 5.25 10.0625C4.24813 10.0625 3.33375 9.68844 2.639 9.07244C2.02275 8.52703 1.59283 7.80229 1.40963 7H8.53125ZM8.33437 6.5625H0.875V5.90625C0.875 5.84823 0.898047 5.79259 0.93907 5.75157C0.980094 5.71055 1.03573 5.6875 1.09375 5.6875H8.3125V6.34375C8.3125 6.41856 8.31994 6.49162 8.33437 6.5625ZM11.375 6.125C11.375 6.35706 11.2828 6.57962 11.1187 6.74372C10.9546 6.90781 10.7321 7 10.5 7H9.40625C9.2322 7 9.06528 6.93086 8.94221 6.80779C8.81914 6.68472 8.75 6.5178 8.75 6.34375V0.875H11.375V6.125Z" fill="black" fill-opacity="0.6"/>
</svg>
