<svg width="19" height="19" viewBox="0 0 19 19" fill="none" xmlns="http://www.w3.org/2000/svg">
<path d="M5.54134 3.16659V15.8333H13.458V3.16659H5.54134ZM4.74967 1.58325H14.2497C14.6869 1.58325 15.0413 1.9377 15.0413 2.37492V16.6249C15.0413 17.0622 14.6869 17.4166 14.2497 17.4166H4.74967C4.31245 17.4166 3.95801 17.0622 3.95801 16.6249V2.37492C3.95801 1.9377 4.31245 1.58325 4.74967 1.58325ZM9.49967 13.4583C9.93691 13.4583 10.2913 13.8127 10.2913 14.2499C10.2913 14.6872 9.93691 15.0416 9.49967 15.0416C9.06244 15.0416 8.70801 14.6872 8.70801 14.2499C8.70801 13.8127 9.06244 13.4583 9.49967 13.4583Z" fill="white"/>
</svg>
