<svg width="340" height="128" viewBox="0 0 340 128" fill="none" xmlns="http://www.w3.org/2000/svg">
<mask id="path-1-outside-1_259_756" maskUnits="userSpaceOnUse" x="112" y="46" width="117" height="35" fill="black">
<rect fill="white" x="112" y="46" width="117" height="35"/>
<path d="M138.35 76.92C138.457 77.2133 138.444 77.4667 138.31 77.68C138.204 77.8933 138.017 78 137.75 78H131.87C131.417 78 131.124 77.76 130.99 77.28L126.67 66.08C126.51 65.7067 126.137 65.52 125.55 65.52H121.75C121.564 65.52 121.43 65.5733 121.35 65.68C121.297 65.7867 121.27 65.88 121.27 65.96V77.04C121.27 77.68 120.91 78 120.19 78H115.11C114.79 78 114.564 77.9333 114.43 77.8C114.324 77.6667 114.27 77.4667 114.27 77.2V49.08C114.27 48.5733 114.484 48.32 114.91 48.32H127.39C130.964 48.32 133.737 49.0267 135.71 50.44C137.71 51.8533 138.71 53.8667 138.71 56.48C138.71 57.84 138.457 59.0533 137.95 60.12C137.444 61.1867 136.777 62.08 135.95 62.8C135.124 63.4933 134.217 64.0133 133.23 64.36C132.99 64.44 132.937 64.64 133.07 64.96L138.35 76.92ZM126.75 60.8C128.27 60.8 129.43 60.48 130.23 59.84C131.057 59.1733 131.47 58.2133 131.47 56.96C131.47 55.6533 131.057 54.6667 130.23 54C129.404 53.3333 128.31 53 126.95 53H122.03C121.524 53 121.27 53.2267 121.27 53.68V60.12C121.27 60.5733 121.457 60.8 121.83 60.8H126.75ZM144.409 69.2C144.409 70.1867 144.636 71.0667 145.089 71.84C145.569 72.5867 146.196 73.1733 146.969 73.6C147.769 74 148.663 74.2 149.649 74.2C150.609 74.2 151.489 74 152.289 73.6C153.116 73.1733 153.943 72.48 154.769 71.52C154.876 71.4133 154.969 71.36 155.049 71.36C155.129 71.3333 155.276 71.3733 155.489 71.48L158.369 72.68C158.743 72.84 158.783 73.1067 158.489 73.48C157.636 74.7067 156.743 75.68 155.809 76.4C154.876 77.12 153.836 77.64 152.689 77.96C151.569 78.2533 150.303 78.4 148.889 78.4C146.809 78.4 144.956 77.9467 143.329 77.04C141.703 76.1333 140.409 74.88 139.449 73.28C138.516 71.6533 138.049 69.8 138.049 67.72C138.049 65.4267 138.529 63.44 139.489 61.76C140.476 60.0533 141.783 58.7333 143.409 57.8C145.036 56.8667 146.823 56.4 148.769 56.4C150.823 56.4 152.623 56.8533 154.169 57.76C155.716 58.64 156.929 59.9067 157.809 61.56C158.716 63.2133 159.169 65.2267 159.169 67.6C159.169 67.8933 159.143 68.12 159.089 68.28C159.036 68.44 158.836 68.5333 158.489 68.56H144.889C144.729 68.56 144.609 68.6133 144.529 68.72C144.449 68.8267 144.409 68.9867 144.409 69.2ZM152.449 65.2C152.743 65.2 152.929 65.1733 153.009 65.12C153.089 65.04 153.129 64.88 153.129 64.64C153.129 63.9733 152.969 63.2933 152.649 62.6C152.356 61.9067 151.903 61.3333 151.289 60.88C150.703 60.4 149.943 60.16 149.009 60.16C148.129 60.16 147.343 60.3733 146.649 60.8C145.956 61.2267 145.423 61.8267 145.049 62.6C144.676 63.3467 144.489 64.2 144.489 65.16L152.449 65.2ZM174.967 78C174.754 78 174.554 77.9467 174.367 77.84C174.207 77.7067 174.127 77.4933 174.127 77.2V76.08C174.127 75.8933 174.074 75.7867 173.967 75.76C173.86 75.7333 173.727 75.7867 173.567 75.92C173.14 76.32 172.66 76.72 172.127 77.12C171.594 77.4933 170.967 77.8 170.247 78.04C169.527 78.28 168.687 78.4 167.727 78.4C166.1 78.4 164.66 78 163.407 77.2C162.154 76.4 161.167 75.2 160.447 73.6C159.727 71.9733 159.367 69.96 159.367 67.56C159.367 65.32 159.754 63.3733 160.527 61.72C161.327 60.04 162.394 58.7333 163.727 57.8C165.06 56.8667 166.527 56.4 168.127 56.4C169.194 56.4 170.14 56.5733 170.967 56.92C171.794 57.2667 172.594 57.8 173.367 58.52C173.58 58.68 173.74 58.7467 173.847 58.72C173.98 58.6667 174.047 58.4933 174.047 58.2V49.04C174.047 48.56 174.26 48.32 174.687 48.32H179.567C179.994 48.32 180.207 48.5733 180.207 49.08V77.16C180.207 77.4533 180.14 77.6667 180.007 77.8C179.874 77.9333 179.634 78 179.287 78H174.967ZM174.047 62.32C173.46 61.68 172.86 61.2 172.247 60.88C171.66 60.5333 170.98 60.36 170.207 60.36C169.327 60.36 168.527 60.6133 167.807 61.12C167.114 61.6 166.567 62.36 166.167 63.4C165.794 64.44 165.607 65.8 165.607 67.48C165.607 69.1867 165.794 70.56 166.167 71.6C166.567 72.64 167.1 73.4 167.767 73.88C168.46 74.3333 169.247 74.56 170.127 74.56C170.874 74.56 171.54 74.3867 172.127 74.04C172.714 73.6933 173.18 73.2533 173.527 72.72C173.874 72.1867 174.047 71.6267 174.047 71.04V62.32ZM194.742 56.8C195.009 56.8 195.195 56.8667 195.302 57C195.435 57.1333 195.502 57.2933 195.502 57.48V60.44C195.502 60.84 195.275 61.04 194.822 61.04H191.502C191.235 61.04 191.102 61.1867 191.102 61.48V77.24C191.102 77.7467 190.889 78 190.462 78H185.542C185.142 78 184.942 77.7733 184.942 77.32V61.4C184.942 61.16 184.835 61.04 184.622 61.04H181.742C181.262 61.04 181.022 60.84 181.022 60.44V57.48C181.022 57.2933 181.075 57.1333 181.182 57C181.315 56.8667 181.515 56.8 181.782 56.8H184.462C184.782 56.8 184.942 56.6 184.942 56.2V53.76C184.942 52.0533 185.449 50.72 186.462 49.76C187.475 48.8 188.902 48.32 190.742 48.32H194.782C195.369 48.32 195.662 48.6 195.662 49.16L195.702 51.76C195.702 51.9467 195.649 52.1067 195.542 52.24C195.462 52.3733 195.315 52.44 195.102 52.44H192.942C192.355 52.44 191.875 52.6667 191.502 53.12C191.129 53.5467 190.942 54.1067 190.942 54.8V56.36C190.942 56.6533 191.102 56.8 191.422 56.8H194.742ZM204.662 77.04C204.662 77.3867 204.582 77.64 204.422 77.8C204.262 77.9333 203.982 78 203.582 78H199.382C199.035 78 198.795 77.9333 198.662 77.8C198.555 77.6667 198.502 77.4533 198.502 77.16V57.56C198.502 57.0533 198.715 56.8 199.142 56.8H204.062C204.462 56.8 204.662 57.0267 204.662 57.48V77.04ZM204.742 53.24C204.742 53.9067 204.382 54.24 203.662 54.24H199.342C198.995 54.24 198.755 54.16 198.622 54C198.515 53.84 198.462 53.6133 198.462 53.32V49.12C198.462 48.5867 198.689 48.32 199.142 48.32H204.102C204.529 48.32 204.742 48.5733 204.742 49.08V53.24ZM207.742 78C207.182 78 206.902 77.7333 206.902 77.2V57.56C206.902 57.0533 207.115 56.8 207.542 56.8H212.382C212.782 56.8 212.982 57.0267 212.982 57.48V59.44C212.982 59.6 213.022 59.7067 213.102 59.76C213.182 59.8133 213.302 59.76 213.462 59.6C214.155 58.96 214.848 58.4 215.542 57.92C216.235 57.44 216.968 57.0667 217.742 56.8C218.515 56.5333 219.342 56.4 220.222 56.4C222.168 56.4 223.702 56.9733 224.822 58.12C225.968 59.2667 226.542 60.8 226.542 62.72V77.04C226.542 77.68 226.222 78 225.582 78H221.142C220.875 78 220.675 77.9467 220.542 77.84C220.435 77.7067 220.382 77.4933 220.382 77.2V63.68C220.382 62.7733 220.128 62.08 219.622 61.6C219.142 61.0933 218.422 60.84 217.462 60.84C216.902 60.84 216.382 60.9333 215.902 61.12C215.422 61.3067 214.955 61.5867 214.502 61.96C214.048 62.3067 213.568 62.76 213.062 63.32V77.08C213.062 77.6933 212.715 78 212.022 78H207.742Z"/>
</mask>
<path d="M138.35 76.92C138.457 77.2133 138.444 77.4667 138.31 77.68C138.204 77.8933 138.017 78 137.75 78H131.87C131.417 78 131.124 77.76 130.99 77.28L126.67 66.08C126.51 65.7067 126.137 65.52 125.55 65.52H121.75C121.564 65.52 121.43 65.5733 121.35 65.68C121.297 65.7867 121.27 65.88 121.27 65.96V77.04C121.27 77.68 120.91 78 120.19 78H115.11C114.79 78 114.564 77.9333 114.43 77.8C114.324 77.6667 114.27 77.4667 114.27 77.2V49.08C114.27 48.5733 114.484 48.32 114.91 48.32H127.39C130.964 48.32 133.737 49.0267 135.71 50.44C137.71 51.8533 138.71 53.8667 138.71 56.48C138.71 57.84 138.457 59.0533 137.95 60.12C137.444 61.1867 136.777 62.08 135.95 62.8C135.124 63.4933 134.217 64.0133 133.23 64.36C132.99 64.44 132.937 64.64 133.07 64.96L138.35 76.92ZM126.75 60.8C128.27 60.8 129.43 60.48 130.23 59.84C131.057 59.1733 131.47 58.2133 131.47 56.96C131.47 55.6533 131.057 54.6667 130.23 54C129.404 53.3333 128.31 53 126.95 53H122.03C121.524 53 121.27 53.2267 121.27 53.68V60.12C121.27 60.5733 121.457 60.8 121.83 60.8H126.75ZM144.409 69.2C144.409 70.1867 144.636 71.0667 145.089 71.84C145.569 72.5867 146.196 73.1733 146.969 73.6C147.769 74 148.663 74.2 149.649 74.2C150.609 74.2 151.489 74 152.289 73.6C153.116 73.1733 153.943 72.48 154.769 71.52C154.876 71.4133 154.969 71.36 155.049 71.36C155.129 71.3333 155.276 71.3733 155.489 71.48L158.369 72.68C158.743 72.84 158.783 73.1067 158.489 73.48C157.636 74.7067 156.743 75.68 155.809 76.4C154.876 77.12 153.836 77.64 152.689 77.96C151.569 78.2533 150.303 78.4 148.889 78.4C146.809 78.4 144.956 77.9467 143.329 77.04C141.703 76.1333 140.409 74.88 139.449 73.28C138.516 71.6533 138.049 69.8 138.049 67.72C138.049 65.4267 138.529 63.44 139.489 61.76C140.476 60.0533 141.783 58.7333 143.409 57.8C145.036 56.8667 146.823 56.4 148.769 56.4C150.823 56.4 152.623 56.8533 154.169 57.76C155.716 58.64 156.929 59.9067 157.809 61.56C158.716 63.2133 159.169 65.2267 159.169 67.6C159.169 67.8933 159.143 68.12 159.089 68.28C159.036 68.44 158.836 68.5333 158.489 68.56H144.889C144.729 68.56 144.609 68.6133 144.529 68.72C144.449 68.8267 144.409 68.9867 144.409 69.2ZM152.449 65.2C152.743 65.2 152.929 65.1733 153.009 65.12C153.089 65.04 153.129 64.88 153.129 64.64C153.129 63.9733 152.969 63.2933 152.649 62.6C152.356 61.9067 151.903 61.3333 151.289 60.88C150.703 60.4 149.943 60.16 149.009 60.16C148.129 60.16 147.343 60.3733 146.649 60.8C145.956 61.2267 145.423 61.8267 145.049 62.6C144.676 63.3467 144.489 64.2 144.489 65.16L152.449 65.2ZM174.967 78C174.754 78 174.554 77.9467 174.367 77.84C174.207 77.7067 174.127 77.4933 174.127 77.2V76.08C174.127 75.8933 174.074 75.7867 173.967 75.76C173.86 75.7333 173.727 75.7867 173.567 75.92C173.14 76.32 172.66 76.72 172.127 77.12C171.594 77.4933 170.967 77.8 170.247 78.04C169.527 78.28 168.687 78.4 167.727 78.4C166.1 78.4 164.66 78 163.407 77.2C162.154 76.4 161.167 75.2 160.447 73.6C159.727 71.9733 159.367 69.96 159.367 67.56C159.367 65.32 159.754 63.3733 160.527 61.72C161.327 60.04 162.394 58.7333 163.727 57.8C165.06 56.8667 166.527 56.4 168.127 56.4C169.194 56.4 170.14 56.5733 170.967 56.92C171.794 57.2667 172.594 57.8 173.367 58.52C173.58 58.68 173.74 58.7467 173.847 58.72C173.98 58.6667 174.047 58.4933 174.047 58.2V49.04C174.047 48.56 174.26 48.32 174.687 48.32H179.567C179.994 48.32 180.207 48.5733 180.207 49.08V77.16C180.207 77.4533 180.14 77.6667 180.007 77.8C179.874 77.9333 179.634 78 179.287 78H174.967ZM174.047 62.32C173.46 61.68 172.86 61.2 172.247 60.88C171.66 60.5333 170.98 60.36 170.207 60.36C169.327 60.36 168.527 60.6133 167.807 61.12C167.114 61.6 166.567 62.36 166.167 63.4C165.794 64.44 165.607 65.8 165.607 67.48C165.607 69.1867 165.794 70.56 166.167 71.6C166.567 72.64 167.1 73.4 167.767 73.88C168.46 74.3333 169.247 74.56 170.127 74.56C170.874 74.56 171.54 74.3867 172.127 74.04C172.714 73.6933 173.18 73.2533 173.527 72.72C173.874 72.1867 174.047 71.6267 174.047 71.04V62.32ZM194.742 56.8C195.009 56.8 195.195 56.8667 195.302 57C195.435 57.1333 195.502 57.2933 195.502 57.48V60.44C195.502 60.84 195.275 61.04 194.822 61.04H191.502C191.235 61.04 191.102 61.1867 191.102 61.48V77.24C191.102 77.7467 190.889 78 190.462 78H185.542C185.142 78 184.942 77.7733 184.942 77.32V61.4C184.942 61.16 184.835 61.04 184.622 61.04H181.742C181.262 61.04 181.022 60.84 181.022 60.44V57.48C181.022 57.2933 181.075 57.1333 181.182 57C181.315 56.8667 181.515 56.8 181.782 56.8H184.462C184.782 56.8 184.942 56.6 184.942 56.2V53.76C184.942 52.0533 185.449 50.72 186.462 49.76C187.475 48.8 188.902 48.32 190.742 48.32H194.782C195.369 48.32 195.662 48.6 195.662 49.16L195.702 51.76C195.702 51.9467 195.649 52.1067 195.542 52.24C195.462 52.3733 195.315 52.44 195.102 52.44H192.942C192.355 52.44 191.875 52.6667 191.502 53.12C191.129 53.5467 190.942 54.1067 190.942 54.8V56.36C190.942 56.6533 191.102 56.8 191.422 56.8H194.742ZM204.662 77.04C204.662 77.3867 204.582 77.64 204.422 77.8C204.262 77.9333 203.982 78 203.582 78H199.382C199.035 78 198.795 77.9333 198.662 77.8C198.555 77.6667 198.502 77.4533 198.502 77.16V57.56C198.502 57.0533 198.715 56.8 199.142 56.8H204.062C204.462 56.8 204.662 57.0267 204.662 57.48V77.04ZM204.742 53.24C204.742 53.9067 204.382 54.24 203.662 54.24H199.342C198.995 54.24 198.755 54.16 198.622 54C198.515 53.84 198.462 53.6133 198.462 53.32V49.12C198.462 48.5867 198.689 48.32 199.142 48.32H204.102C204.529 48.32 204.742 48.5733 204.742 49.08V53.24ZM207.742 78C207.182 78 206.902 77.7333 206.902 77.2V57.56C206.902 57.0533 207.115 56.8 207.542 56.8H212.382C212.782 56.8 212.982 57.0267 212.982 57.48V59.44C212.982 59.6 213.022 59.7067 213.102 59.76C213.182 59.8133 213.302 59.76 213.462 59.6C214.155 58.96 214.848 58.4 215.542 57.92C216.235 57.44 216.968 57.0667 217.742 56.8C218.515 56.5333 219.342 56.4 220.222 56.4C222.168 56.4 223.702 56.9733 224.822 58.12C225.968 59.2667 226.542 60.8 226.542 62.72V77.04C226.542 77.68 226.222 78 225.582 78H221.142C220.875 78 220.675 77.9467 220.542 77.84C220.435 77.7067 220.382 77.4933 220.382 77.2V63.68C220.382 62.7733 220.128 62.08 219.622 61.6C219.142 61.0933 218.422 60.84 217.462 60.84C216.902 60.84 216.382 60.9333 215.902 61.12C215.422 61.3067 214.955 61.5867 214.502 61.96C214.048 62.3067 213.568 62.76 213.062 63.32V77.08C213.062 77.6933 212.715 78 212.022 78H207.742Z" fill="white"/>
<path d="M138.35 76.92L140.23 76.2365L140.207 76.1736L140.18 76.1123L138.35 76.92ZM138.31 77.68L136.614 76.62L136.564 76.7006L136.521 76.7856L138.31 77.68ZM130.99 77.28L132.917 76.7447L132.891 76.651L132.856 76.5603L130.99 77.28ZM126.67 66.08L128.536 65.3603L128.523 65.326L128.509 65.2922L126.67 66.08ZM121.35 65.68L119.75 64.48L119.642 64.6243L119.561 64.7856L121.35 65.68ZM114.43 77.8L112.869 79.0494L112.938 79.1359L113.016 79.2142L114.43 77.8ZM135.71 50.44L134.546 52.066L134.556 52.0733L135.71 50.44ZM137.95 60.12L139.757 60.9781V60.9781L137.95 60.12ZM135.95 62.8L137.236 64.3324L137.25 64.3204L137.264 64.3082L135.95 62.8ZM133.23 64.36L133.863 66.2574L133.878 66.2523L133.893 66.2469L133.23 64.36ZM133.07 64.96L131.224 65.7292L131.232 65.7486L131.241 65.7677L133.07 64.96ZM130.23 59.84L131.48 61.4017L131.486 61.3968L130.23 59.84ZM136.471 77.6035C136.453 77.5543 136.413 77.4204 136.423 77.2249C136.434 77.0158 136.5 76.8035 136.614 76.62L140.006 78.74C140.544 77.8802 140.491 76.9546 140.23 76.2365L136.471 77.6035ZM136.521 76.7856C136.625 76.5792 136.812 76.3472 137.098 76.1835C137.371 76.0273 137.618 76 137.75 76V80C138.149 80 138.622 79.9194 139.083 79.6565C139.556 79.3861 139.889 78.9941 140.099 78.5744L136.521 76.7856ZM137.75 76H131.87V80H137.75V76ZM131.87 76C132.011 76 132.299 76.0452 132.577 76.2721C132.836 76.4845 132.908 76.711 132.917 76.7447L129.063 77.8153C129.206 78.329 129.491 78.9155 130.044 79.3679C130.615 79.8348 131.276 80 131.87 80V76ZM132.856 76.5603L128.536 65.3603L124.804 66.7997L129.124 77.9997L132.856 76.5603ZM128.509 65.2922C127.897 63.8657 126.522 63.52 125.55 63.52V67.52C125.651 67.52 125.556 67.539 125.376 67.4489C125.279 67.4003 125.167 67.3247 125.062 67.2143C124.956 67.1034 124.881 66.9821 124.832 66.8678L128.509 65.2922ZM125.55 63.52H121.75V67.52H125.55V63.52ZM121.75 63.52C121.202 63.52 120.344 63.6881 119.75 64.48L122.95 66.88C122.753 67.1427 122.5 67.3183 122.253 67.417C122.024 67.5085 121.839 67.52 121.75 67.52V63.52ZM119.561 64.7856C119.432 65.0449 119.27 65.4547 119.27 65.96H123.27C123.27 66.1404 123.241 66.2841 123.213 66.3794C123.186 66.475 123.156 66.5412 123.139 66.5744L119.561 64.7856ZM119.27 65.96V77.04H123.27V65.96H119.27ZM119.27 77.04C119.27 76.9867 119.296 76.5989 119.672 76.2652C120.002 75.9714 120.296 76 120.19 76V80C120.804 80 121.638 79.8687 122.329 79.2548C123.064 78.6011 123.27 77.7333 123.27 77.04H119.27ZM120.19 76H115.11V80H120.19V76ZM115.11 76C115.079 76 115.143 75.9955 115.265 76.0313C115.393 76.0689 115.622 76.1633 115.845 76.3858L113.016 79.2142C113.714 79.9119 114.607 80 115.11 80V76ZM115.992 76.5506C116.144 76.7411 116.213 76.9225 116.243 77.0347C116.258 77.0909 116.264 77.1342 116.267 77.1604C116.269 77.1738 116.27 77.1839 116.27 77.1904C116.27 77.1936 116.27 77.196 116.27 77.1976C116.27 77.1984 116.27 77.199 116.27 77.1994C116.27 77.1996 116.27 77.1998 116.27 77.1999C116.27 77.1999 116.27 77.1999 116.27 77.2C116.27 77.2 116.27 77.2 116.27 77.2C116.27 77.1999 116.27 77.2001 116.27 77.2C116.27 77.1999 116.27 77.2001 116.27 77.2H112.27C112.27 77.6804 112.358 78.4107 112.869 79.0494L115.992 76.5506ZM116.27 77.2V49.08H112.27V77.2H116.27ZM116.27 49.08C116.27 49.0872 116.27 49.1655 116.236 49.288C116.2 49.4157 116.122 49.6057 115.96 49.7983C115.583 50.2462 115.104 50.32 114.91 50.32V46.32C114.29 46.32 113.491 46.5205 112.9 47.2217C112.365 47.8572 112.27 48.5942 112.27 49.08H116.27ZM114.91 50.32H127.39V46.32H114.91V50.32ZM127.39 50.32C130.734 50.32 133.038 50.9862 134.546 52.066L136.875 48.814C134.436 47.0671 131.194 46.32 127.39 46.32V50.32ZM134.556 52.0733C135.985 53.0832 136.71 54.4648 136.71 56.48H140.71C140.71 53.2685 139.436 50.6235 136.865 48.8067L134.556 52.0733ZM136.71 56.48C136.71 57.5881 136.505 58.5012 136.144 59.2619L139.757 60.9781C140.409 59.6055 140.71 58.0919 140.71 56.48H136.71ZM136.144 59.2619C135.746 60.0997 135.241 60.7659 134.637 61.2918L137.264 64.3082C138.313 63.3941 139.141 62.2736 139.757 60.9781L136.144 59.2619ZM134.665 61.2676C134.017 61.8113 133.32 62.2087 132.567 62.4731L133.893 66.2469C135.114 65.8179 136.23 65.1754 137.236 64.3324L134.665 61.2676ZM132.598 62.4626C132.002 62.6613 131.318 63.1551 131.078 64.0547C130.883 64.7839 131.092 65.4124 131.224 65.7292L134.916 64.1908C134.927 64.2158 134.961 64.3024 134.982 64.4384C135.003 64.5753 135.017 64.8063 134.943 65.0853C134.863 65.3828 134.701 65.6648 134.466 65.8892C134.244 66.1017 134.015 66.2066 133.863 66.2574L132.598 62.4626ZM131.241 65.7677L136.521 77.7277L140.18 76.1123L134.9 64.1523L131.241 65.7677ZM126.75 62.8C128.513 62.8 130.189 62.434 131.48 61.4017L128.981 58.2783C128.671 58.526 128.027 58.8 126.75 58.8V62.8ZM131.486 61.3968C132.87 60.2802 133.47 58.6966 133.47 56.96H129.47C129.47 57.7301 129.244 58.0664 128.975 58.2832L131.486 61.3968ZM133.47 56.96C133.47 55.2019 132.891 53.5763 131.486 52.4432L128.975 55.5568C129.223 55.757 129.47 56.1048 129.47 56.96H133.47ZM131.486 52.4432C130.214 51.4174 128.637 51 126.95 51V55C127.984 55 128.593 55.2492 128.975 55.5568L131.486 52.4432ZM126.95 51H122.03V55H126.95V51ZM122.03 51C121.52 51 120.764 51.1093 120.127 51.6795C119.447 52.2876 119.27 53.084 119.27 53.68H123.27C123.27 53.8227 123.22 54.279 122.794 54.6605C122.41 55.004 122.034 55 122.03 55V51ZM119.27 53.68V60.12H123.27V53.68H119.27ZM119.27 60.12C119.27 60.5708 119.355 61.2806 119.866 61.9014C120.439 62.5966 121.222 62.8 121.83 62.8V58.8C122.065 58.8 122.568 58.8901 122.954 59.3586C123.119 59.5585 123.197 59.755 123.234 59.8881C123.269 60.0165 123.27 60.1026 123.27 60.12H119.27ZM121.83 62.8H126.75V58.8H121.83V62.8ZM145.089 71.84L143.364 72.8514L143.385 72.8869L143.407 72.9215L145.089 71.84ZM146.969 73.6L146.003 75.3512L146.039 75.3707L146.075 75.3889L146.969 73.6ZM152.289 73.6L153.184 75.3889L153.195 75.3831L153.207 75.3772L152.289 73.6ZM154.769 71.52L153.355 70.1058L153.302 70.1585L153.254 70.215L154.769 71.52ZM155.049 71.36V73.36H155.374L155.682 73.2574L155.049 71.36ZM155.489 71.48L154.595 73.2689L154.657 73.2997L154.72 73.3262L155.489 71.48ZM158.369 72.68L159.157 70.8417L159.148 70.8377L159.139 70.8338L158.369 72.68ZM158.489 73.48L156.917 72.2444L156.881 72.2901L156.848 72.3379L158.489 73.48ZM155.809 76.4L154.588 74.8164L155.809 76.4ZM152.689 77.96L153.196 79.8947L153.212 79.8907L153.227 79.8864L152.689 77.96ZM143.329 77.04L142.356 78.787L143.329 77.04ZM139.449 73.28L137.715 74.2753L137.724 74.2923L137.734 74.309L139.449 73.28ZM139.489 61.76L137.758 60.759L137.753 60.7677L139.489 61.76ZM143.409 57.8L144.405 59.5347L143.409 57.8ZM154.169 57.76L153.158 59.4854L153.169 59.4919L153.18 59.4983L154.169 57.76ZM157.809 61.56L156.044 62.4997L156.05 62.5107L156.056 62.5217L157.809 61.56ZM159.089 68.28L160.987 68.9125V68.9124L159.089 68.28ZM158.489 68.56V70.56H158.566L158.643 70.5541L158.489 68.56ZM144.529 68.72L142.929 67.52V67.52L144.529 68.72ZM152.449 65.2L152.439 67.2H152.449V65.2ZM153.009 65.12L154.119 66.7841L154.284 66.6742L154.424 66.5342L153.009 65.12ZM152.649 62.6L150.807 63.3793L150.82 63.4089L150.833 63.4381L152.649 62.6ZM151.289 60.88L150.023 62.4279L150.061 62.4591L150.101 62.4883L151.289 60.88ZM146.649 60.8L147.698 62.5033V62.5033L146.649 60.8ZM145.049 62.6L146.838 63.4944L146.844 63.482L146.85 63.4695L145.049 62.6ZM144.489 65.16H142.489V67.15L144.479 67.16L144.489 65.16ZM142.409 69.2C142.409 70.5054 142.713 71.7411 143.364 72.8514L146.815 70.8286C146.559 70.3922 146.409 69.8679 146.409 69.2H142.409ZM143.407 72.9215C144.066 73.9459 144.938 74.7633 146.003 75.3512L147.936 71.8488C147.454 71.5833 147.073 71.2274 146.772 70.7585L143.407 72.9215ZM146.075 75.3889C147.18 75.9415 148.385 76.2 149.649 76.2V72.2C148.941 72.2 148.358 72.0585 147.864 71.8111L146.075 75.3889ZM149.649 76.2C150.897 76.2 152.086 75.9378 153.184 75.3889L151.395 71.8111C150.893 72.0622 150.322 72.2 149.649 72.2V76.2ZM153.207 75.3772C154.327 74.7988 155.348 73.9135 156.285 72.8251L153.254 70.215C152.538 71.0465 151.905 71.5479 151.372 71.8228L153.207 75.3772ZM156.184 72.9342C156.158 72.9602 156.067 73.0475 155.912 73.1365C155.756 73.2253 155.457 73.36 155.049 73.36V69.36C154.131 69.36 153.54 69.9208 153.355 70.1058L156.184 72.9342ZM155.682 73.2574C155.393 73.3538 155.147 73.3575 155.004 73.349C154.857 73.3404 154.748 73.3145 154.693 73.2995C154.589 73.2711 154.548 73.2452 154.595 73.2689L156.384 69.6911C156.218 69.6081 155.996 69.5089 155.746 69.4405C155.557 69.389 155.027 69.2592 154.417 69.4626L155.682 73.2574ZM154.72 73.3262L157.6 74.5262L159.139 70.8338L156.259 69.6338L154.72 73.3262ZM157.582 74.5183C157.477 74.4734 156.83 74.1525 156.702 73.2967C156.647 72.9309 156.724 72.6428 156.787 72.4839C156.848 72.3309 156.913 72.2497 156.917 72.2444L160.062 74.7156C160.308 74.4025 160.803 73.6741 160.657 72.7033C160.489 71.5808 159.635 71.0466 159.157 70.8417L157.582 74.5183ZM156.848 72.3379C156.081 73.4395 155.323 74.2495 154.588 74.8164L157.031 77.9836C158.163 77.1105 159.191 75.9739 160.131 74.6221L156.848 72.3379ZM154.588 74.8164C153.86 75.3776 153.053 75.7821 152.152 76.0336L153.227 79.8864C154.619 79.4979 155.892 78.8624 157.031 77.9836L154.588 74.8164ZM152.183 76.0253C151.26 76.267 150.168 76.4 148.889 76.4V80.4C150.438 80.4 151.879 80.2397 153.196 79.8947L152.183 76.0253ZM148.889 76.4C147.11 76.4 145.598 76.0151 144.303 75.293L142.356 78.787C144.314 79.8783 146.509 80.4 148.889 80.4V76.4ZM144.303 75.293C142.983 74.5571 141.945 73.5516 141.164 72.251L137.734 74.309C138.874 76.2084 140.423 77.7096 142.356 78.787L144.303 75.293ZM141.184 72.2847C140.443 70.9931 140.049 69.4898 140.049 67.72H136.049C136.049 70.1102 136.589 72.3136 137.715 74.2753L141.184 72.2847ZM140.049 67.72C140.049 65.71 140.468 64.0785 141.226 62.7523L137.753 60.7677C136.591 62.8015 136.049 65.1433 136.049 67.72H140.049ZM141.221 62.761C142.04 61.3433 143.1 60.2835 144.405 59.5347L142.414 56.0653C140.466 57.1831 138.912 58.7634 137.758 60.759L141.221 62.761ZM144.405 59.5347C145.717 58.782 147.158 58.4 148.769 58.4V54.4C146.487 54.4 144.355 54.9514 142.414 56.0653L144.405 59.5347ZM148.769 58.4C150.52 58.4 151.96 58.7834 153.158 59.4854L155.181 56.0346C153.285 54.9233 151.126 54.4 148.769 54.4V58.4ZM153.18 59.4983C154.38 60.181 155.332 61.1623 156.044 62.4997L159.575 60.6203C158.527 58.651 157.052 57.099 155.158 56.0217L153.18 59.4983ZM156.056 62.5217C156.764 63.8135 157.169 65.4775 157.169 67.6H161.169C161.169 64.9758 160.668 62.6132 159.563 60.5983L156.056 62.5217ZM157.169 67.6C157.169 67.6434 157.168 67.6781 157.167 67.7051C157.166 67.7322 157.164 67.7488 157.163 67.7563C157.162 67.7641 157.162 67.7586 157.166 67.7423C157.169 67.7263 157.177 67.6933 157.192 67.6476L160.987 68.9124C161.14 68.4515 161.169 67.9742 161.169 67.6H157.169ZM157.192 67.6475C157.388 67.059 157.817 66.768 158.054 66.6576C158.26 66.5612 158.391 66.5616 158.336 66.5659L158.643 70.5541C158.934 70.5317 159.339 70.4721 159.745 70.2824C160.182 70.0786 160.737 69.661 160.987 68.9125L157.192 67.6475ZM158.489 66.56H144.889V70.56H158.489V66.56ZM144.889 66.56C144.241 66.56 143.465 66.8063 142.929 67.52L146.129 69.92C145.968 70.1353 145.748 70.3135 145.492 70.4276C145.246 70.5366 145.029 70.56 144.889 70.56V66.56ZM142.929 67.52C142.475 68.1255 142.409 68.7943 142.409 69.2H146.409C146.409 69.2118 146.409 69.288 146.38 69.4051C146.35 69.5242 146.282 69.716 146.129 69.92L142.929 67.52ZM152.449 67.2C152.645 67.2 152.869 67.1918 153.092 67.1599C153.25 67.1373 153.69 67.0697 154.119 66.7841L151.9 63.4559C152.1 63.3223 152.275 63.2632 152.355 63.2393C152.444 63.2127 152.507 63.203 152.527 63.2001C152.563 63.1948 152.547 63.2 152.449 63.2V67.2ZM154.424 66.5342C154.811 66.1465 154.97 65.7056 155.04 65.4251C155.113 65.1325 155.129 64.8565 155.129 64.64H151.129C151.129 64.6635 151.126 64.5875 151.159 64.4549C151.189 64.3344 151.287 64.0135 151.595 63.7058L154.424 66.5342ZM155.129 64.64C155.129 63.6447 154.889 62.6798 154.465 61.7619L150.833 63.4381C151.05 63.9068 151.129 64.302 151.129 64.64H155.129ZM154.491 61.8207C154.057 60.793 153.376 59.9349 152.478 59.2716L150.101 62.4883C150.43 62.7317 150.656 63.0203 150.807 63.3793L154.491 61.8207ZM152.556 59.3321C151.535 58.4969 150.294 58.16 149.009 58.16V62.16C149.591 62.16 149.87 62.3031 150.023 62.4279L152.556 59.3321ZM149.009 58.16C147.79 58.16 146.635 58.4604 145.601 59.0967L147.698 62.5033C148.05 62.2863 148.468 62.16 149.009 62.16V58.16ZM145.601 59.0967C144.564 59.7349 143.778 60.6328 143.248 61.7305L146.85 63.4695C147.067 63.0205 147.348 62.7185 147.698 62.5033L145.601 59.0967ZM143.261 61.7056C142.729 62.7689 142.489 63.9362 142.489 65.16H146.489C146.489 64.4638 146.623 63.9244 146.838 63.4944L143.261 61.7056ZM144.479 67.16L152.439 67.2L152.459 63.2L144.499 63.16L144.479 67.16ZM174.367 77.84L173.087 79.3764L173.222 79.4891L173.375 79.5765L174.367 77.84ZM173.967 75.76L174.452 73.8197L173.967 75.76ZM173.567 75.92L172.287 74.3836L172.242 74.421L172.199 74.4609L173.567 75.92ZM172.127 77.12L173.274 78.7585L173.301 78.7397L173.327 78.72L172.127 77.12ZM170.247 78.04L169.614 76.1426L170.247 78.04ZM163.407 77.2L162.331 78.8858L163.407 77.2ZM160.447 73.6L158.618 74.4095L158.623 74.4207L160.447 73.6ZM160.527 61.72L158.721 60.8601L158.715 60.8726L160.527 61.72ZM163.727 57.8L164.874 59.4385L163.727 57.8ZM173.367 58.52L172.004 59.9838L172.082 60.0562L172.167 60.12L173.367 58.52ZM173.847 58.72L174.332 60.6603L174.464 60.6274L174.59 60.577L173.847 58.72ZM174.047 62.32H176.047V61.542L175.521 60.9686L174.047 62.32ZM172.247 60.88L171.229 62.6019L171.275 62.6287L171.322 62.6532L172.247 60.88ZM167.807 61.12L168.945 62.7644L168.952 62.76L168.958 62.7556L167.807 61.12ZM166.167 63.4L164.3 62.682L164.292 62.7031L164.284 62.7243L166.167 63.4ZM166.167 71.6L164.284 72.2757L164.292 72.2969L164.3 72.318L166.167 71.6ZM167.767 73.88L166.598 75.5031L166.635 75.5293L166.672 75.5539L167.767 73.88ZM172.127 74.04L173.144 75.7619L172.127 74.04ZM173.527 72.72L175.204 73.81L173.527 72.72ZM174.967 76C175.029 76 175.099 76.008 175.172 76.0275C175.245 76.047 175.308 76.0745 175.359 76.1035L173.375 79.5765C173.861 79.8544 174.403 80 174.967 80V76ZM175.647 76.3036C176.107 76.6868 176.127 77.1527 176.127 77.2H172.127C172.127 77.834 172.307 78.7265 173.087 79.3764L175.647 76.3036ZM176.127 77.2V76.08H172.127V77.2H176.127ZM176.127 76.08C176.127 75.8342 176.098 75.4099 175.876 74.9656C175.613 74.4401 175.124 73.9877 174.452 73.8197L173.482 77.7003C172.917 77.559 172.507 77.1733 172.298 76.7544C172.129 76.4168 172.127 76.1392 172.127 76.08H176.127ZM174.452 73.8197C173.345 73.5431 172.526 74.184 172.287 74.3836L174.847 77.4564C174.832 77.4692 174.724 77.5592 174.53 77.637C174.325 77.7188 173.945 77.8161 173.482 77.7003L174.452 73.8197ZM172.199 74.4609C171.832 74.8046 171.41 75.1579 170.927 75.52L173.327 78.72C173.911 78.2821 174.448 77.8354 174.935 77.3791L172.199 74.4609ZM170.98 75.4815C170.628 75.7276 170.181 75.9538 169.614 76.1426L170.879 79.9374C171.753 79.6462 172.559 79.259 173.274 78.7585L170.98 75.4815ZM169.614 76.1426C169.144 76.2994 168.526 76.4 167.727 76.4V80.4C168.848 80.4 169.91 80.2606 170.879 79.9374L169.614 76.1426ZM167.727 76.4C166.444 76.4 165.385 76.0899 164.483 75.5142L162.331 78.8858C163.936 79.9101 165.756 80.4 167.727 80.4V76.4ZM164.483 75.5142C163.613 74.959 162.86 74.0893 162.271 72.7793L158.623 74.4207C159.473 76.3107 160.694 77.841 162.331 78.8858L164.483 75.5142ZM162.276 72.7905C161.701 71.4913 161.367 69.7732 161.367 67.56H157.367C157.367 70.1468 157.753 72.4554 158.618 74.4095L162.276 72.7905ZM161.367 67.56C161.367 65.5477 161.714 63.9022 162.339 62.5674L158.715 60.8726C157.793 62.8445 157.367 65.0923 157.367 67.56H161.367ZM162.333 62.5799C163.006 61.1666 163.862 60.1466 164.874 59.4385L162.58 56.1615C160.925 57.32 159.648 58.9134 158.721 60.8601L162.333 62.5799ZM164.874 59.4385C165.877 58.7361 166.945 58.4 168.127 58.4V54.4C166.109 54.4 164.243 54.9972 162.58 56.1615L164.874 59.4385ZM168.127 58.4C168.977 58.4 169.654 58.538 170.193 58.7644L171.74 55.0756C170.627 54.6087 169.41 54.4 168.127 54.4V58.4ZM170.193 58.7644C170.768 59.0052 171.373 59.3963 172.004 59.9838L174.73 57.0562C173.814 56.2037 172.819 55.5281 171.74 55.0756L170.193 58.7644ZM172.167 60.12C172.343 60.2523 172.586 60.4145 172.878 60.5362C173.142 60.6462 173.682 60.8227 174.332 60.6603L173.362 56.7797C173.905 56.644 174.312 56.8005 174.416 56.8438C174.548 56.8989 174.604 56.9477 174.567 56.92L172.167 60.12ZM174.59 60.577C175.314 60.2872 175.692 59.7132 175.864 59.268C176.021 58.8585 176.047 58.4664 176.047 58.2H172.047C172.047 58.1991 172.047 58.1915 172.048 58.178C172.049 58.1647 172.05 58.1431 172.054 58.1147C172.062 58.0619 172.081 57.9606 172.13 57.832C172.235 57.5602 172.513 57.0995 173.104 56.863L174.59 60.577ZM176.047 58.2V49.04H172.047V58.2H176.047ZM176.047 49.04C176.047 49.0541 176.049 49.4382 175.702 49.8287C175.315 50.2642 174.847 50.32 174.687 50.32V46.32C174.1 46.32 173.312 46.4958 172.712 47.1713C172.152 47.8018 172.047 48.5459 172.047 49.04H176.047ZM174.687 50.32H179.567V46.32H174.687V50.32ZM179.567 50.32C179.373 50.32 178.894 50.2462 178.517 49.7983C178.355 49.6057 178.277 49.4157 178.241 49.288C178.207 49.1655 178.207 49.0872 178.207 49.08H182.207C182.207 48.5942 182.112 47.8572 181.577 47.2217C180.986 46.5205 180.187 46.32 179.567 46.32V50.32ZM178.207 49.08V77.16H182.207V49.08H178.207ZM178.207 77.16C178.207 77.1586 178.207 77.1388 178.211 77.1041C178.216 77.0694 178.226 77.0139 178.248 76.9435C178.293 76.7986 178.392 76.5865 178.593 76.3858L181.421 79.2142C182.093 78.5426 182.207 77.6968 182.207 77.16H178.207ZM178.593 76.3858C178.836 76.1426 179.083 76.0532 179.192 76.023C179.299 75.9931 179.344 76 179.287 76V80C179.762 80 180.701 79.934 181.421 79.2142L178.593 76.3858ZM179.287 76H174.967V80H179.287V76ZM175.521 60.9686C174.816 60.199 174.037 59.5579 173.172 59.1068L171.322 62.6532C171.684 62.8421 172.105 63.161 172.573 63.6714L175.521 60.9686ZM173.264 59.1581C172.33 58.6059 171.289 58.36 170.207 58.36V62.36C170.672 62.36 170.991 62.4608 171.229 62.6019L173.264 59.1581ZM170.207 58.36C168.915 58.36 167.713 58.7407 166.656 59.4844L168.958 62.7556C169.341 62.486 169.739 62.36 170.207 62.36V58.36ZM166.668 59.4756C165.554 60.2473 164.799 61.3858 164.3 62.682L168.034 64.118C168.335 63.3342 168.673 62.9527 168.945 62.7644L166.668 59.4756ZM164.284 62.7243C163.804 64.0631 163.607 65.6769 163.607 67.48H167.607C167.607 65.9231 167.783 64.8169 168.049 64.0757L164.284 62.7243ZM163.607 67.48C163.607 69.3055 163.803 70.9343 164.284 72.2757L168.049 70.9243C167.784 70.1857 167.607 69.0679 167.607 67.48H163.607ZM164.3 72.318C164.791 73.5953 165.522 74.728 166.598 75.5031L168.935 72.2569C168.679 72.072 168.342 71.6847 168.034 70.882L164.3 72.318ZM166.672 75.5539C167.712 76.2335 168.884 76.56 170.127 76.56V72.56C169.61 72.56 169.209 72.4331 168.861 72.2061L166.672 75.5539ZM170.127 76.56C171.196 76.56 172.22 76.3078 173.144 75.7619L171.109 72.3181C170.86 72.4656 170.551 72.56 170.127 72.56V76.56ZM173.144 75.7619C173.977 75.2697 174.677 74.6202 175.204 73.81L171.85 71.63C171.683 71.8865 171.45 72.117 171.109 72.3181L173.144 75.7619ZM175.204 73.81C175.743 72.9807 176.047 72.0463 176.047 71.04H172.047C172.047 71.2071 172.004 71.3926 171.85 71.63L175.204 73.81ZM176.047 71.04V62.32H172.047V71.04H176.047ZM195.302 57L193.74 58.2494L193.809 58.3359L193.888 58.4142L195.302 57ZM181.182 57L179.768 55.5858L179.689 55.6641L179.62 55.7506L181.182 57ZM186.462 49.76L185.086 48.3081L186.462 49.76ZM195.662 49.16H193.662V49.1754L193.662 49.1908L195.662 49.16ZM195.702 51.76H197.702V51.7446L197.702 51.7292L195.702 51.76ZM195.542 52.24L193.98 50.9906L193.896 51.0957L193.827 51.211L195.542 52.24ZM191.502 53.12L193.007 54.437L193.027 54.4145L193.046 54.3914L191.502 53.12ZM204.422 77.8L205.702 79.3364L205.772 79.2784L205.836 79.2142L204.422 77.8ZM198.662 77.8L197.1 79.0494L197.169 79.1359L197.248 79.2142L198.662 77.8ZM198.622 54L196.958 55.1094L197.017 55.1983L197.085 55.2804L198.622 54ZM194.742 58.8C194.72 58.8 194.592 58.7988 194.409 58.7335C194.21 58.6624 193.954 58.5165 193.74 58.2494L196.864 55.7506C196.205 54.9272 195.272 54.8 194.742 54.8V58.8ZM193.888 58.4142C193.786 58.3125 193.681 58.1708 193.606 57.9892C193.53 57.8072 193.502 57.6302 193.502 57.48H197.502C197.502 56.7569 197.22 56.0899 196.716 55.5858L193.888 58.4142ZM193.502 57.48V60.44H197.502V57.48H193.502ZM193.502 60.44C193.502 60.2622 193.564 59.7828 194.009 59.3903C194.406 59.0399 194.798 59.04 194.822 59.04V63.04C195.3 63.04 196.031 62.9401 196.655 62.3897C197.327 61.7972 197.502 61.0178 197.502 60.44H193.502ZM194.822 59.04H191.502V63.04H194.822V59.04ZM191.502 59.04C191.009 59.04 190.286 59.1844 189.722 59.8047C189.191 60.3887 189.102 61.0697 189.102 61.48H193.102C193.102 61.597 193.079 62.058 192.682 62.4953C192.251 62.9689 191.729 63.04 191.502 63.04V59.04ZM189.102 61.48V77.24H193.102V61.48H189.102ZM189.102 77.24C189.102 77.2328 189.102 77.1545 189.136 77.032C189.172 76.9043 189.25 76.7143 189.412 76.5217C189.789 76.0738 190.268 76 190.462 76V80C191.082 80 191.881 79.7995 192.472 79.0983C193.007 78.4628 193.102 77.7258 193.102 77.24H189.102ZM190.462 76H185.542V80H190.462V76ZM185.542 76C185.72 76 186.199 76.0619 186.592 76.5068C186.942 76.9039 186.942 77.2957 186.942 77.32H182.942C182.942 77.7977 183.042 78.5295 183.592 79.1532C184.185 79.8248 184.964 80 185.542 80V76ZM186.942 77.32V61.4H182.942V77.32H186.942ZM186.942 61.4C186.942 61.0259 186.864 60.3718 186.357 59.8013C185.81 59.1858 185.102 59.04 184.622 59.04V63.04C184.355 63.04 183.807 62.9542 183.367 62.4587C182.967 62.0082 182.942 61.5341 182.942 61.4H186.942ZM184.622 59.04H181.742V63.04H184.622V59.04ZM181.742 59.04C181.754 59.04 181.837 59.0406 181.962 59.0755C182.093 59.1117 182.286 59.19 182.482 59.3536C182.94 59.7353 183.022 60.2261 183.022 60.44H179.022C179.022 61.0539 179.223 61.8447 179.922 62.4264C180.55 62.9499 181.273 63.04 181.742 63.04V59.04ZM183.022 60.44V57.48H179.022V60.44H183.022ZM183.022 57.48C183.022 57.5788 183.007 57.708 182.959 57.8525C182.91 57.9991 182.836 58.1342 182.744 58.2494L179.62 55.7506C179.203 56.2723 179.022 56.8843 179.022 57.48H183.022ZM182.596 58.4142C182.222 58.7882 181.824 58.8 181.782 58.8V54.8C181.207 54.8 180.408 54.9451 179.768 55.5858L182.596 58.4142ZM181.782 58.8H184.462V54.8H181.782V58.8ZM184.462 58.8C185.063 58.8 185.831 58.5899 186.384 57.8994C186.868 57.2941 186.942 56.6137 186.942 56.2H182.942C182.942 56.1863 182.936 55.8059 183.26 55.4006C183.653 54.9101 184.18 54.8 184.462 54.8V58.8ZM186.942 56.2V53.76H182.942V56.2H186.942ZM186.942 53.76C186.942 52.4713 187.309 51.7126 187.837 51.2119L185.086 48.3081C183.588 49.7274 182.942 51.6354 182.942 53.76H186.942ZM187.837 51.2119C188.373 50.7043 189.246 50.32 190.742 50.32V46.32C188.558 46.32 186.577 46.8957 185.086 48.3081L187.837 51.2119ZM190.742 50.32H194.782V46.32H190.742V50.32ZM194.782 50.32C194.776 50.32 194.691 50.32 194.56 50.2784C194.421 50.234 194.236 50.144 194.061 49.9767C193.68 49.6135 193.662 49.2126 193.662 49.16H197.662C197.662 48.5474 197.497 47.7265 196.823 47.0833C196.166 46.4566 195.361 46.32 194.782 46.32V50.32ZM193.662 49.1908L193.702 51.7908L197.702 51.7292L197.662 49.1292L193.662 49.1908ZM193.702 51.76C193.702 51.6612 193.716 51.532 193.765 51.3875C193.813 51.2409 193.888 51.1058 193.98 50.9906L197.104 53.4894C197.521 52.9677 197.702 52.3557 197.702 51.76H193.702ZM193.827 51.211C194.003 50.9168 194.263 50.6973 194.544 50.5693C194.801 50.4527 195.011 50.44 195.102 50.44V54.44C195.725 54.44 196.687 54.219 197.257 53.269L193.827 51.211ZM195.102 50.44H192.942V54.44H195.102V50.44ZM192.942 50.44C191.757 50.44 190.711 50.9345 189.958 51.8486L193.046 54.3914C193.057 54.3776 193.059 54.3784 193.048 54.3866C193.037 54.3953 193.02 54.4073 192.996 54.4185C192.972 54.4297 192.951 54.4359 192.938 54.4388C192.924 54.4416 192.924 54.44 192.942 54.44V50.44ZM189.997 51.803C189.237 52.6709 188.942 53.7349 188.942 54.8H192.942C192.942 54.6317 192.965 54.5365 192.979 54.4925C192.992 54.4538 193.002 54.4422 193.007 54.437L189.997 51.803ZM188.942 54.8V56.36H192.942V54.8H188.942ZM188.942 56.36C188.942 56.8619 189.087 57.5926 189.71 58.1643C190.301 58.7058 190.995 58.8 191.422 58.8V54.8C191.529 54.8 191.983 54.8209 192.413 55.2157C192.877 55.6407 192.942 56.1515 192.942 56.36H188.942ZM191.422 58.8H194.742V54.8H191.422V58.8ZM202.662 77.04C202.662 77.1328 202.634 76.7593 203.008 76.3858L205.836 79.2142C206.53 78.5207 206.662 77.6406 206.662 77.04H202.662ZM203.142 76.2636C203.371 76.0719 203.577 76.0168 203.629 76.0044C203.686 75.9907 203.681 76 203.582 76V80C204.078 80 204.975 79.9428 205.702 79.3364L203.142 76.2636ZM203.582 76H199.382V80H203.582V76ZM199.382 76C199.324 76 199.37 75.9931 199.477 76.023C199.586 76.0532 199.833 76.1426 200.076 76.3858L197.248 79.2142C197.967 79.934 198.907 80 199.382 80V76ZM200.224 76.5506C200.394 76.7634 200.458 76.9598 200.482 77.0549C200.506 77.1495 200.502 77.1938 200.502 77.16H196.502C196.502 77.6124 196.568 78.3847 197.1 79.0494L200.224 76.5506ZM200.502 77.16V57.56H196.502V77.16H200.502ZM200.502 57.56C200.502 57.5672 200.502 57.6455 200.467 57.768C200.432 57.8957 200.354 58.0857 200.192 58.2783C199.814 58.7262 199.336 58.8 199.142 58.8V54.8C198.521 54.8 197.723 55.0005 197.132 55.7017C196.597 56.3372 196.502 57.0742 196.502 57.56H200.502ZM199.142 58.8H204.062V54.8H199.142V58.8ZM204.062 58.8C203.884 58.8 203.405 58.7381 203.012 58.2932C202.662 57.8961 202.662 57.5043 202.662 57.48H206.662C206.662 57.0023 206.562 56.2705 206.012 55.6468C205.419 54.9752 204.64 54.8 204.062 54.8V58.8ZM202.662 57.48V77.04H206.662V57.48H202.662ZM202.742 53.24C202.742 53.2239 202.753 52.8555 203.113 52.5225C203.444 52.2164 203.75 52.24 203.662 52.24V56.24C204.294 56.24 205.14 56.097 205.831 55.4575C206.55 54.7912 206.742 53.9228 206.742 53.24H202.742ZM203.662 52.24H199.342V56.24H203.662V52.24ZM199.342 52.24C199.31 52.24 199.391 52.2347 199.534 52.2826C199.691 52.3349 199.94 52.458 200.158 52.7196L197.085 55.2804C197.79 56.1262 198.786 56.24 199.342 56.24V52.24ZM200.286 52.8906C200.39 53.0461 200.432 53.1806 200.449 53.2519C200.465 53.3216 200.462 53.3503 200.462 53.32H196.462C196.462 53.8148 196.545 54.4903 196.958 55.1094L200.286 52.8906ZM200.462 53.32V49.12H196.462V53.32H200.462ZM200.462 49.12C200.462 49.1218 200.462 49.196 200.429 49.3152C200.393 49.4399 200.316 49.6263 200.156 49.8153C199.783 50.2534 199.316 50.32 199.142 50.32V46.32C198.514 46.32 197.707 46.5199 197.108 47.2247C196.562 47.8673 196.462 48.6173 196.462 49.12H200.462ZM199.142 50.32H204.102V46.32H199.142V50.32ZM204.102 50.32C203.908 50.32 203.429 50.2462 203.052 49.7983C202.89 49.6057 202.812 49.4157 202.776 49.288C202.742 49.1655 202.742 49.0872 202.742 49.08H206.742C206.742 48.5942 206.647 47.8572 206.112 47.2217C205.521 46.5205 204.722 46.32 204.102 46.32V50.32ZM202.742 49.08V53.24H206.742V49.08H202.742ZM213.102 59.76L211.992 61.4241V61.4241L213.102 59.76ZM213.462 59.6L212.105 58.1304L212.076 58.1575L212.047 58.1858L213.462 59.6ZM215.542 57.92L216.68 59.5644L215.542 57.92ZM217.742 56.8L217.09 54.9093L217.742 56.8ZM224.822 58.12L223.391 59.5175L223.399 59.5259L223.407 59.5342L224.822 58.12ZM220.542 77.84L218.98 79.0894L219.119 79.2629L219.292 79.4017L220.542 77.84ZM219.622 61.6L218.17 62.9755L218.207 63.0147L218.246 63.0519L219.622 61.6ZM215.902 61.12L215.177 59.256L215.902 61.12ZM214.502 61.96L215.716 63.5487L215.745 63.5268L215.773 63.5039L214.502 61.96ZM213.062 63.32L211.578 61.9782L211.062 62.5495V63.32H213.062ZM207.742 76C207.746 76 208.121 75.9994 208.491 76.3517C208.879 76.7214 208.902 77.1328 208.902 77.2H204.902C204.902 77.8005 205.064 78.6119 205.732 79.2483C206.382 79.8672 207.177 80 207.742 80V76ZM208.902 77.2V57.56H204.902V77.2H208.902ZM208.902 57.56C208.902 57.5672 208.902 57.6455 208.867 57.768C208.831 57.8957 208.754 58.0857 208.591 58.2783C208.214 58.7262 207.735 58.8 207.542 58.8V54.8C206.921 54.8 206.122 55.0005 205.532 55.7017C204.997 56.3372 204.902 57.0742 204.902 57.56H208.902ZM207.542 58.8H212.382V54.8H207.542V58.8ZM212.382 58.8C212.204 58.8 211.724 58.7381 211.332 58.2932C210.982 57.8961 210.982 57.5043 210.982 57.48H214.982C214.982 57.0023 214.882 56.2705 214.331 55.6468C213.739 54.9752 212.959 54.8 212.382 54.8V58.8ZM210.982 57.48V59.44H214.982V57.48H210.982ZM210.982 59.44C210.982 59.8191 211.064 60.8055 211.992 61.4241L214.211 58.0959C214.581 58.3425 214.785 58.673 214.884 58.9378C214.975 59.1798 214.982 59.3698 214.982 59.44H210.982ZM211.992 61.4241C212.801 61.963 213.632 61.7797 214.064 61.5876C214.454 61.4142 214.729 61.1608 214.876 61.0142L212.047 58.1858C212.054 58.1793 212.084 58.1495 212.137 58.1091C212.187 58.0713 212.289 57.9994 212.439 57.9324C212.589 57.866 212.841 57.78 213.169 57.78C213.522 57.78 213.889 57.8811 214.211 58.0959L211.992 61.4241ZM214.818 61.0696C215.451 60.4856 216.072 59.9855 216.68 59.5644L214.403 56.2756C213.625 56.8145 212.859 57.4344 212.105 58.1304L214.818 61.0696ZM216.68 59.5644C217.228 59.1851 217.798 58.8961 218.394 58.6907L217.09 54.9093C216.138 55.2373 215.242 55.6949 214.403 56.2756L216.68 59.5644ZM218.394 58.6907C218.942 58.5017 219.547 58.4 220.222 58.4V54.4C219.137 54.4 218.088 54.565 217.09 54.9093L218.394 58.6907ZM220.222 58.4C221.753 58.4 222.726 58.8364 223.391 59.5175L226.252 56.7225C224.678 55.1103 222.583 54.4 220.222 54.4V58.4ZM223.407 59.5342C224.111 60.2376 224.542 61.2255 224.542 62.72H228.542C228.542 60.3745 227.826 58.2957 226.236 56.7058L223.407 59.5342ZM224.542 62.72V77.04H228.542V62.72H224.542ZM224.542 77.04C224.542 77.0393 224.541 76.9573 224.584 76.8275C224.631 76.6881 224.723 76.5101 224.887 76.3458C225.052 76.1815 225.23 76.0891 225.369 76.0426C225.499 75.9994 225.581 76 225.582 76V80C226.21 80 227.048 79.8416 227.716 79.1742C228.383 78.5069 228.542 77.6683 228.542 77.04H224.542ZM225.582 76H221.142V80H225.582V76ZM221.142 76C221.141 76 221.142 76 221.142 76C221.141 76 221.142 76 221.142 76C221.142 76 221.142 76 221.142 76C221.142 76 221.142 76 221.142 76C221.142 76 221.142 76 221.142 76C221.143 76 221.143 76 221.144 76C221.146 76.0001 221.148 76.0002 221.151 76.0003C221.158 76.0007 221.168 76.0014 221.181 76.0029C221.207 76.0059 221.251 76.0125 221.307 76.0275C221.419 76.0574 221.6 76.1258 221.791 76.2783L219.292 79.4017C219.931 79.9127 220.661 80 221.142 80V76ZM222.103 76.5906C222.273 76.8034 222.338 76.9998 222.362 77.0949C222.385 77.1895 222.382 77.2338 222.382 77.2H218.382C218.382 77.6524 218.448 78.4247 218.98 79.0894L222.103 76.5906ZM222.382 77.2V63.68H218.382V77.2H222.382ZM222.382 63.68C222.382 62.3969 222.012 61.1101 220.997 60.1481L218.246 63.0519C218.262 63.0668 218.286 63.0932 218.313 63.1664C218.343 63.2494 218.382 63.4092 218.382 63.68H222.382ZM221.073 60.2245C220.091 59.1875 218.758 58.84 217.462 58.84V62.84C217.771 62.84 217.958 62.8815 218.058 62.9166C218.147 62.9479 218.168 62.9737 218.17 62.9755L221.073 60.2245ZM217.462 58.84C216.675 58.84 215.907 58.9719 215.177 59.256L216.626 62.984C216.856 62.8948 217.128 62.84 217.462 62.84V58.84ZM215.177 59.256C214.473 59.5296 213.825 59.9264 213.23 60.4161L215.773 63.5039C216.085 63.247 216.37 63.0837 216.626 62.984L215.177 59.256ZM213.287 60.3713C212.711 60.8112 212.142 61.3549 211.578 61.9782L214.545 64.6618C214.994 64.1651 215.385 63.8022 215.716 63.5487L213.287 60.3713ZM211.062 63.32V77.08H215.062V63.32H211.062ZM211.062 77.08C211.062 77.0105 211.093 76.6116 211.476 76.272C211.814 75.9738 212.116 76 212.022 76V80C212.62 80 213.443 79.8729 214.127 79.268C214.857 78.6217 215.062 77.7629 215.062 77.08H211.062ZM212.022 76H207.742V80H212.022V76Z" fill="#B12929" mask="url(#path-1-outside-1_259_756)"/>
<path d="M138.35 76.92L140.23 76.2365L140.207 76.1736L140.18 76.1123L138.35 76.92ZM138.31 77.68L136.614 76.62L136.564 76.7006L136.521 76.7856L138.31 77.68ZM130.99 77.28L132.917 76.7447L132.891 76.651L132.856 76.5603L130.99 77.28ZM126.67 66.08L128.536 65.3603L128.523 65.326L128.509 65.2922L126.67 66.08ZM121.35 65.68L119.75 64.48L119.642 64.6243L119.561 64.7856L121.35 65.68ZM114.43 77.8L112.869 79.0494L112.938 79.1359L113.016 79.2142L114.43 77.8ZM135.71 50.44L134.546 52.066L134.556 52.0733L135.71 50.44ZM137.95 60.12L139.757 60.9781V60.9781L137.95 60.12ZM135.95 62.8L137.236 64.3324L137.25 64.3204L137.264 64.3082L135.95 62.8ZM133.23 64.36L133.863 66.2574L133.878 66.2523L133.893 66.2469L133.23 64.36ZM133.07 64.96L131.224 65.7292L131.232 65.7486L131.241 65.7677L133.07 64.96ZM130.23 59.84L131.48 61.4017L131.486 61.3968L130.23 59.84ZM136.471 77.6035C136.453 77.5543 136.413 77.4204 136.423 77.2249C136.434 77.0158 136.5 76.8035 136.614 76.62L140.006 78.74C140.544 77.8802 140.491 76.9546 140.23 76.2365L136.471 77.6035ZM136.521 76.7856C136.625 76.5792 136.812 76.3472 137.098 76.1835C137.371 76.0273 137.618 76 137.75 76V80C138.149 80 138.622 79.9194 139.083 79.6565C139.556 79.3861 139.889 78.9941 140.099 78.5744L136.521 76.7856ZM137.75 76H131.87V80H137.75V76ZM131.87 76C132.011 76 132.299 76.0452 132.577 76.2721C132.836 76.4845 132.908 76.711 132.917 76.7447L129.063 77.8153C129.206 78.329 129.491 78.9155 130.044 79.3679C130.615 79.8348 131.276 80 131.87 80V76ZM132.856 76.5603L128.536 65.3603L124.804 66.7997L129.124 77.9997L132.856 76.5603ZM128.509 65.2922C127.897 63.8657 126.522 63.52 125.55 63.52V67.52C125.651 67.52 125.556 67.539 125.376 67.4489C125.279 67.4003 125.167 67.3247 125.062 67.2143C124.956 67.1034 124.881 66.9821 124.832 66.8678L128.509 65.2922ZM125.55 63.52H121.75V67.52H125.55V63.52ZM121.75 63.52C121.202 63.52 120.344 63.6881 119.75 64.48L122.95 66.88C122.753 67.1427 122.5 67.3183 122.253 67.417C122.024 67.5085 121.839 67.52 121.75 67.52V63.52ZM119.561 64.7856C119.432 65.0449 119.27 65.4547 119.27 65.96H123.27C123.27 66.1404 123.241 66.2841 123.213 66.3794C123.186 66.475 123.156 66.5412 123.139 66.5744L119.561 64.7856ZM119.27 65.96V77.04H123.27V65.96H119.27ZM119.27 77.04C119.27 76.9867 119.296 76.5989 119.672 76.2652C120.002 75.9714 120.296 76 120.19 76V80C120.804 80 121.638 79.8687 122.329 79.2548C123.064 78.6011 123.27 77.7333 123.27 77.04H119.27ZM120.19 76H115.11V80H120.19V76ZM115.11 76C115.079 76 115.143 75.9955 115.265 76.0313C115.393 76.0689 115.622 76.1633 115.845 76.3858L113.016 79.2142C113.714 79.9119 114.607 80 115.11 80V76ZM115.992 76.5506C116.144 76.7411 116.213 76.9225 116.243 77.0347C116.258 77.0909 116.264 77.1342 116.267 77.1604C116.269 77.1738 116.27 77.1839 116.27 77.1904C116.27 77.1936 116.27 77.196 116.27 77.1976C116.27 77.1984 116.27 77.199 116.27 77.1994C116.27 77.1996 116.27 77.1998 116.27 77.1999C116.27 77.1999 116.27 77.1999 116.27 77.2C116.27 77.2 116.27 77.2 116.27 77.2C116.27 77.1999 116.27 77.2001 116.27 77.2C116.27 77.1999 116.27 77.2001 116.27 77.2H112.27C112.27 77.6804 112.358 78.4107 112.869 79.0494L115.992 76.5506ZM116.27 77.2V49.08H112.27V77.2H116.27ZM116.27 49.08C116.27 49.0872 116.27 49.1655 116.236 49.288C116.2 49.4157 116.122 49.6057 115.96 49.7983C115.583 50.2462 115.104 50.32 114.91 50.32V46.32C114.29 46.32 113.491 46.5205 112.9 47.2217C112.365 47.8572 112.27 48.5942 112.27 49.08H116.27ZM114.91 50.32H127.39V46.32H114.91V50.32ZM127.39 50.32C130.734 50.32 133.038 50.9862 134.546 52.066L136.875 48.814C134.436 47.0671 131.194 46.32 127.39 46.32V50.32ZM134.556 52.0733C135.985 53.0832 136.71 54.4648 136.71 56.48H140.71C140.71 53.2685 139.436 50.6235 136.865 48.8067L134.556 52.0733ZM136.71 56.48C136.71 57.5881 136.505 58.5012 136.144 59.2619L139.757 60.9781C140.409 59.6055 140.71 58.0919 140.71 56.48H136.71ZM136.144 59.2619C135.746 60.0997 135.241 60.7659 134.637 61.2918L137.264 64.3082C138.313 63.3941 139.141 62.2736 139.757 60.9781L136.144 59.2619ZM134.665 61.2676C134.017 61.8113 133.32 62.2087 132.567 62.4731L133.893 66.2469C135.114 65.8179 136.23 65.1754 137.236 64.3324L134.665 61.2676ZM132.598 62.4626C132.002 62.6613 131.318 63.1551 131.078 64.0547C130.883 64.7839 131.092 65.4124 131.224 65.7292L134.916 64.1908C134.927 64.2158 134.961 64.3024 134.982 64.4384C135.003 64.5753 135.017 64.8063 134.943 65.0853C134.863 65.3828 134.701 65.6648 134.466 65.8892C134.244 66.1017 134.015 66.2066 133.863 66.2574L132.598 62.4626ZM131.241 65.7677L136.521 77.7277L140.18 76.1123L134.9 64.1523L131.241 65.7677ZM126.75 62.8C128.513 62.8 130.189 62.434 131.48 61.4017L128.981 58.2783C128.671 58.526 128.027 58.8 126.75 58.8V62.8ZM131.486 61.3968C132.87 60.2802 133.47 58.6966 133.47 56.96H129.47C129.47 57.7301 129.244 58.0664 128.975 58.2832L131.486 61.3968ZM133.47 56.96C133.47 55.2019 132.891 53.5763 131.486 52.4432L128.975 55.5568C129.223 55.757 129.47 56.1048 129.47 56.96H133.47ZM131.486 52.4432C130.214 51.4174 128.637 51 126.95 51V55C127.984 55 128.593 55.2492 128.975 55.5568L131.486 52.4432ZM126.95 51H122.03V55H126.95V51ZM122.03 51C121.52 51 120.764 51.1093 120.127 51.6795C119.447 52.2876 119.27 53.084 119.27 53.68H123.27C123.27 53.8227 123.22 54.279 122.794 54.6605C122.41 55.004 122.034 55 122.03 55V51ZM119.27 53.68V60.12H123.27V53.68H119.27ZM119.27 60.12C119.27 60.5708 119.355 61.2806 119.866 61.9014C120.439 62.5966 121.222 62.8 121.83 62.8V58.8C122.065 58.8 122.568 58.8901 122.954 59.3586C123.119 59.5585 123.197 59.755 123.234 59.8881C123.269 60.0165 123.27 60.1026 123.27 60.12H119.27ZM121.83 62.8H126.75V58.8H121.83V62.8ZM145.089 71.84L143.364 72.8514L143.385 72.8869L143.407 72.9215L145.089 71.84ZM146.969 73.6L146.003 75.3512L146.039 75.3707L146.075 75.3889L146.969 73.6ZM152.289 73.6L153.184 75.3889L153.195 75.3831L153.207 75.3772L152.289 73.6ZM154.769 71.52L153.355 70.1058L153.302 70.1585L153.254 70.215L154.769 71.52ZM155.049 71.36V73.36H155.374L155.682 73.2574L155.049 71.36ZM155.489 71.48L154.595 73.2689L154.657 73.2997L154.72 73.3262L155.489 71.48ZM158.369 72.68L159.157 70.8417L159.148 70.8377L159.139 70.8338L158.369 72.68ZM158.489 73.48L156.917 72.2444L156.881 72.2901L156.848 72.3379L158.489 73.48ZM155.809 76.4L154.588 74.8164L155.809 76.4ZM152.689 77.96L153.196 79.8947L153.212 79.8907L153.227 79.8864L152.689 77.96ZM143.329 77.04L142.356 78.787L143.329 77.04ZM139.449 73.28L137.715 74.2753L137.724 74.2923L137.734 74.309L139.449 73.28ZM139.489 61.76L137.758 60.759L137.753 60.7677L139.489 61.76ZM143.409 57.8L144.405 59.5347L143.409 57.8ZM154.169 57.76L153.158 59.4854L153.169 59.4919L153.18 59.4983L154.169 57.76ZM157.809 61.56L156.044 62.4997L156.05 62.5107L156.056 62.5217L157.809 61.56ZM159.089 68.28L160.987 68.9125V68.9124L159.089 68.28ZM158.489 68.56V70.56H158.566L158.643 70.5541L158.489 68.56ZM144.529 68.72L142.929 67.52V67.52L144.529 68.72ZM152.449 65.2L152.439 67.2H152.449V65.2ZM153.009 65.12L154.119 66.7841L154.284 66.6742L154.424 66.5342L153.009 65.12ZM152.649 62.6L150.807 63.3793L150.82 63.4089L150.833 63.4381L152.649 62.6ZM151.289 60.88L150.023 62.4279L150.061 62.4591L150.101 62.4883L151.289 60.88ZM146.649 60.8L147.698 62.5033V62.5033L146.649 60.8ZM145.049 62.6L146.838 63.4944L146.844 63.482L146.85 63.4695L145.049 62.6ZM144.489 65.16H142.489V67.15L144.479 67.16L144.489 65.16ZM142.409 69.2C142.409 70.5054 142.713 71.7411 143.364 72.8514L146.815 70.8286C146.559 70.3922 146.409 69.8679 146.409 69.2H142.409ZM143.407 72.9215C144.066 73.9459 144.938 74.7633 146.003 75.3512L147.936 71.8488C147.454 71.5833 147.073 71.2274 146.772 70.7585L143.407 72.9215ZM146.075 75.3889C147.18 75.9415 148.385 76.2 149.649 76.2V72.2C148.941 72.2 148.358 72.0585 147.864 71.8111L146.075 75.3889ZM149.649 76.2C150.897 76.2 152.086 75.9378 153.184 75.3889L151.395 71.8111C150.893 72.0622 150.322 72.2 149.649 72.2V76.2ZM153.207 75.3772C154.327 74.7988 155.348 73.9135 156.285 72.8251L153.254 70.215C152.538 71.0465 151.905 71.5479 151.372 71.8228L153.207 75.3772ZM156.184 72.9342C156.158 72.9602 156.067 73.0475 155.912 73.1365C155.756 73.2253 155.457 73.36 155.049 73.36V69.36C154.131 69.36 153.54 69.9208 153.355 70.1058L156.184 72.9342ZM155.682 73.2574C155.393 73.3538 155.147 73.3575 155.004 73.349C154.857 73.3404 154.748 73.3145 154.693 73.2995C154.589 73.2711 154.548 73.2452 154.595 73.2689L156.384 69.6911C156.218 69.6081 155.996 69.5089 155.746 69.4405C155.557 69.389 155.027 69.2592 154.417 69.4626L155.682 73.2574ZM154.72 73.3262L157.6 74.5262L159.139 70.8338L156.259 69.6338L154.72 73.3262ZM157.582 74.5183C157.477 74.4734 156.83 74.1525 156.702 73.2967C156.647 72.9309 156.724 72.6428 156.787 72.4839C156.848 72.3309 156.913 72.2497 156.917 72.2444L160.062 74.7156C160.308 74.4025 160.803 73.6741 160.657 72.7033C160.489 71.5808 159.635 71.0466 159.157 70.8417L157.582 74.5183ZM156.848 72.3379C156.081 73.4395 155.323 74.2495 154.588 74.8164L157.031 77.9836C158.163 77.1105 159.191 75.9739 160.131 74.6221L156.848 72.3379ZM154.588 74.8164C153.86 75.3776 153.053 75.7821 152.152 76.0336L153.227 79.8864C154.619 79.4979 155.892 78.8624 157.031 77.9836L154.588 74.8164ZM152.183 76.0253C151.26 76.267 150.168 76.4 148.889 76.4V80.4C150.438 80.4 151.879 80.2397 153.196 79.8947L152.183 76.0253ZM148.889 76.4C147.11 76.4 145.598 76.0151 144.303 75.293L142.356 78.787C144.314 79.8783 146.509 80.4 148.889 80.4V76.4ZM144.303 75.293C142.983 74.5571 141.945 73.5516 141.164 72.251L137.734 74.309C138.874 76.2084 140.423 77.7096 142.356 78.787L144.303 75.293ZM141.184 72.2847C140.443 70.9931 140.049 69.4898 140.049 67.72H136.049C136.049 70.1102 136.589 72.3136 137.715 74.2753L141.184 72.2847ZM140.049 67.72C140.049 65.71 140.468 64.0785 141.226 62.7523L137.753 60.7677C136.591 62.8015 136.049 65.1433 136.049 67.72H140.049ZM141.221 62.761C142.04 61.3433 143.1 60.2835 144.405 59.5347L142.414 56.0653C140.466 57.1831 138.912 58.7634 137.758 60.759L141.221 62.761ZM144.405 59.5347C145.717 58.782 147.158 58.4 148.769 58.4V54.4C146.487 54.4 144.355 54.9514 142.414 56.0653L144.405 59.5347ZM148.769 58.4C150.52 58.4 151.96 58.7834 153.158 59.4854L155.181 56.0346C153.285 54.9233 151.126 54.4 148.769 54.4V58.4ZM153.18 59.4983C154.38 60.181 155.332 61.1623 156.044 62.4997L159.575 60.6203C158.527 58.651 157.052 57.099 155.158 56.0217L153.18 59.4983ZM156.056 62.5217C156.764 63.8135 157.169 65.4775 157.169 67.6H161.169C161.169 64.9758 160.668 62.6132 159.563 60.5983L156.056 62.5217ZM157.169 67.6C157.169 67.6434 157.168 67.6781 157.167 67.7051C157.166 67.7322 157.164 67.7488 157.163 67.7563C157.162 67.7641 157.162 67.7586 157.166 67.7423C157.169 67.7263 157.177 67.6933 157.192 67.6476L160.987 68.9124C161.14 68.4515 161.169 67.9742 161.169 67.6H157.169ZM157.192 67.6475C157.388 67.059 157.817 66.768 158.054 66.6576C158.26 66.5612 158.391 66.5616 158.336 66.5659L158.643 70.5541C158.934 70.5317 159.339 70.4721 159.745 70.2824C160.182 70.0786 160.737 69.661 160.987 68.9125L157.192 67.6475ZM158.489 66.56H144.889V70.56H158.489V66.56ZM144.889 66.56C144.241 66.56 143.465 66.8063 142.929 67.52L146.129 69.92C145.968 70.1353 145.748 70.3135 145.492 70.4276C145.246 70.5366 145.029 70.56 144.889 70.56V66.56ZM142.929 67.52C142.475 68.1255 142.409 68.7943 142.409 69.2H146.409C146.409 69.2118 146.409 69.288 146.38 69.4051C146.35 69.5242 146.282 69.716 146.129 69.92L142.929 67.52ZM152.449 67.2C152.645 67.2 152.869 67.1918 153.092 67.1599C153.25 67.1373 153.69 67.0697 154.119 66.7841L151.9 63.4559C152.1 63.3223 152.275 63.2632 152.355 63.2393C152.444 63.2127 152.507 63.203 152.527 63.2001C152.563 63.1948 152.547 63.2 152.449 63.2V67.2ZM154.424 66.5342C154.811 66.1465 154.97 65.7056 155.04 65.4251C155.113 65.1325 155.129 64.8565 155.129 64.64H151.129C151.129 64.6635 151.126 64.5875 151.159 64.4549C151.189 64.3344 151.287 64.0135 151.595 63.7058L154.424 66.5342ZM155.129 64.64C155.129 63.6447 154.889 62.6798 154.465 61.7619L150.833 63.4381C151.05 63.9068 151.129 64.302 151.129 64.64H155.129ZM154.491 61.8207C154.057 60.793 153.376 59.9349 152.478 59.2716L150.101 62.4883C150.43 62.7317 150.656 63.0203 150.807 63.3793L154.491 61.8207ZM152.556 59.3321C151.535 58.4969 150.294 58.16 149.009 58.16V62.16C149.591 62.16 149.87 62.3031 150.023 62.4279L152.556 59.3321ZM149.009 58.16C147.79 58.16 146.635 58.4604 145.601 59.0967L147.698 62.5033C148.05 62.2863 148.468 62.16 149.009 62.16V58.16ZM145.601 59.0967C144.564 59.7349 143.778 60.6328 143.248 61.7305L146.85 63.4695C147.067 63.0205 147.348 62.7185 147.698 62.5033L145.601 59.0967ZM143.261 61.7056C142.729 62.7689 142.489 63.9362 142.489 65.16H146.489C146.489 64.4638 146.623 63.9244 146.838 63.4944L143.261 61.7056ZM144.479 67.16L152.439 67.2L152.459 63.2L144.499 63.16L144.479 67.16ZM174.367 77.84L173.087 79.3764L173.222 79.4891L173.375 79.5765L174.367 77.84ZM173.967 75.76L174.452 73.8197L173.967 75.76ZM173.567 75.92L172.287 74.3836L172.242 74.421L172.199 74.4609L173.567 75.92ZM172.127 77.12L173.274 78.7585L173.301 78.7397L173.327 78.72L172.127 77.12ZM170.247 78.04L169.614 76.1426L170.247 78.04ZM163.407 77.2L162.331 78.8858L163.407 77.2ZM160.447 73.6L158.618 74.4095L158.623 74.4207L160.447 73.6ZM160.527 61.72L158.721 60.8601L158.715 60.8726L160.527 61.72ZM163.727 57.8L164.874 59.4385L163.727 57.8ZM173.367 58.52L172.004 59.9838L172.082 60.0562L172.167 60.12L173.367 58.52ZM173.847 58.72L174.332 60.6603L174.464 60.6274L174.59 60.577L173.847 58.72ZM174.047 62.32H176.047V61.542L175.521 60.9686L174.047 62.32ZM172.247 60.88L171.229 62.6019L171.275 62.6287L171.322 62.6532L172.247 60.88ZM167.807 61.12L168.945 62.7644L168.952 62.76L168.958 62.7556L167.807 61.12ZM166.167 63.4L164.3 62.682L164.292 62.7031L164.284 62.7243L166.167 63.4ZM166.167 71.6L164.284 72.2757L164.292 72.2969L164.3 72.318L166.167 71.6ZM167.767 73.88L166.598 75.5031L166.635 75.5293L166.672 75.5539L167.767 73.88ZM172.127 74.04L173.144 75.7619L172.127 74.04ZM173.527 72.72L175.204 73.81L173.527 72.72ZM174.967 76C175.029 76 175.099 76.008 175.172 76.0275C175.245 76.047 175.308 76.0745 175.359 76.1035L173.375 79.5765C173.861 79.8544 174.403 80 174.967 80V76ZM175.647 76.3036C176.107 76.6868 176.127 77.1527 176.127 77.2H172.127C172.127 77.834 172.307 78.7265 173.087 79.3764L175.647 76.3036ZM176.127 77.2V76.08H172.127V77.2H176.127ZM176.127 76.08C176.127 75.8342 176.098 75.4099 175.876 74.9656C175.613 74.4401 175.124 73.9877 174.452 73.8197L173.482 77.7003C172.917 77.559 172.507 77.1733 172.298 76.7544C172.129 76.4168 172.127 76.1392 172.127 76.08H176.127ZM174.452 73.8197C173.345 73.5431 172.526 74.184 172.287 74.3836L174.847 77.4564C174.832 77.4692 174.724 77.5592 174.53 77.637C174.325 77.7188 173.945 77.8161 173.482 77.7003L174.452 73.8197ZM172.199 74.4609C171.832 74.8046 171.41 75.1579 170.927 75.52L173.327 78.72C173.911 78.2821 174.448 77.8354 174.935 77.3791L172.199 74.4609ZM170.98 75.4815C170.628 75.7276 170.181 75.9538 169.614 76.1426L170.879 79.9374C171.753 79.6462 172.559 79.259 173.274 78.7585L170.98 75.4815ZM169.614 76.1426C169.144 76.2994 168.526 76.4 167.727 76.4V80.4C168.848 80.4 169.91 80.2606 170.879 79.9374L169.614 76.1426ZM167.727 76.4C166.444 76.4 165.385 76.0899 164.483 75.5142L162.331 78.8858C163.936 79.9101 165.756 80.4 167.727 80.4V76.4ZM164.483 75.5142C163.613 74.959 162.86 74.0893 162.271 72.7793L158.623 74.4207C159.473 76.3107 160.694 77.841 162.331 78.8858L164.483 75.5142ZM162.276 72.7905C161.701 71.4913 161.367 69.7732 161.367 67.56H157.367C157.367 70.1468 157.753 72.4554 158.618 74.4095L162.276 72.7905ZM161.367 67.56C161.367 65.5477 161.714 63.9022 162.339 62.5674L158.715 60.8726C157.793 62.8445 157.367 65.0923 157.367 67.56H161.367ZM162.333 62.5799C163.006 61.1666 163.862 60.1466 164.874 59.4385L162.58 56.1615C160.925 57.32 159.648 58.9134 158.721 60.8601L162.333 62.5799ZM164.874 59.4385C165.877 58.7361 166.945 58.4 168.127 58.4V54.4C166.109 54.4 164.243 54.9972 162.58 56.1615L164.874 59.4385ZM168.127 58.4C168.977 58.4 169.654 58.538 170.193 58.7644L171.74 55.0756C170.627 54.6087 169.41 54.4 168.127 54.4V58.4ZM170.193 58.7644C170.768 59.0052 171.373 59.3963 172.004 59.9838L174.73 57.0562C173.814 56.2037 172.819 55.5281 171.74 55.0756L170.193 58.7644ZM172.167 60.12C172.343 60.2523 172.586 60.4145 172.878 60.5362C173.142 60.6462 173.682 60.8227 174.332 60.6603L173.362 56.7797C173.905 56.644 174.312 56.8005 174.416 56.8438C174.548 56.8989 174.604 56.9477 174.567 56.92L172.167 60.12ZM174.59 60.577C175.314 60.2872 175.692 59.7132 175.864 59.268C176.021 58.8585 176.047 58.4664 176.047 58.2H172.047C172.047 58.1991 172.047 58.1915 172.048 58.178C172.049 58.1647 172.05 58.1431 172.054 58.1147C172.062 58.0619 172.081 57.9606 172.13 57.832C172.235 57.5602 172.513 57.0995 173.104 56.863L174.59 60.577ZM176.047 58.2V49.04H172.047V58.2H176.047ZM176.047 49.04C176.047 49.0541 176.049 49.4382 175.702 49.8287C175.315 50.2642 174.847 50.32 174.687 50.32V46.32C174.1 46.32 173.312 46.4958 172.712 47.1713C172.152 47.8018 172.047 48.5459 172.047 49.04H176.047ZM174.687 50.32H179.567V46.32H174.687V50.32ZM179.567 50.32C179.373 50.32 178.894 50.2462 178.517 49.7983C178.355 49.6057 178.277 49.4157 178.241 49.288C178.207 49.1655 178.207 49.0872 178.207 49.08H182.207C182.207 48.5942 182.112 47.8572 181.577 47.2217C180.986 46.5205 180.187 46.32 179.567 46.32V50.32ZM178.207 49.08V77.16H182.207V49.08H178.207ZM178.207 77.16C178.207 77.1586 178.207 77.1388 178.211 77.1041C178.216 77.0694 178.226 77.0139 178.248 76.9435C178.293 76.7986 178.392 76.5865 178.593 76.3858L181.421 79.2142C182.093 78.5426 182.207 77.6968 182.207 77.16H178.207ZM178.593 76.3858C178.836 76.1426 179.083 76.0532 179.192 76.023C179.299 75.9931 179.344 76 179.287 76V80C179.762 80 180.701 79.934 181.421 79.2142L178.593 76.3858ZM179.287 76H174.967V80H179.287V76ZM175.521 60.9686C174.816 60.199 174.037 59.5579 173.172 59.1068L171.322 62.6532C171.684 62.8421 172.105 63.161 172.573 63.6714L175.521 60.9686ZM173.264 59.1581C172.33 58.6059 171.289 58.36 170.207 58.36V62.36C170.672 62.36 170.991 62.4608 171.229 62.6019L173.264 59.1581ZM170.207 58.36C168.915 58.36 167.713 58.7407 166.656 59.4844L168.958 62.7556C169.341 62.486 169.739 62.36 170.207 62.36V58.36ZM166.668 59.4756C165.554 60.2473 164.799 61.3858 164.3 62.682L168.034 64.118C168.335 63.3342 168.673 62.9527 168.945 62.7644L166.668 59.4756ZM164.284 62.7243C163.804 64.0631 163.607 65.6769 163.607 67.48H167.607C167.607 65.9231 167.783 64.8169 168.049 64.0757L164.284 62.7243ZM163.607 67.48C163.607 69.3055 163.803 70.9343 164.284 72.2757L168.049 70.9243C167.784 70.1857 167.607 69.0679 167.607 67.48H163.607ZM164.3 72.318C164.791 73.5953 165.522 74.728 166.598 75.5031L168.935 72.2569C168.679 72.072 168.342 71.6847 168.034 70.882L164.3 72.318ZM166.672 75.5539C167.712 76.2335 168.884 76.56 170.127 76.56V72.56C169.61 72.56 169.209 72.4331 168.861 72.2061L166.672 75.5539ZM170.127 76.56C171.196 76.56 172.22 76.3078 173.144 75.7619L171.109 72.3181C170.86 72.4656 170.551 72.56 170.127 72.56V76.56ZM173.144 75.7619C173.977 75.2697 174.677 74.6202 175.204 73.81L171.85 71.63C171.683 71.8865 171.45 72.117 171.109 72.3181L173.144 75.7619ZM175.204 73.81C175.743 72.9807 176.047 72.0463 176.047 71.04H172.047C172.047 71.2071 172.004 71.3926 171.85 71.63L175.204 73.81ZM176.047 71.04V62.32H172.047V71.04H176.047ZM195.302 57L193.74 58.2494L193.809 58.3359L193.888 58.4142L195.302 57ZM181.182 57L179.768 55.5858L179.689 55.6641L179.62 55.7506L181.182 57ZM186.462 49.76L185.086 48.3081L186.462 49.76ZM195.662 49.16H193.662V49.1754L193.662 49.1908L195.662 49.16ZM195.702 51.76H197.702V51.7446L197.702 51.7292L195.702 51.76ZM195.542 52.24L193.98 50.9906L193.896 51.0957L193.827 51.211L195.542 52.24ZM191.502 53.12L193.007 54.437L193.027 54.4145L193.046 54.3914L191.502 53.12ZM204.422 77.8L205.702 79.3364L205.772 79.2784L205.836 79.2142L204.422 77.8ZM198.662 77.8L197.1 79.0494L197.169 79.1359L197.248 79.2142L198.662 77.8ZM198.622 54L196.958 55.1094L197.017 55.1983L197.085 55.2804L198.622 54ZM194.742 58.8C194.72 58.8 194.592 58.7988 194.409 58.7335C194.21 58.6624 193.954 58.5165 193.74 58.2494L196.864 55.7506C196.205 54.9272 195.272 54.8 194.742 54.8V58.8ZM193.888 58.4142C193.786 58.3125 193.681 58.1708 193.606 57.9892C193.53 57.8072 193.502 57.6302 193.502 57.48H197.502C197.502 56.7569 197.22 56.0899 196.716 55.5858L193.888 58.4142ZM193.502 57.48V60.44H197.502V57.48H193.502ZM193.502 60.44C193.502 60.2622 193.564 59.7828 194.009 59.3903C194.406 59.0399 194.798 59.04 194.822 59.04V63.04C195.3 63.04 196.031 62.9401 196.655 62.3897C197.327 61.7972 197.502 61.0178 197.502 60.44H193.502ZM194.822 59.04H191.502V63.04H194.822V59.04ZM191.502 59.04C191.009 59.04 190.286 59.1844 189.722 59.8047C189.191 60.3887 189.102 61.0697 189.102 61.48H193.102C193.102 61.597 193.079 62.058 192.682 62.4953C192.251 62.9689 191.729 63.04 191.502 63.04V59.04ZM189.102 61.48V77.24H193.102V61.48H189.102ZM189.102 77.24C189.102 77.2328 189.102 77.1545 189.136 77.032C189.172 76.9043 189.25 76.7143 189.412 76.5217C189.789 76.0738 190.268 76 190.462 76V80C191.082 80 191.881 79.7995 192.472 79.0983C193.007 78.4628 193.102 77.7258 193.102 77.24H189.102ZM190.462 76H185.542V80H190.462V76ZM185.542 76C185.72 76 186.199 76.0619 186.592 76.5068C186.942 76.9039 186.942 77.2957 186.942 77.32H182.942C182.942 77.7977 183.042 78.5295 183.592 79.1532C184.185 79.8248 184.964 80 185.542 80V76ZM186.942 77.32V61.4H182.942V77.32H186.942ZM186.942 61.4C186.942 61.0259 186.864 60.3718 186.357 59.8013C185.81 59.1858 185.102 59.04 184.622 59.04V63.04C184.355 63.04 183.807 62.9542 183.367 62.4587C182.967 62.0082 182.942 61.5341 182.942 61.4H186.942ZM184.622 59.04H181.742V63.04H184.622V59.04ZM181.742 59.04C181.754 59.04 181.837 59.0406 181.962 59.0755C182.093 59.1117 182.286 59.19 182.482 59.3536C182.94 59.7353 183.022 60.2261 183.022 60.44H179.022C179.022 61.0539 179.223 61.8447 179.922 62.4264C180.55 62.9499 181.273 63.04 181.742 63.04V59.04ZM183.022 60.44V57.48H179.022V60.44H183.022ZM183.022 57.48C183.022 57.5788 183.007 57.708 182.959 57.8525C182.91 57.9991 182.836 58.1342 182.744 58.2494L179.62 55.7506C179.203 56.2723 179.022 56.8843 179.022 57.48H183.022ZM182.596 58.4142C182.222 58.7882 181.824 58.8 181.782 58.8V54.8C181.207 54.8 180.408 54.9451 179.768 55.5858L182.596 58.4142ZM181.782 58.8H184.462V54.8H181.782V58.8ZM184.462 58.8C185.063 58.8 185.831 58.5899 186.384 57.8994C186.868 57.2941 186.942 56.6137 186.942 56.2H182.942C182.942 56.1863 182.936 55.8059 183.26 55.4006C183.653 54.9101 184.18 54.8 184.462 54.8V58.8ZM186.942 56.2V53.76H182.942V56.2H186.942ZM186.942 53.76C186.942 52.4713 187.309 51.7126 187.837 51.2119L185.086 48.3081C183.588 49.7274 182.942 51.6354 182.942 53.76H186.942ZM187.837 51.2119C188.373 50.7043 189.246 50.32 190.742 50.32V46.32C188.558 46.32 186.577 46.8957 185.086 48.3081L187.837 51.2119ZM190.742 50.32H194.782V46.32H190.742V50.32ZM194.782 50.32C194.776 50.32 194.691 50.32 194.56 50.2784C194.421 50.234 194.236 50.144 194.061 49.9767C193.68 49.6135 193.662 49.2126 193.662 49.16H197.662C197.662 48.5474 197.497 47.7265 196.823 47.0833C196.166 46.4566 195.361 46.32 194.782 46.32V50.32ZM193.662 49.1908L193.702 51.7908L197.702 51.7292L197.662 49.1292L193.662 49.1908ZM193.702 51.76C193.702 51.6612 193.716 51.532 193.765 51.3875C193.813 51.2409 193.888 51.1058 193.98 50.9906L197.104 53.4894C197.521 52.9677 197.702 52.3557 197.702 51.76H193.702ZM193.827 51.211C194.003 50.9168 194.263 50.6973 194.544 50.5693C194.801 50.4527 195.011 50.44 195.102 50.44V54.44C195.725 54.44 196.687 54.219 197.257 53.269L193.827 51.211ZM195.102 50.44H192.942V54.44H195.102V50.44ZM192.942 50.44C191.757 50.44 190.711 50.9345 189.958 51.8486L193.046 54.3914C193.057 54.3776 193.059 54.3784 193.048 54.3866C193.037 54.3953 193.02 54.4073 192.996 54.4185C192.972 54.4297 192.951 54.4359 192.938 54.4388C192.924 54.4416 192.924 54.44 192.942 54.44V50.44ZM189.997 51.803C189.237 52.6709 188.942 53.7349 188.942 54.8H192.942C192.942 54.6317 192.965 54.5365 192.979 54.4925C192.992 54.4538 193.002 54.4422 193.007 54.437L189.997 51.803ZM188.942 54.8V56.36H192.942V54.8H188.942ZM188.942 56.36C188.942 56.8619 189.087 57.5926 189.71 58.1643C190.301 58.7058 190.995 58.8 191.422 58.8V54.8C191.529 54.8 191.983 54.8209 192.413 55.2157C192.877 55.6407 192.942 56.1515 192.942 56.36H188.942ZM191.422 58.8H194.742V54.8H191.422V58.8ZM202.662 77.04C202.662 77.1328 202.634 76.7593 203.008 76.3858L205.836 79.2142C206.53 78.5207 206.662 77.6406 206.662 77.04H202.662ZM203.142 76.2636C203.371 76.0719 203.577 76.0168 203.629 76.0044C203.686 75.9907 203.681 76 203.582 76V80C204.078 80 204.975 79.9428 205.702 79.3364L203.142 76.2636ZM203.582 76H199.382V80H203.582V76ZM199.382 76C199.324 76 199.37 75.9931 199.477 76.023C199.586 76.0532 199.833 76.1426 200.076 76.3858L197.248 79.2142C197.967 79.934 198.907 80 199.382 80V76ZM200.224 76.5506C200.394 76.7634 200.458 76.9598 200.482 77.0549C200.506 77.1495 200.502 77.1938 200.502 77.16H196.502C196.502 77.6124 196.568 78.3847 197.1 79.0494L200.224 76.5506ZM200.502 77.16V57.56H196.502V77.16H200.502ZM200.502 57.56C200.502 57.5672 200.502 57.6455 200.467 57.768C200.432 57.8957 200.354 58.0857 200.192 58.2783C199.814 58.7262 199.336 58.8 199.142 58.8V54.8C198.521 54.8 197.723 55.0005 197.132 55.7017C196.597 56.3372 196.502 57.0742 196.502 57.56H200.502ZM199.142 58.8H204.062V54.8H199.142V58.8ZM204.062 58.8C203.884 58.8 203.405 58.7381 203.012 58.2932C202.662 57.8961 202.662 57.5043 202.662 57.48H206.662C206.662 57.0023 206.562 56.2705 206.012 55.6468C205.419 54.9752 204.64 54.8 204.062 54.8V58.8ZM202.662 57.48V77.04H206.662V57.48H202.662ZM202.742 53.24C202.742 53.2239 202.753 52.8555 203.113 52.5225C203.444 52.2164 203.75 52.24 203.662 52.24V56.24C204.294 56.24 205.14 56.097 205.831 55.4575C206.55 54.7912 206.742 53.9228 206.742 53.24H202.742ZM203.662 52.24H199.342V56.24H203.662V52.24ZM199.342 52.24C199.31 52.24 199.391 52.2347 199.534 52.2826C199.691 52.3349 199.94 52.458 200.158 52.7196L197.085 55.2804C197.79 56.1262 198.786 56.24 199.342 56.24V52.24ZM200.286 52.8906C200.39 53.0461 200.432 53.1806 200.449 53.2519C200.465 53.3216 200.462 53.3503 200.462 53.32H196.462C196.462 53.8148 196.545 54.4903 196.958 55.1094L200.286 52.8906ZM200.462 53.32V49.12H196.462V53.32H200.462ZM200.462 49.12C200.462 49.1218 200.462 49.196 200.429 49.3152C200.393 49.4399 200.316 49.6263 200.156 49.8153C199.783 50.2534 199.316 50.32 199.142 50.32V46.32C198.514 46.32 197.707 46.5199 197.108 47.2247C196.562 47.8673 196.462 48.6173 196.462 49.12H200.462ZM199.142 50.32H204.102V46.32H199.142V50.32ZM204.102 50.32C203.908 50.32 203.429 50.2462 203.052 49.7983C202.89 49.6057 202.812 49.4157 202.776 49.288C202.742 49.1655 202.742 49.0872 202.742 49.08H206.742C206.742 48.5942 206.647 47.8572 206.112 47.2217C205.521 46.5205 204.722 46.32 204.102 46.32V50.32ZM202.742 49.08V53.24H206.742V49.08H202.742ZM213.102 59.76L211.992 61.4241V61.4241L213.102 59.76ZM213.462 59.6L212.105 58.1304L212.076 58.1575L212.047 58.1858L213.462 59.6ZM215.542 57.92L216.68 59.5644L215.542 57.92ZM217.742 56.8L217.09 54.9093L217.742 56.8ZM224.822 58.12L223.391 59.5175L223.399 59.5259L223.407 59.5342L224.822 58.12ZM220.542 77.84L218.98 79.0894L219.119 79.2629L219.292 79.4017L220.542 77.84ZM219.622 61.6L218.17 62.9755L218.207 63.0147L218.246 63.0519L219.622 61.6ZM215.902 61.12L215.177 59.256L215.902 61.12ZM214.502 61.96L215.716 63.5487L215.745 63.5268L215.773 63.5039L214.502 61.96ZM213.062 63.32L211.578 61.9782L211.062 62.5495V63.32H213.062ZM207.742 76C207.746 76 208.121 75.9994 208.491 76.3517C208.879 76.7214 208.902 77.1328 208.902 77.2H204.902C204.902 77.8005 205.064 78.6119 205.732 79.2483C206.382 79.8672 207.177 80 207.742 80V76ZM208.902 77.2V57.56H204.902V77.2H208.902ZM208.902 57.56C208.902 57.5672 208.902 57.6455 208.867 57.768C208.831 57.8957 208.754 58.0857 208.591 58.2783C208.214 58.7262 207.735 58.8 207.542 58.8V54.8C206.921 54.8 206.122 55.0005 205.532 55.7017C204.997 56.3372 204.902 57.0742 204.902 57.56H208.902ZM207.542 58.8H212.382V54.8H207.542V58.8ZM212.382 58.8C212.204 58.8 211.724 58.7381 211.332 58.2932C210.982 57.8961 210.982 57.5043 210.982 57.48H214.982C214.982 57.0023 214.882 56.2705 214.331 55.6468C213.739 54.9752 212.959 54.8 212.382 54.8V58.8ZM210.982 57.48V59.44H214.982V57.48H210.982ZM210.982 59.44C210.982 59.8191 211.064 60.8055 211.992 61.4241L214.211 58.0959C214.581 58.3425 214.785 58.673 214.884 58.9378C214.975 59.1798 214.982 59.3698 214.982 59.44H210.982ZM211.992 61.4241C212.801 61.963 213.632 61.7797 214.064 61.5876C214.454 61.4142 214.729 61.1608 214.876 61.0142L212.047 58.1858C212.054 58.1793 212.084 58.1495 212.137 58.1091C212.187 58.0713 212.289 57.9994 212.439 57.9324C212.589 57.866 212.841 57.78 213.169 57.78C213.522 57.78 213.889 57.8811 214.211 58.0959L211.992 61.4241ZM214.818 61.0696C215.451 60.4856 216.072 59.9855 216.68 59.5644L214.403 56.2756C213.625 56.8145 212.859 57.4344 212.105 58.1304L214.818 61.0696ZM216.68 59.5644C217.228 59.1851 217.798 58.8961 218.394 58.6907L217.09 54.9093C216.138 55.2373 215.242 55.6949 214.403 56.2756L216.68 59.5644ZM218.394 58.6907C218.942 58.5017 219.547 58.4 220.222 58.4V54.4C219.137 54.4 218.088 54.565 217.09 54.9093L218.394 58.6907ZM220.222 58.4C221.753 58.4 222.726 58.8364 223.391 59.5175L226.252 56.7225C224.678 55.1103 222.583 54.4 220.222 54.4V58.4ZM223.407 59.5342C224.111 60.2376 224.542 61.2255 224.542 62.72H228.542C228.542 60.3745 227.826 58.2957 226.236 56.7058L223.407 59.5342ZM224.542 62.72V77.04H228.542V62.72H224.542ZM224.542 77.04C224.542 77.0393 224.541 76.9573 224.584 76.8275C224.631 76.6881 224.723 76.5101 224.887 76.3458C225.052 76.1815 225.23 76.0891 225.369 76.0426C225.499 75.9994 225.581 76 225.582 76V80C226.21 80 227.048 79.8416 227.716 79.1742C228.383 78.5069 228.542 77.6683 228.542 77.04H224.542ZM225.582 76H221.142V80H225.582V76ZM221.142 76C221.141 76 221.142 76 221.142 76C221.141 76 221.142 76 221.142 76C221.142 76 221.142 76 221.142 76C221.142 76 221.142 76 221.142 76C221.142 76 221.142 76 221.142 76C221.143 76 221.143 76 221.144 76C221.146 76.0001 221.148 76.0002 221.151 76.0003C221.158 76.0007 221.168 76.0014 221.181 76.0029C221.207 76.0059 221.251 76.0125 221.307 76.0275C221.419 76.0574 221.6 76.1258 221.791 76.2783L219.292 79.4017C219.931 79.9127 220.661 80 221.142 80V76ZM222.103 76.5906C222.273 76.8034 222.338 76.9998 222.362 77.0949C222.385 77.1895 222.382 77.2338 222.382 77.2H218.382C218.382 77.6524 218.448 78.4247 218.98 79.0894L222.103 76.5906ZM222.382 77.2V63.68H218.382V77.2H222.382ZM222.382 63.68C222.382 62.3969 222.012 61.1101 220.997 60.1481L218.246 63.0519C218.262 63.0668 218.286 63.0932 218.313 63.1664C218.343 63.2494 218.382 63.4092 218.382 63.68H222.382ZM221.073 60.2245C220.091 59.1875 218.758 58.84 217.462 58.84V62.84C217.771 62.84 217.958 62.8815 218.058 62.9166C218.147 62.9479 218.168 62.9737 218.17 62.9755L221.073 60.2245ZM217.462 58.84C216.675 58.84 215.907 58.9719 215.177 59.256L216.626 62.984C216.856 62.8948 217.128 62.84 217.462 62.84V58.84ZM215.177 59.256C214.473 59.5296 213.825 59.9264 213.23 60.4161L215.773 63.5039C216.085 63.247 216.37 63.0837 216.626 62.984L215.177 59.256ZM213.287 60.3713C212.711 60.8112 212.142 61.3549 211.578 61.9782L214.545 64.6618C214.994 64.1651 215.385 63.8022 215.716 63.5487L213.287 60.3713ZM211.062 63.32V77.08H215.062V63.32H211.062ZM211.062 77.08C211.062 77.0105 211.093 76.6116 211.476 76.272C211.814 75.9738 212.116 76 212.022 76V80C212.62 80 213.443 79.8729 214.127 79.268C214.857 78.6217 215.062 77.7629 215.062 77.08H211.062ZM212.022 76H207.742V80H212.022V76Z" fill="black" fill-opacity="0.2" mask="url(#path-1-outside-1_259_756)"/>
</svg>
