<svg width="252" height="65" viewBox="0 0 252 65" fill="none" xmlns="http://www.w3.org/2000/svg">
<mask id="path-1-outside-1_259_610" maskUnits="userSpaceOnUse" x="-4" y="-4" width="260" height="73" fill="black">
<rect fill="white" x="-4" y="-4" width="260" height="73"/>
<path d="M51.7944 61.705C52.0211 62.3283 51.9927 62.8667 51.7094 63.32C51.4827 63.7733 51.0861 64 50.5194 64H38.0244C37.0611 64 36.4377 63.49 36.1544 62.47L26.9744 38.67C26.6344 37.8767 25.8411 37.48 24.5944 37.48H16.5194C16.1227 37.48 15.8394 37.5933 15.6694 37.82C15.5561 38.0467 15.4994 38.245 15.4994 38.415V61.96C15.4994 63.32 14.7344 64 13.2044 64H2.40941C1.72941 64 1.24774 63.8583 0.964408 63.575C0.737741 63.2917 0.624408 62.8667 0.624408 62.3V2.545C0.624408 1.46833 1.07774 0.929996 1.98441 0.929996H28.5044C36.0977 0.929996 41.9911 2.43166 46.1844 5.435C50.4344 8.43833 52.5594 12.7167 52.5594 18.27C52.5594 21.16 52.0211 23.7383 50.9444 26.005C49.8677 28.2717 48.4511 30.17 46.6944 31.7C44.9377 33.1733 43.0111 34.2783 40.9144 35.015C40.4044 35.185 40.2911 35.61 40.5744 36.29L51.7944 61.705ZM27.1444 27.45C30.3744 27.45 32.8394 26.77 34.5394 25.41C36.2961 23.9933 37.1744 21.9533 37.1744 19.29C37.1744 16.5133 36.2961 14.4167 34.5394 13C32.7827 11.5833 30.4594 10.875 27.5694 10.875H17.1144C16.0377 10.875 15.4994 11.3567 15.4994 12.32V26.005C15.4994 26.9683 15.8961 27.45 16.6894 27.45H27.1444ZM67.6449 45.3C67.6449 47.3967 68.1266 49.2667 69.0899 50.91C70.1099 52.4967 71.4416 53.7433 73.0849 54.65C74.7849 55.5 76.6833 55.925 78.7799 55.925C80.8199 55.925 82.6899 55.5 84.3899 54.65C86.1466 53.7433 87.9033 52.27 89.6599 50.23C89.8866 50.0033 90.0849 49.89 90.2549 49.89C90.4249 49.8333 90.7366 49.9183 91.1899 50.145L97.3099 52.695C98.1033 53.035 98.1883 53.6017 97.5649 54.395C95.7516 57.0017 93.8533 59.07 91.8699 60.6C89.8866 62.13 87.6766 63.235 85.2399 63.915C82.8599 64.5383 80.1683 64.85 77.1649 64.85C72.7449 64.85 68.8066 63.8867 65.3499 61.96C61.8933 60.0333 59.1449 57.37 57.1049 53.97C55.1216 50.5133 54.1299 46.575 54.1299 42.155C54.1299 37.2817 55.1499 33.06 57.1899 29.49C59.2866 25.8633 62.0633 23.0583 65.5199 21.075C68.9766 19.0917 72.7733 18.1 76.9099 18.1C81.2733 18.1 85.0983 19.0633 88.3849 20.99C91.6716 22.86 94.2499 25.5517 96.1199 29.065C98.0466 32.5783 99.0099 36.8567 99.0099 41.9C99.0099 42.5233 98.9533 43.005 98.8399 43.345C98.7266 43.685 98.3016 43.8833 97.5649 43.94H68.6649C68.3249 43.94 68.0699 44.0533 67.8999 44.28C67.7299 44.5067 67.6449 44.8467 67.6449 45.3ZM84.7299 36.8C85.3533 36.8 85.7499 36.7433 85.9199 36.63C86.0899 36.46 86.1749 36.12 86.1749 35.61C86.1749 34.1933 85.8349 32.7483 85.1549 31.275C84.5316 29.8017 83.5683 28.5833 82.2649 27.62C81.0183 26.6 79.4033 26.09 77.4199 26.09C75.5499 26.09 73.8783 26.5433 72.4049 27.45C70.9316 28.3567 69.7983 29.6317 69.0049 31.275C68.2116 32.8617 67.8149 34.675 67.8149 36.715L84.7299 36.8ZM135.555 64C135.101 64 134.676 63.8867 134.28 63.66C133.94 63.3767 133.77 62.9233 133.77 62.3V59.92C133.77 59.5233 133.656 59.2967 133.43 59.24C133.203 59.1833 132.92 59.2967 132.58 59.58C131.673 60.43 130.653 61.28 129.52 62.13C128.386 62.9233 127.055 63.575 125.525 64.085C123.995 64.595 122.21 64.85 120.17 64.85C116.713 64.85 113.653 64 110.99 62.3C108.326 60.6 106.23 58.05 104.7 54.65C103.17 51.1933 102.405 46.915 102.405 41.815C102.405 37.055 103.226 32.9183 104.87 29.405C106.57 25.835 108.836 23.0583 111.67 21.075C114.503 19.0917 117.62 18.1 121.02 18.1C123.286 18.1 125.298 18.4683 127.055 19.205C128.811 19.9417 130.511 21.075 132.155 22.605C132.608 22.945 132.948 23.0867 133.175 23.03C133.458 22.9167 133.6 22.5483 133.6 21.925V2.46C133.6 1.44 134.053 0.929996 134.96 0.929996H145.33C146.236 0.929996 146.69 1.46833 146.69 2.545V62.215C146.69 62.8383 146.548 63.2917 146.265 63.575C145.981 63.8583 145.471 64 144.735 64H135.555ZM133.6 30.68C132.353 29.32 131.078 28.3 129.775 27.62C128.528 26.8833 127.083 26.515 125.44 26.515C123.57 26.515 121.87 27.0533 120.34 28.13C118.866 29.15 117.705 30.765 116.855 32.975C116.061 35.185 115.665 38.075 115.665 41.645C115.665 45.2717 116.061 48.19 116.855 50.4C117.705 52.61 118.838 54.225 120.255 55.245C121.728 56.2083 123.4 56.69 125.27 56.69C126.856 56.69 128.273 56.3217 129.52 55.585C130.766 54.8483 131.758 53.9133 132.495 52.78C133.231 51.6467 133.6 50.4567 133.6 49.21V30.68ZM180.551 18.95C181.118 18.95 181.515 19.0917 181.741 19.375C182.025 19.6583 182.166 19.9983 182.166 20.395V26.685C182.166 27.535 181.685 27.96 180.721 27.96H173.666C173.1 27.96 172.816 28.2717 172.816 28.895V62.385C172.816 63.4617 172.363 64 171.456 64H161.001C160.151 64 159.726 63.5183 159.726 62.555V28.725C159.726 28.215 159.5 27.96 159.046 27.96H152.926C151.906 27.96 151.396 27.535 151.396 26.685V20.395C151.396 19.9983 151.51 19.6583 151.736 19.375C152.02 19.0917 152.445 18.95 153.011 18.95H158.706C159.386 18.95 159.726 18.525 159.726 17.675V12.49C159.726 8.86333 160.803 6.03 162.956 3.99C165.11 1.95 168.141 0.929996 172.051 0.929996H180.636C181.883 0.929996 182.506 1.525 182.506 2.715L182.591 8.24C182.591 8.63666 182.478 8.97666 182.251 9.26C182.081 9.54333 181.77 9.685 181.316 9.685H176.726C175.48 9.685 174.46 10.1667 173.666 11.13C172.873 12.0367 172.476 13.2267 172.476 14.7V18.015C172.476 18.6383 172.816 18.95 173.496 18.95H180.551ZM201.631 61.96C201.631 62.6967 201.461 63.235 201.121 63.575C200.781 63.8583 200.186 64 199.336 64H190.411C189.675 64 189.165 63.8583 188.881 63.575C188.655 63.2917 188.541 62.8383 188.541 62.215V20.565C188.541 19.4883 188.995 18.95 189.901 18.95H200.356C201.206 18.95 201.631 19.4317 201.631 20.395V61.96ZM201.801 11.385C201.801 12.8017 201.036 13.51 199.506 13.51H190.326C189.59 13.51 189.08 13.34 188.796 13C188.57 12.66 188.456 12.1783 188.456 11.555V2.62999C188.456 1.49666 188.938 0.929996 189.901 0.929996H200.441C201.348 0.929996 201.801 1.46833 201.801 2.545V11.385ZM211.151 64C209.961 64 209.366 63.4333 209.366 62.3V20.565C209.366 19.4883 209.819 18.95 210.726 18.95H221.011C221.861 18.95 222.286 19.4317 222.286 20.395V24.56C222.286 24.9 222.371 25.1267 222.541 25.24C222.711 25.3533 222.966 25.24 223.306 24.9C224.779 23.54 226.252 22.35 227.726 21.33C229.199 20.31 230.757 19.5167 232.401 18.95C234.044 18.3833 235.801 18.1 237.671 18.1C241.807 18.1 245.066 19.3183 247.446 21.755C249.882 24.1917 251.101 27.45 251.101 31.53V61.96C251.101 63.32 250.421 64 249.061 64H239.626C239.059 64 238.634 63.8867 238.351 63.66C238.124 63.3767 238.011 62.9233 238.011 62.3V33.57C238.011 31.6433 237.472 30.17 236.396 29.15C235.376 28.0733 233.846 27.535 231.806 27.535C230.616 27.535 229.511 27.7333 228.491 28.13C227.471 28.5267 226.479 29.1217 225.516 29.915C224.552 30.6517 223.532 31.615 222.456 32.805V62.045C222.456 63.3483 221.719 64 220.246 64H211.151Z"/>
</mask>
<path d="M51.7944 61.705C52.0211 62.3283 51.9927 62.8667 51.7094 63.32C51.4827 63.7733 51.0861 64 50.5194 64H38.0244C37.0611 64 36.4377 63.49 36.1544 62.47L26.9744 38.67C26.6344 37.8767 25.8411 37.48 24.5944 37.48H16.5194C16.1227 37.48 15.8394 37.5933 15.6694 37.82C15.5561 38.0467 15.4994 38.245 15.4994 38.415V61.96C15.4994 63.32 14.7344 64 13.2044 64H2.40941C1.72941 64 1.24774 63.8583 0.964408 63.575C0.737741 63.2917 0.624408 62.8667 0.624408 62.3V2.545C0.624408 1.46833 1.07774 0.929996 1.98441 0.929996H28.5044C36.0977 0.929996 41.9911 2.43166 46.1844 5.435C50.4344 8.43833 52.5594 12.7167 52.5594 18.27C52.5594 21.16 52.0211 23.7383 50.9444 26.005C49.8677 28.2717 48.4511 30.17 46.6944 31.7C44.9377 33.1733 43.0111 34.2783 40.9144 35.015C40.4044 35.185 40.2911 35.61 40.5744 36.29L51.7944 61.705ZM27.1444 27.45C30.3744 27.45 32.8394 26.77 34.5394 25.41C36.2961 23.9933 37.1744 21.9533 37.1744 19.29C37.1744 16.5133 36.2961 14.4167 34.5394 13C32.7827 11.5833 30.4594 10.875 27.5694 10.875H17.1144C16.0377 10.875 15.4994 11.3567 15.4994 12.32V26.005C15.4994 26.9683 15.8961 27.45 16.6894 27.45H27.1444ZM67.6449 45.3C67.6449 47.3967 68.1266 49.2667 69.0899 50.91C70.1099 52.4967 71.4416 53.7433 73.0849 54.65C74.7849 55.5 76.6833 55.925 78.7799 55.925C80.8199 55.925 82.6899 55.5 84.3899 54.65C86.1466 53.7433 87.9033 52.27 89.6599 50.23C89.8866 50.0033 90.0849 49.89 90.2549 49.89C90.4249 49.8333 90.7366 49.9183 91.1899 50.145L97.3099 52.695C98.1033 53.035 98.1883 53.6017 97.5649 54.395C95.7516 57.0017 93.8533 59.07 91.8699 60.6C89.8866 62.13 87.6766 63.235 85.2399 63.915C82.8599 64.5383 80.1683 64.85 77.1649 64.85C72.7449 64.85 68.8066 63.8867 65.3499 61.96C61.8933 60.0333 59.1449 57.37 57.1049 53.97C55.1216 50.5133 54.1299 46.575 54.1299 42.155C54.1299 37.2817 55.1499 33.06 57.1899 29.49C59.2866 25.8633 62.0633 23.0583 65.5199 21.075C68.9766 19.0917 72.7733 18.1 76.9099 18.1C81.2733 18.1 85.0983 19.0633 88.3849 20.99C91.6716 22.86 94.2499 25.5517 96.1199 29.065C98.0466 32.5783 99.0099 36.8567 99.0099 41.9C99.0099 42.5233 98.9533 43.005 98.8399 43.345C98.7266 43.685 98.3016 43.8833 97.5649 43.94H68.6649C68.3249 43.94 68.0699 44.0533 67.8999 44.28C67.7299 44.5067 67.6449 44.8467 67.6449 45.3ZM84.7299 36.8C85.3533 36.8 85.7499 36.7433 85.9199 36.63C86.0899 36.46 86.1749 36.12 86.1749 35.61C86.1749 34.1933 85.8349 32.7483 85.1549 31.275C84.5316 29.8017 83.5683 28.5833 82.2649 27.62C81.0183 26.6 79.4033 26.09 77.4199 26.09C75.5499 26.09 73.8783 26.5433 72.4049 27.45C70.9316 28.3567 69.7983 29.6317 69.0049 31.275C68.2116 32.8617 67.8149 34.675 67.8149 36.715L84.7299 36.8ZM135.555 64C135.101 64 134.676 63.8867 134.28 63.66C133.94 63.3767 133.77 62.9233 133.77 62.3V59.92C133.77 59.5233 133.656 59.2967 133.43 59.24C133.203 59.1833 132.92 59.2967 132.58 59.58C131.673 60.43 130.653 61.28 129.52 62.13C128.386 62.9233 127.055 63.575 125.525 64.085C123.995 64.595 122.21 64.85 120.17 64.85C116.713 64.85 113.653 64 110.99 62.3C108.326 60.6 106.23 58.05 104.7 54.65C103.17 51.1933 102.405 46.915 102.405 41.815C102.405 37.055 103.226 32.9183 104.87 29.405C106.57 25.835 108.836 23.0583 111.67 21.075C114.503 19.0917 117.62 18.1 121.02 18.1C123.286 18.1 125.298 18.4683 127.055 19.205C128.811 19.9417 130.511 21.075 132.155 22.605C132.608 22.945 132.948 23.0867 133.175 23.03C133.458 22.9167 133.6 22.5483 133.6 21.925V2.46C133.6 1.44 134.053 0.929996 134.96 0.929996H145.33C146.236 0.929996 146.69 1.46833 146.69 2.545V62.215C146.69 62.8383 146.548 63.2917 146.265 63.575C145.981 63.8583 145.471 64 144.735 64H135.555ZM133.6 30.68C132.353 29.32 131.078 28.3 129.775 27.62C128.528 26.8833 127.083 26.515 125.44 26.515C123.57 26.515 121.87 27.0533 120.34 28.13C118.866 29.15 117.705 30.765 116.855 32.975C116.061 35.185 115.665 38.075 115.665 41.645C115.665 45.2717 116.061 48.19 116.855 50.4C117.705 52.61 118.838 54.225 120.255 55.245C121.728 56.2083 123.4 56.69 125.27 56.69C126.856 56.69 128.273 56.3217 129.52 55.585C130.766 54.8483 131.758 53.9133 132.495 52.78C133.231 51.6467 133.6 50.4567 133.6 49.21V30.68ZM180.551 18.95C181.118 18.95 181.515 19.0917 181.741 19.375C182.025 19.6583 182.166 19.9983 182.166 20.395V26.685C182.166 27.535 181.685 27.96 180.721 27.96H173.666C173.1 27.96 172.816 28.2717 172.816 28.895V62.385C172.816 63.4617 172.363 64 171.456 64H161.001C160.151 64 159.726 63.5183 159.726 62.555V28.725C159.726 28.215 159.5 27.96 159.046 27.96H152.926C151.906 27.96 151.396 27.535 151.396 26.685V20.395C151.396 19.9983 151.51 19.6583 151.736 19.375C152.02 19.0917 152.445 18.95 153.011 18.95H158.706C159.386 18.95 159.726 18.525 159.726 17.675V12.49C159.726 8.86333 160.803 6.03 162.956 3.99C165.11 1.95 168.141 0.929996 172.051 0.929996H180.636C181.883 0.929996 182.506 1.525 182.506 2.715L182.591 8.24C182.591 8.63666 182.478 8.97666 182.251 9.26C182.081 9.54333 181.77 9.685 181.316 9.685H176.726C175.48 9.685 174.46 10.1667 173.666 11.13C172.873 12.0367 172.476 13.2267 172.476 14.7V18.015C172.476 18.6383 172.816 18.95 173.496 18.95H180.551ZM201.631 61.96C201.631 62.6967 201.461 63.235 201.121 63.575C200.781 63.8583 200.186 64 199.336 64H190.411C189.675 64 189.165 63.8583 188.881 63.575C188.655 63.2917 188.541 62.8383 188.541 62.215V20.565C188.541 19.4883 188.995 18.95 189.901 18.95H200.356C201.206 18.95 201.631 19.4317 201.631 20.395V61.96ZM201.801 11.385C201.801 12.8017 201.036 13.51 199.506 13.51H190.326C189.59 13.51 189.08 13.34 188.796 13C188.57 12.66 188.456 12.1783 188.456 11.555V2.62999C188.456 1.49666 188.938 0.929996 189.901 0.929996H200.441C201.348 0.929996 201.801 1.46833 201.801 2.545V11.385ZM211.151 64C209.961 64 209.366 63.4333 209.366 62.3V20.565C209.366 19.4883 209.819 18.95 210.726 18.95H221.011C221.861 18.95 222.286 19.4317 222.286 20.395V24.56C222.286 24.9 222.371 25.1267 222.541 25.24C222.711 25.3533 222.966 25.24 223.306 24.9C224.779 23.54 226.252 22.35 227.726 21.33C229.199 20.31 230.757 19.5167 232.401 18.95C234.044 18.3833 235.801 18.1 237.671 18.1C241.807 18.1 245.066 19.3183 247.446 21.755C249.882 24.1917 251.101 27.45 251.101 31.53V61.96C251.101 63.32 250.421 64 249.061 64H239.626C239.059 64 238.634 63.8867 238.351 63.66C238.124 63.3767 238.011 62.9233 238.011 62.3V33.57C238.011 31.6433 237.472 30.17 236.396 29.15C235.376 28.0733 233.846 27.535 231.806 27.535C230.616 27.535 229.511 27.7333 228.491 28.13C227.471 28.5267 226.479 29.1217 225.516 29.915C224.552 30.6517 223.532 31.615 222.456 32.805V62.045C222.456 63.3483 221.719 64 220.246 64H211.151Z" fill="#B12929"/>
<path d="M51.7944 61.705L55.5536 60.338L55.5078 60.2121L55.4537 60.0895L51.7944 61.705ZM51.7094 63.32L48.3174 61.2L48.2167 61.3612L48.1317 61.5312L51.7094 63.32ZM36.1544 62.47L40.0085 61.3994L39.9564 61.212L39.8864 61.0305L36.1544 62.47ZM26.9744 38.67L30.7064 37.2305L30.68 37.1619L30.651 37.0943L26.9744 38.67ZM15.6694 37.82L12.4694 35.42L12.253 35.7085L12.0917 36.0311L15.6694 37.82ZM0.964409 63.575L-2.15907 66.0738L-2.02067 66.2468L-1.86402 66.4034L0.964409 63.575ZM46.1844 5.435L43.8553 8.68696L43.8656 8.69434L43.876 8.70166L46.1844 5.435ZM50.9444 26.005L54.5575 27.7212L54.5575 27.7212L50.9444 26.005ZM46.6944 31.7L49.2649 34.7648L49.2934 34.7408L49.3215 34.7163L46.6944 31.7ZM40.9144 35.015L42.1793 38.8097L42.2099 38.7995L42.2404 38.7888L40.9144 35.015ZM40.5744 36.29L36.8821 37.8285L36.8982 37.8671L36.9151 37.9055L40.5744 36.29ZM34.5394 25.41L37.0382 28.5335L37.0443 28.5286L37.0504 28.5236L34.5394 25.41ZM48.0352 63.072C48.0062 62.992 47.9289 62.7413 47.9487 62.366C47.9699 61.9637 48.0964 61.5536 48.3174 61.2L55.1014 65.44C56.1928 63.6937 56.0892 61.8109 55.5536 60.338L48.0352 63.072ZM48.1317 61.5312C48.3314 61.1318 48.696 60.6778 49.2574 60.357C49.7925 60.0512 50.2722 60 50.5194 60V68C51.3333 68 52.2946 67.8355 53.2265 67.303C54.1844 66.7556 54.8608 65.9616 55.2871 65.1088L48.1317 61.5312ZM50.5194 60H38.0244V68H50.5194V60ZM38.0244 60C38.2776 60 38.831 60.0828 39.3674 60.5217C39.8682 60.9314 39.9981 61.362 40.0085 61.3994L32.3003 63.5406C32.5941 64.598 33.1773 65.7936 34.3015 66.7133C35.4612 67.6622 36.8079 68 38.0244 68V60ZM39.8864 61.0305L30.7064 37.2305L23.2424 40.1095L32.4224 63.9095L39.8864 61.0305ZM30.651 37.0943C29.4083 34.1947 26.612 33.48 24.5944 33.48V41.48C24.833 41.48 24.6728 41.5238 24.3356 41.3552C24.153 41.2639 23.9397 41.12 23.7379 40.908C23.5348 40.6948 23.3908 40.4626 23.2978 40.2457L30.651 37.0943ZM24.5944 33.48H16.5194V41.48H24.5944V33.48ZM16.5194 33.48C15.4001 33.48 13.6672 33.8229 12.4694 35.42L18.8694 40.22C18.4803 40.7388 17.98 41.0849 17.495 41.2789C17.0458 41.4586 16.6847 41.48 16.5194 41.48V33.48ZM12.0917 36.0311C11.8257 36.5631 11.4994 37.3945 11.4994 38.415H19.4994C19.4994 38.7709 19.4408 39.0527 19.388 39.2376C19.3351 39.4228 19.277 39.549 19.2471 39.6088L12.0917 36.0311ZM11.4994 38.415V61.96H19.4994V38.415H11.4994ZM11.4994 61.96C11.4994 61.8934 11.5398 61.1478 12.2682 60.5004C12.9068 59.9327 13.4613 60 13.2044 60V68C14.4775 68 16.1795 67.7273 17.5831 66.4796C19.0765 65.1522 19.4994 63.3866 19.4994 61.96H11.4994ZM13.2044 60H2.40941V68H13.2044V60ZM2.40941 60C2.3259 60 2.43753 59.9888 2.66682 60.0563C2.90845 60.1274 3.35611 60.3098 3.79284 60.7466L-1.86402 66.4034C-0.452023 67.8154 1.36221 68 2.40941 68V60ZM4.08788 61.0762C4.38604 61.4489 4.51788 61.8013 4.57435 62.0131C4.62878 62.2172 4.62441 62.3298 4.62441 62.3H-3.37559C-3.37559 63.294 -3.19427 64.7798 -2.15907 66.0738L4.08788 61.0762ZM4.62441 62.3V2.54499H-3.37559V62.3H4.62441ZM4.62441 2.54499C4.62441 2.54926 4.62427 2.58403 4.61702 2.64424C4.60979 2.70434 4.59438 2.79897 4.56056 2.91946C4.49218 3.16305 4.34179 3.53297 4.02405 3.91029C3.28296 4.79034 2.34516 4.93 1.98441 4.93V-3.07C0.716991 -3.07 -0.90081 -2.66118 -2.09524 -1.2428C-3.17879 0.0439186 -3.37559 1.54177 -3.37559 2.54499H4.62441ZM1.98441 4.93H28.5044V-3.07H1.98441V4.93ZM28.5044 4.93C35.638 4.93 40.5934 6.35073 43.8553 8.68696L48.5135 2.18304C43.3888 -1.4874 36.5575 -3.07 28.5044 -3.07V4.93ZM43.876 8.70166C46.984 10.898 48.5594 13.913 48.5594 18.27H56.5594C56.5594 11.5203 53.8848 5.97862 48.4929 2.16833L43.876 8.70166ZM48.5594 18.27C48.5594 20.6562 48.1173 22.6341 47.3313 24.2888L54.5575 27.7212C55.9249 24.8426 56.5594 21.6638 56.5594 18.27H48.5594ZM47.3313 24.2888C46.472 26.0977 45.3782 27.5419 44.0673 28.6837L49.3215 34.7163C51.5239 32.7981 53.2634 30.4456 54.5575 27.7212L47.3313 24.2888ZM44.124 28.6352C42.7242 29.8092 41.2166 30.6691 39.5885 31.2412L42.2404 38.7888C44.8055 37.8876 47.1513 36.5374 49.2649 34.7648L44.124 28.6352ZM39.6495 31.2203C38.4428 31.6225 37.0651 32.6189 36.582 34.4306C36.1897 35.9016 36.6097 37.1748 36.8821 37.8285L44.2667 34.7515C44.2834 34.7915 44.3492 34.9557 44.3898 35.2196C44.4307 35.4853 44.459 35.9401 44.3119 36.4919C44.1549 37.0805 43.8337 37.6393 43.3682 38.0837C42.9275 38.5044 42.4762 38.7108 42.1793 38.8097L39.6495 31.2203ZM36.9151 37.9055L48.1351 63.3205L55.4537 60.0895L44.2337 34.6745L36.9151 37.9055ZM27.1444 31.45C30.8601 31.45 34.3574 30.6781 37.0382 28.5335L32.0406 22.2865C31.3214 22.8619 29.8888 23.45 27.1444 23.45V31.45ZM37.0504 28.5236C39.9229 26.2071 41.1744 22.9199 41.1744 19.29H33.1744C33.1744 20.9868 32.6693 21.7795 32.0284 22.2963L37.0504 28.5236ZM41.1744 19.29C41.1744 15.6104 39.964 12.236 37.0504 9.88634L32.0284 16.1137C32.6281 16.5973 33.1744 17.4162 33.1744 19.29H41.1744ZM37.0504 9.88634C34.4033 7.75154 31.1126 6.875 27.5694 6.875V14.875C29.8063 14.875 31.1622 15.4151 32.0284 16.1137L37.0504 9.88634ZM27.5694 6.875H17.1144V14.875H27.5694V6.875ZM17.1144 6.875C16.0624 6.875 14.5264 7.10067 13.236 8.25528C11.8608 9.48566 11.4994 11.0996 11.4994 12.32H19.4994C19.4994 12.5771 19.4071 13.4685 18.5703 14.2172C18.1986 14.5498 17.8203 14.7182 17.5511 14.7985C17.2957 14.8746 17.1306 14.875 17.1144 14.875V6.875ZM11.4994 12.32V26.005H19.4994V12.32H11.4994ZM11.4994 26.005C11.4994 26.9348 11.675 28.3758 12.7092 29.6316C13.8658 31.0361 15.4493 31.45 16.6894 31.45V23.45C17.1361 23.45 18.1247 23.6231 18.8846 24.5459C19.2081 24.9387 19.3609 25.3228 19.4311 25.5783C19.4987 25.8246 19.4994 25.9844 19.4994 26.005H11.4994ZM16.6894 31.45H27.1444V23.45H16.6894V31.45ZM69.0899 50.91L65.6391 52.9329L65.6807 53.0038L65.7252 53.073L69.0899 50.91ZM73.0849 54.65L71.1526 58.1523L71.2236 58.1915L71.2961 58.2277L73.0849 54.65ZM84.3899 54.65L86.1788 58.2277L86.2017 58.2162L86.2245 58.2045L84.3899 54.65ZM89.6599 50.23L86.8315 47.4016L86.7261 47.507L86.6288 47.6199L89.6599 50.23ZM90.2549 49.89V53.89H90.904L91.5198 53.6847L90.2549 49.89ZM91.1899 50.145L89.4011 53.7227L89.5243 53.7843L89.6515 53.8373L91.1899 50.145ZM97.3099 52.695L98.8856 49.0184L98.867 49.0105L98.8484 49.0027L97.3099 52.695ZM97.5649 54.395L94.4196 51.9237L94.3477 52.0152L94.2813 52.1107L97.5649 54.395ZM91.8699 60.6L89.4267 57.4329L91.8699 60.6ZM85.2399 63.915L86.2534 67.7845L86.2843 67.7764L86.3151 67.7678L85.2399 63.915ZM65.3499 61.96L63.4025 65.4539L65.3499 61.96ZM57.1049 53.97L53.6355 55.9607L53.6549 55.9945L53.6749 56.028L57.1049 53.97ZM57.1899 29.49L53.727 27.488L53.7219 27.4967L53.7169 27.5054L57.1899 29.49ZM65.5199 21.075L67.5106 24.5445L65.5199 21.075ZM88.3849 20.99L86.362 24.4408L86.3844 24.4539L86.4068 24.4667L88.3849 20.99ZM96.1199 29.065L92.5889 30.9444L92.6007 30.9664L92.6127 30.9883L96.1199 29.065ZM98.8399 43.345L102.635 44.6099L102.635 44.6099L98.8399 43.345ZM97.5649 43.94V47.94H97.7185L97.8717 47.9282L97.5649 43.94ZM67.8999 44.28L64.6999 41.88V41.88L67.8999 44.28ZM84.7299 36.8L84.7098 40.7999L84.7199 40.8H84.7299V36.8ZM85.9199 36.63L88.1387 39.9582L88.4683 39.7385L88.7484 39.4584L85.9199 36.63ZM85.1549 31.275L81.4711 32.8336L81.4961 32.8928L81.5231 32.9512L85.1549 31.275ZM82.2649 27.62L79.732 30.7158L79.8082 30.7782L79.8874 30.8367L82.2649 27.62ZM72.4049 27.45L74.5013 30.8566H74.5013L72.4049 27.45ZM69.0049 31.275L72.5826 33.0639L72.595 33.039L72.6071 33.014L69.0049 31.275ZM67.8149 36.715H63.8149V40.6949L67.7948 40.715L67.8149 36.715ZM63.6449 45.3C63.6449 48.0342 64.2807 50.6155 65.6391 52.9329L72.5407 48.8871C71.9725 47.9178 71.6449 46.7592 71.6449 45.3H63.6449ZM65.7252 53.073C67.1023 55.2151 68.925 56.9233 71.1526 58.1523L75.0172 51.1477C73.9581 50.5634 73.1176 49.7782 72.4546 48.747L65.7252 53.073ZM71.2961 58.2277C73.6068 59.3831 76.1273 59.925 78.7799 59.925V51.925C77.2393 51.925 75.963 51.6169 74.8738 51.0723L71.2961 58.2277ZM78.7799 59.925C81.3943 59.925 83.8832 59.3755 86.1788 58.2277L82.6011 51.0723C81.4967 51.6245 80.2455 51.925 78.7799 51.925V59.925ZM86.2245 58.2045C88.5693 56.9942 90.7132 55.1369 92.691 52.8401L86.6288 47.6199C85.0934 49.4031 83.7238 50.4924 82.5554 51.0955L86.2245 58.2045ZM92.4884 53.0584C92.4429 53.1038 92.2689 53.2733 91.9632 53.448C91.6581 53.6223 91.065 53.89 90.2549 53.89V45.89C88.4073 45.89 87.2148 47.0182 86.8315 47.4016L92.4884 53.0584ZM91.5198 53.6847C90.944 53.8767 90.4565 53.8838 90.1741 53.8672C89.8829 53.85 89.6692 53.7991 89.5637 53.7703C89.3646 53.716 89.2933 53.6688 89.4011 53.7227L92.9788 46.5673C92.6332 46.3945 92.1794 46.1915 91.6686 46.0522C91.2818 45.9467 90.2156 45.6867 88.99 46.0953L91.5198 53.6847ZM89.6515 53.8373L95.7715 56.3873L98.8484 49.0027L92.7284 46.4527L89.6515 53.8373ZM95.7342 56.3716C95.5482 56.2918 94.2672 55.6633 94.0129 53.9684C93.9044 53.2452 94.0585 52.6781 94.1804 52.3703C94.2421 52.2145 94.3039 52.1023 94.3442 52.0357C94.385 51.9683 94.414 51.9308 94.4196 51.9237L100.71 56.8663C101.221 56.2167 102.218 54.7398 101.924 52.7816C101.585 50.52 99.865 49.4382 98.8856 49.0184L95.7342 56.3716ZM94.2813 52.1107C92.642 54.4673 91.0133 56.2089 89.4267 57.4329L94.3131 63.7671C96.6932 61.9311 98.8612 59.5361 100.849 56.6793L94.2813 52.1107ZM89.4267 57.4329C87.8551 58.6452 86.1106 59.5192 84.1647 60.0622L86.3151 67.7678C89.2426 66.9508 91.918 65.6148 94.3131 63.7671L89.4267 57.4329ZM84.2265 60.0455C82.2406 60.5656 79.8985 60.85 77.1649 60.85V68.85C80.438 68.85 83.4792 68.511 86.2534 67.7845L84.2265 60.0455ZM77.1649 60.85C73.3453 60.85 70.0914 60.0234 67.2974 58.4661L63.4025 65.4539C67.5217 67.7499 72.1445 68.85 77.1649 68.85V60.85ZM67.2974 58.4661C64.4532 56.8808 62.2156 54.7132 60.5349 51.912L53.6749 56.028C56.0743 60.0268 59.3333 63.1858 63.4025 65.4539L67.2974 58.4661ZM60.5744 51.9793C58.9756 49.1928 58.1299 45.9545 58.1299 42.155H50.1299C50.1299 47.1954 51.2676 51.8339 53.6355 55.9607L60.5744 51.9793ZM58.1299 42.155C58.1299 37.8483 59.0273 34.3369 60.6629 31.4746L53.7169 27.5054C51.2726 31.7831 50.1299 36.715 50.1299 42.155H58.1299ZM60.6529 31.492C62.4155 28.4432 64.6972 26.1587 67.5106 24.5445L63.5292 17.6055C59.4293 19.9579 56.1577 23.2835 53.727 27.488L60.6529 31.492ZM67.5106 24.5445C70.3378 22.9223 73.4441 22.1 76.9099 22.1V14.1C72.1024 14.1 67.6153 15.2611 63.5292 17.6055L67.5106 24.5445ZM76.9099 22.1C80.6672 22.1 83.7735 22.9234 86.362 24.4408L90.4078 17.5392C86.423 15.2033 81.8793 14.1 76.9099 14.1V22.1ZM86.4068 24.4667C88.9997 25.9419 91.0553 28.063 92.5889 30.9444L99.6509 27.1856C97.4446 23.0404 94.3435 19.7781 90.363 17.5133L86.4068 24.4667ZM92.6127 30.9883C94.1429 33.7787 95.0099 37.3583 95.0099 41.9H103.01C103.01 36.355 101.95 31.378 99.6272 27.1417L92.6127 30.9883ZM95.0099 41.9C95.0099 42.097 95.0006 42.2121 94.9948 42.2614C94.9922 42.284 94.9917 42.2797 94.9973 42.253C95.0026 42.2272 95.0163 42.1666 95.0452 42.0801L102.635 44.6099C102.949 43.668 103.01 42.685 103.01 41.9H95.0099ZM95.0452 42.0801C95.4342 40.913 96.284 40.339 96.7446 40.124C97.1453 39.937 97.3907 39.9416 97.2581 39.9518L97.8717 47.9282C98.4758 47.8818 99.3021 47.7588 100.128 47.3735C101.013 46.9602 102.132 46.117 102.635 44.6099L95.0452 42.0801ZM97.5649 39.94H68.6649V47.94H97.5649V39.94ZM68.6649 39.94C67.3489 39.94 65.7804 40.4393 64.6999 41.88L71.0999 46.68C70.782 47.1039 70.3493 47.4553 69.8432 47.6802C69.3603 47.8949 68.9351 47.94 68.6649 47.94V39.94ZM64.6999 41.88C63.7817 43.1042 63.6449 44.462 63.6449 45.3H71.6449C71.6449 45.3103 71.6453 45.451 71.5892 45.6751C71.5322 45.9035 71.4009 46.2787 71.0999 46.68L64.6999 41.88ZM84.7299 40.8C85.1393 40.8 85.602 40.7828 86.0606 40.7173C86.3883 40.6705 87.2768 40.5328 88.1387 39.9582L83.7011 33.3018C84.0996 33.0362 84.4459 32.9194 84.6005 32.8731C84.7742 32.821 84.8951 32.8026 84.9292 32.7977C84.9912 32.7889 84.9439 32.8 84.7299 32.8V40.8ZM88.7484 39.4584C89.5288 38.6779 89.849 37.7886 89.9917 37.2176C90.1405 36.6224 90.1749 36.0581 90.1749 35.61H82.1749C82.1749 35.6719 82.1668 35.5326 82.2306 35.2774C82.2883 35.0464 82.481 34.412 83.0915 33.8016L88.7484 39.4584ZM90.1749 35.61C90.1749 33.536 89.6741 31.5213 88.7868 29.5988L81.5231 32.9512C81.9958 33.9753 82.1749 34.8507 82.1749 35.61H90.1749ZM88.8388 29.7164C87.9325 27.5744 86.5139 25.7865 84.6425 24.4033L79.8874 30.8367C80.6226 31.3801 81.1306 32.029 81.4711 32.8336L88.8388 29.7164ZM84.7979 24.5242C82.6829 22.7937 80.1064 22.09 77.4199 22.09V30.09C78.7001 30.09 79.3536 30.4063 79.732 30.7158L84.7979 24.5242ZM77.4199 22.09C74.8719 22.09 72.4633 22.7174 70.3085 24.0434L74.5013 30.8566C75.2933 30.3693 76.2279 30.09 77.4199 30.09V22.09ZM70.3085 24.0434C68.1478 25.3731 66.5092 27.2439 65.4027 29.536L72.6071 33.014C73.0873 32.0194 73.7154 31.3403 74.5013 30.8566L70.3085 24.0434ZM65.4272 29.4861C64.3172 31.7061 63.8149 34.1474 63.8149 36.715H71.8149C71.8149 35.2026 72.1059 34.0172 72.5826 33.0639L65.4272 29.4861ZM67.7948 40.715L84.7098 40.7999L84.75 32.8L67.835 32.715L67.7948 40.715ZM134.28 63.66L131.719 66.7329L131.989 66.9583L132.295 67.133L134.28 63.66ZM133.43 59.24L134.4 55.3594H134.4L133.43 59.24ZM132.58 59.58L130.019 56.5071L129.929 56.5819L129.844 56.6618L132.58 59.58ZM129.52 62.13L131.813 65.4069L131.867 65.3693L131.92 65.33L129.52 62.13ZM125.525 64.085L124.26 60.2903L125.525 64.085ZM110.99 62.3L108.837 65.6717L110.99 62.3ZM104.7 54.65L101.042 56.269L101.047 56.2802L101.052 56.2915L104.7 54.65ZM104.87 29.405L101.258 27.6853L101.252 27.6977L101.246 27.7103L104.87 29.405ZM111.67 21.075L113.963 24.3519L111.67 21.075ZM132.155 22.605L129.429 25.5326L129.585 25.6774L129.755 25.805L132.155 22.605ZM133.175 23.03L134.145 26.9106L134.408 26.8447L134.66 26.7439L133.175 23.03ZM133.6 30.68H137.6V29.1241L136.548 27.9771L133.6 30.68ZM129.775 27.62L127.74 31.0637L127.831 31.1175L127.924 31.1663L129.775 27.62ZM120.34 28.13L122.616 31.4188L122.629 31.41L122.642 31.4012L120.34 28.13ZM116.855 32.975L113.121 31.5391L113.105 31.5811L113.09 31.6235L116.855 32.975ZM116.855 50.4L113.09 51.7515L113.105 51.7939L113.121 51.8359L116.855 50.4ZM120.255 55.245L117.917 58.4911L117.99 58.5437L118.066 58.5929L120.255 55.245ZM129.52 55.585L131.555 59.0287V59.0287L129.52 55.585ZM132.495 52.78L135.848 54.96L132.495 52.78ZM135.555 60C135.665 60 135.793 60.0144 135.927 60.0501C136.06 60.0857 136.174 60.1357 136.264 60.187L132.295 67.133C133.291 67.7022 134.4 68 135.555 68V60ZM136.84 60.5871C137.252 60.9305 137.507 61.3429 137.642 61.703C137.766 62.0338 137.77 62.2633 137.77 62.3H129.77C129.77 63.6047 130.139 65.4163 131.719 66.7329L136.84 60.5871ZM137.77 62.3V59.92H129.77V62.3H137.77ZM137.77 59.92C137.77 59.4167 137.71 58.559 137.262 57.6637C136.733 56.6059 135.75 55.697 134.4 55.3594L132.459 63.1206C131.336 62.8396 130.522 62.0724 130.107 61.2413C129.773 60.5727 129.77 60.0266 129.77 59.92H137.77ZM134.4 55.3594C132.173 54.8028 130.518 56.0912 130.019 56.5071L135.14 62.6529C135.12 62.6701 134.913 62.8441 134.533 62.9964C134.132 63.1568 133.38 63.3506 132.459 63.1206L134.4 55.3594ZM129.844 56.6618C129.057 57.3992 128.152 58.1559 127.12 58.93L131.92 65.33C133.154 64.4041 134.288 63.4608 135.315 62.4981L129.844 56.6618ZM127.226 58.8531C126.456 59.392 125.483 59.8826 124.26 60.2903L126.79 67.8797C128.627 67.2674 130.317 66.4547 131.813 65.4069L127.226 58.8531ZM124.26 60.2903C123.229 60.6338 121.888 60.85 120.17 60.85V68.85C122.531 68.85 124.76 68.5562 126.79 67.8797L124.26 60.2903ZM120.17 60.85C117.401 60.85 115.102 60.1797 113.142 58.9283L108.837 65.6717C112.204 67.8203 116.025 68.85 120.17 68.85V60.85ZM113.142 58.9283C111.245 57.7179 109.616 55.8287 108.347 53.0085L101.052 56.2915C102.843 60.2713 105.407 63.4821 108.837 65.6717L113.142 58.9283ZM108.357 53.031C107.117 50.2292 106.405 46.5413 106.405 41.815H98.4046C98.4046 47.2887 99.222 52.1575 101.042 56.269L108.357 53.031ZM106.405 41.815C106.405 37.5105 107.147 33.9761 108.493 31.0997L101.246 27.7103C99.3051 31.8606 98.4046 36.5995 98.4046 41.815H106.405ZM108.481 31.1247C109.927 28.0882 111.773 25.8849 113.963 24.3519L109.376 17.7981C105.899 20.2318 103.212 23.5818 101.258 27.6853L108.481 31.1247ZM113.963 24.3519C116.137 22.8306 118.455 22.1 121.02 22.1V14.1C116.784 14.1 112.869 15.3528 109.376 17.7981L113.963 24.3519ZM121.02 22.1C122.854 22.1 124.325 22.3976 125.508 22.8938L128.602 15.5162C126.271 14.539 123.718 14.1 121.02 14.1V22.1ZM125.508 22.8938C126.76 23.4188 128.07 24.2676 129.429 25.5326L134.88 19.6774C132.952 17.8824 130.863 16.4645 128.602 15.5162L125.508 22.8938ZM129.755 25.805C130.121 26.0797 130.617 26.411 131.211 26.6586C131.749 26.8827 132.839 27.237 134.145 26.9106L132.204 19.1494C133.284 18.8796 134.09 19.1914 134.288 19.2739C134.542 19.3798 134.642 19.4703 134.555 19.405L129.755 25.805ZM134.66 26.7439C136.117 26.161 136.88 25.0059 137.227 24.1047C137.546 23.275 137.6 22.4761 137.6 21.925H129.6C129.6 21.9972 129.583 21.6942 129.76 21.2328C129.965 20.6999 130.515 19.7856 131.689 19.3161L134.66 26.7439ZM137.6 21.925V2.46H129.6V21.925H137.6ZM137.6 2.46C137.6 2.48841 137.598 2.66338 137.52 2.92698C137.438 3.20401 137.267 3.59037 136.929 3.96995C136.168 4.82586 135.253 4.93 134.96 4.93V-3.07C133.76 -3.07 132.164 -2.71086 130.95 -1.34496C129.816 -0.0688362 129.6 1.44188 129.6 2.46H137.6ZM134.96 4.93H145.33V-3.07H134.96V4.93ZM145.33 4.93C144.969 4.93 144.031 4.79033 143.29 3.91029C142.972 3.53297 142.822 3.16305 142.753 2.91946C142.72 2.79897 142.704 2.70433 142.697 2.64424C142.69 2.58403 142.69 2.54926 142.69 2.54499H150.69C150.69 1.54177 150.493 0.0439205 149.409 -1.24279C148.215 -2.66117 146.597 -3.07 145.33 -3.07V4.93ZM142.69 2.54499V62.215H150.69V2.54499H142.69ZM142.69 62.215C142.69 62.2408 142.685 62.0879 142.765 61.8294C142.852 61.553 143.043 61.1396 143.436 60.7466L149.093 66.4034C150.453 65.0435 150.69 63.3252 150.69 62.215H142.69ZM143.436 60.7466C143.914 60.2685 144.396 60.0961 144.599 60.0397C144.799 59.9842 144.871 60 144.735 60V68C145.728 68 147.637 67.8597 149.093 66.4034L143.436 60.7466ZM144.735 60H135.555V68H144.735V60ZM136.548 27.9771C135.064 26.358 133.431 25.0158 131.625 24.0737L127.924 31.1663C128.725 31.5842 129.642 32.282 130.651 33.3829L136.548 27.9771ZM131.81 24.1763C129.867 23.0284 127.7 22.515 125.44 22.515V30.515C126.466 30.515 127.189 30.7383 127.74 31.0637L131.81 24.1763ZM125.44 22.515C122.745 22.515 120.241 23.3081 118.038 24.8588L122.642 31.4012C123.498 30.7986 124.394 30.515 125.44 30.515V22.515ZM118.063 24.8412C115.747 26.4446 114.168 28.8167 113.121 31.5391L120.588 34.4109C121.241 32.7133 121.986 31.8554 122.616 31.4188L118.063 24.8412ZM113.09 31.6235C112.082 34.4312 111.665 37.8288 111.665 41.645H119.665C119.665 38.3212 120.041 35.9388 120.619 34.3265L113.09 31.6235ZM111.665 41.645C111.665 45.5093 112.08 48.9385 113.09 51.7515L120.619 49.0485C120.042 47.4415 119.665 45.034 119.665 41.645H111.665ZM113.121 51.8359C114.154 54.5206 115.681 56.881 117.917 58.4911L122.592 51.9989C121.995 51.569 121.255 50.6994 120.588 48.9641L113.121 51.8359ZM118.066 58.5929C120.231 60.0087 122.673 60.69 125.27 60.69V52.69C124.126 52.69 123.225 52.408 122.444 51.8971L118.066 58.5929ZM125.27 60.69C127.502 60.69 129.633 60.1639 131.555 59.0287L127.485 52.1413C126.912 52.4795 126.211 52.69 125.27 52.69V60.69ZM131.555 59.0287C133.294 58.001 134.752 56.647 135.848 54.96L129.141 50.6C128.764 51.1796 128.239 51.6956 127.485 52.1413L131.555 59.0287ZM135.848 54.96C136.97 53.2348 137.6 51.2958 137.6 49.21H129.6C129.6 49.6175 129.493 50.0585 129.141 50.6001L135.848 54.96ZM137.6 49.21V30.68H129.6V49.21H137.6ZM181.741 19.375L178.618 21.8738L178.756 22.0468L178.913 22.2034L181.741 19.375ZM151.736 19.375L148.908 16.5466L148.751 16.7032L148.613 16.8762L151.736 19.375ZM162.956 3.99L160.205 1.08619V1.08619L162.956 3.99ZM182.506 2.715H178.506V2.74577L178.507 2.77653L182.506 2.715ZM182.591 8.24H186.591V8.20923L186.591 8.17847L182.591 8.24ZM182.251 9.25999L179.128 6.76121L178.96 6.97131L178.822 7.20201L182.251 9.25999ZM173.666 11.13L176.677 13.764L176.716 13.719L176.754 13.6728L173.666 11.13ZM201.121 63.575L203.682 66.6479L203.822 66.5317L203.95 66.4034L201.121 63.575ZM188.881 63.575L185.758 66.0738L185.896 66.2468L186.053 66.4034L188.881 63.575ZM188.796 13L185.468 15.2188L185.587 15.3966L185.724 15.5607L188.796 13ZM180.551 22.95C180.524 22.95 180.282 22.9496 179.929 22.8232C179.542 22.6853 179.039 22.3996 178.618 21.8738L184.865 16.8762C183.534 15.2127 181.645 14.95 180.551 14.95V22.95ZM178.913 22.2034C178.718 22.0083 178.515 21.7341 178.368 21.381C178.22 21.027 178.166 20.6837 178.166 20.395H186.166C186.166 18.9254 185.595 17.5715 184.57 16.5466L178.913 22.2034ZM178.166 20.395V26.685H186.166V20.395H178.166ZM178.166 26.685C178.166 26.3545 178.283 25.4144 179.159 24.6419C179.939 23.9536 180.701 23.96 180.721 23.96V31.96C181.705 31.96 183.19 31.7539 184.452 30.6406C185.809 29.4431 186.166 27.8655 186.166 26.685H178.166ZM180.721 23.96H173.666V31.96H180.721V23.96ZM173.666 23.96C172.663 23.96 171.205 24.2535 170.069 25.5031C168.999 26.6803 168.816 28.0561 168.816 28.895H176.816C176.816 29.1106 176.776 30.0188 175.989 30.8844C175.136 31.8224 174.103 31.96 173.666 31.96V23.96ZM168.816 28.895V62.385H176.816V28.895H168.816ZM168.816 62.385C168.816 62.3807 168.817 62.346 168.824 62.2858C168.831 62.2257 168.846 62.131 168.88 62.0105C168.949 61.7669 169.099 61.397 169.417 61.0197C170.158 60.1397 171.096 60 171.456 60V68C172.724 68 174.342 67.5912 175.536 66.1728C176.62 64.8861 176.816 63.3882 176.816 62.385H168.816ZM171.456 60H161.001V68H171.456V60ZM161.001 60C161.332 60 162.272 60.1167 163.045 60.9923C163.733 61.7723 163.726 62.5347 163.726 62.555H155.726C155.726 63.5387 155.933 65.0235 157.046 66.2852C158.243 67.6425 159.821 68 161.001 68V60ZM163.726 62.555V28.725H155.726V62.555H163.726ZM163.726 28.725C163.726 27.9619 163.567 26.6424 162.546 25.4938C161.445 24.2554 160.02 23.96 159.046 23.96V31.96C158.527 31.96 157.441 31.7921 156.567 30.8087C155.773 29.9151 155.726 28.9781 155.726 28.725H163.726ZM159.046 23.96H152.926V31.96H159.046V23.96ZM152.926 23.96C152.936 23.96 153.088 23.9596 153.328 24.0262C153.578 24.0956 153.955 24.2475 154.34 24.5684C155.241 25.3193 155.396 26.2823 155.396 26.685H147.396C147.396 27.9377 147.807 29.5382 149.218 30.7141C150.49 31.7736 151.96 31.96 152.926 31.96V23.96ZM155.396 26.685V20.395H147.396V26.685H155.396ZM155.396 20.395C155.396 20.581 155.369 20.8284 155.276 21.1074C155.182 21.3907 155.038 21.6516 154.86 21.8738L148.613 16.8762C147.765 17.9362 147.396 19.1803 147.396 20.395H155.396ZM154.565 22.2034C153.834 22.9348 153.061 22.95 153.011 22.95V14.95C151.828 14.95 150.206 15.2485 148.908 16.5466L154.565 22.2034ZM153.011 22.95H158.706V14.95H153.011V22.95ZM158.706 22.95C159.929 22.95 161.48 22.5236 162.595 21.13C163.573 19.9069 163.726 18.5274 163.726 17.675H155.726C155.726 17.6726 155.709 16.9306 156.348 16.1325C157.123 15.1639 158.164 14.95 158.706 14.95V22.95ZM163.726 17.675V12.49H155.726V17.675H163.726ZM163.726 12.49C163.726 9.69926 164.524 8.01513 165.707 6.89381L160.205 1.08619C157.082 4.04487 155.726 8.02741 155.726 12.49H163.726ZM165.707 6.89381C166.906 5.75853 168.83 4.93 172.051 4.93V-3.07C167.453 -3.07 163.314 -1.85853 160.205 1.08619L165.707 6.89381ZM172.051 4.93H180.636V-3.07H172.051V4.93ZM180.636 4.93C180.635 4.93 180.599 4.92999 180.534 4.92121C180.47 4.9124 180.369 4.8937 180.242 4.85326C179.977 4.76892 179.618 4.59554 179.277 4.26966C178.534 3.56065 178.506 2.78523 178.506 2.715H186.506C186.506 1.45477 186.167 -0.21316 184.801 -1.51717C183.47 -2.78799 181.831 -3.07 180.636 -3.07V4.93ZM178.507 2.77653L178.592 8.30153L186.591 8.17847L186.506 2.65347L178.507 2.77653ZM178.591 8.24C178.591 8.05397 178.619 7.80654 178.712 7.52758C178.806 7.24427 178.95 6.98335 179.128 6.76121L185.375 11.7588C186.223 10.6988 186.591 9.45471 186.591 8.24H178.591ZM178.822 7.20201C179.17 6.62189 179.681 6.18923 180.235 5.93728C180.739 5.70839 181.148 5.68499 181.316 5.68499V13.685C182.59 13.685 184.531 13.2346 185.681 11.318L178.822 7.20201ZM181.316 5.68499H176.726V13.685H181.316V5.68499ZM176.726 5.68499C174.283 5.68499 172.131 6.70229 170.579 8.58717L176.754 13.6728C176.789 13.6311 176.804 13.6201 176.797 13.626C176.793 13.6287 176.786 13.6343 176.775 13.6414C176.763 13.6486 176.75 13.6561 176.734 13.6632C176.719 13.6704 176.705 13.6761 176.692 13.6804C176.679 13.6847 176.67 13.687 176.665 13.6879C176.656 13.69 176.673 13.685 176.726 13.685V5.68499ZM170.656 8.49598C169.091 10.2852 168.476 12.4831 168.476 14.7H176.476C176.476 13.9703 176.656 13.7882 176.677 13.764L170.656 8.49598ZM168.476 14.7V18.015H176.476V14.7H168.476ZM168.476 18.015C168.476 19.0371 168.771 20.5124 170.029 21.6649C171.22 22.757 172.622 22.95 173.496 22.95V14.95C173.691 14.95 174.583 14.9872 175.434 15.7676C176.352 16.6085 176.476 17.6162 176.476 18.015H168.476ZM173.496 22.95H180.551V14.95H173.496V22.95ZM197.631 61.96C197.631 62.037 197.621 61.9302 197.69 61.7117C197.764 61.4748 197.936 61.1038 198.293 60.7466L203.95 66.4034C205.357 64.9964 205.631 63.2045 205.631 61.96H197.631ZM198.561 60.5021C199.011 60.1272 199.407 60.0232 199.494 60.0025C199.592 59.9792 199.561 60 199.336 60V68C200.378 68 202.207 67.8773 203.682 66.6479L198.561 60.5021ZM199.336 60H190.411V68H199.336V60ZM190.411 60C190.275 60 190.347 59.9842 190.547 60.0397C190.75 60.0961 191.232 60.2685 191.71 60.7466L186.053 66.4034C187.509 67.8597 189.418 68 190.411 68V60ZM192.005 61.0762C192.339 61.4934 192.463 61.8755 192.507 62.0524C192.551 62.2282 192.541 62.301 192.541 62.215H184.541C184.541 63.1564 184.681 64.7277 185.758 66.0738L192.005 61.0762ZM192.541 62.215V20.565H184.541V62.215H192.541ZM192.541 20.565C192.541 20.5693 192.541 20.604 192.534 20.6642C192.527 20.7243 192.511 20.819 192.478 20.9395C192.409 21.1831 192.259 21.553 191.941 21.9303C191.2 22.8103 190.262 22.95 189.901 22.95V14.95C188.634 14.95 187.016 15.3588 185.822 16.7772C184.738 18.0639 184.541 19.5618 184.541 20.565H192.541ZM189.901 22.95H200.356V14.95H189.901V22.95ZM200.356 22.95C200.026 22.95 199.086 22.8333 198.313 21.9577C197.625 21.1777 197.631 20.4153 197.631 20.395H205.631C205.631 19.4113 205.425 17.9265 204.312 16.6648C203.115 15.3075 201.537 14.95 200.356 14.95V22.95ZM197.631 20.395V61.96H205.631V20.395H197.631ZM197.801 11.385C197.801 11.3836 197.801 11.3439 197.812 11.2731C197.823 11.2017 197.846 11.0935 197.894 10.9598C197.997 10.6738 198.193 10.3375 198.51 10.0437C199.149 9.45234 199.728 9.51 199.506 9.51V17.51C200.815 17.51 202.542 17.2135 203.945 15.9138C205.407 14.5603 205.801 12.7923 205.801 11.385H197.801ZM199.506 9.51H190.326V17.51H199.506V9.51ZM190.326 9.51C190.24 9.51 190.384 9.49689 190.656 9.58776C190.955 9.68731 191.442 9.92609 191.869 10.4392L185.724 15.5607C187.15 17.2724 189.171 17.51 190.326 17.51V9.51ZM192.125 10.7812C192.325 11.0821 192.405 11.3391 192.435 11.4676C192.465 11.5927 192.456 11.6339 192.456 11.555H184.456C184.456 12.5813 184.629 13.9605 185.468 15.2188L192.125 10.7812ZM192.456 11.555V2.62999H184.456V11.555H192.456ZM192.456 2.62999C192.456 2.62944 192.456 2.63056 192.456 2.63001C192.456 2.62947 192.456 2.63061 192.456 2.63007C192.456 2.63012 192.456 2.6302 192.456 2.63031C192.456 2.63052 192.456 2.63083 192.456 2.63125C192.456 2.63208 192.456 2.63335 192.456 2.63504C192.456 2.6384 192.456 2.64356 192.456 2.65044C192.455 2.66405 192.453 2.68539 192.45 2.71373C192.443 2.76926 192.428 2.85983 192.395 2.97666C192.328 3.21353 192.18 3.57602 191.865 3.94559C191.135 4.80518 190.222 4.93 189.901 4.93V-3.07C188.618 -3.07 186.982 -2.66185 185.77 -1.2356C184.663 0.0661774 184.456 1.59125 184.456 2.62999H192.456ZM189.901 4.93H200.441V-3.07H189.901V4.93ZM200.441 4.93C200.081 4.93 199.143 4.79034 198.402 3.91029C198.084 3.53297 197.934 3.16305 197.865 2.91946C197.831 2.79897 197.816 2.70434 197.809 2.64424C197.802 2.58404 197.801 2.54926 197.801 2.54499H205.801C205.801 1.54177 205.605 0.0439148 204.521 -1.2428C203.327 -2.66118 201.709 -3.07 200.441 -3.07V4.93ZM197.801 2.54499V11.385H205.801V2.54499H197.801ZM222.541 25.24L220.322 28.5682L220.322 28.5682L222.541 25.24ZM223.306 24.9L220.593 21.9608L220.534 22.015L220.477 22.0716L223.306 24.9ZM227.726 21.33L230.003 24.6188L227.726 21.33ZM232.401 18.95L231.097 15.1685L232.401 18.95ZM247.446 21.755L244.584 24.55L244.601 24.5668L244.617 24.5834L247.446 21.755ZM238.351 63.66L235.227 66.1588L235.505 66.5058L235.852 66.7835L238.351 63.66ZM236.396 29.15L233.492 31.901L233.566 31.9795L233.645 32.0538L236.396 29.15ZM228.491 28.13L227.041 24.402V24.402L228.491 28.13ZM225.516 29.915L227.946 33.0924L228.003 33.0486L228.059 33.0027L225.516 29.915ZM222.456 32.805L219.49 30.1213L218.456 31.264V32.805H222.456ZM211.151 60C211.158 60 211.323 59.9995 211.58 60.0813C211.855 60.1685 212.222 60.3462 212.571 60.6785C213.329 61.4011 213.366 62.199 213.366 62.3H205.366C205.366 63.5344 205.7 65.1822 207.053 66.4715C208.371 67.7261 209.987 68 211.151 68V60ZM213.366 62.3V20.565H205.366V62.3H213.366ZM213.366 20.565C213.366 20.5693 213.366 20.604 213.358 20.6642C213.351 20.7243 213.336 20.819 213.302 20.9395C213.234 21.1831 213.083 21.553 212.765 21.9303C212.024 22.8103 211.087 22.95 210.726 22.95V14.95C209.458 14.95 207.841 15.3588 206.646 16.7772C205.563 18.0639 205.366 19.5618 205.366 20.565H213.366ZM210.726 22.95H221.011V14.95H210.726V22.95ZM221.011 22.95C220.68 22.95 219.74 22.8333 218.968 21.9577C218.279 21.1777 218.286 20.4153 218.286 20.395H226.286C226.286 19.4113 226.08 17.9265 224.966 16.6648C223.769 15.3075 222.191 14.95 221.011 14.95V22.95ZM218.286 20.395V24.56H226.286V20.395H218.286ZM218.286 24.56C218.286 25.3382 218.456 27.3243 220.322 28.5682L224.76 21.9118C225.494 22.4016 225.899 23.0576 226.095 23.5805C226.274 24.058 226.286 24.4295 226.286 24.56H218.286ZM220.322 28.5682C221.944 29.6494 223.612 29.2828 224.484 28.8952C225.272 28.5451 225.831 28.0316 226.134 27.7284L220.477 22.0716C220.485 22.0636 220.541 22.0082 220.643 21.9308C220.738 21.8584 220.937 21.717 221.235 21.5847C221.53 21.4537 222.032 21.2825 222.684 21.2825C223.387 21.2825 224.118 21.4839 224.76 21.9118L220.322 28.5682ZM226.019 27.8392C227.371 26.5911 228.7 25.5209 230.003 24.6188L225.449 18.0412C223.805 19.1791 222.187 20.4889 220.593 21.9608L226.019 27.8392ZM230.003 24.6188C231.185 23.8002 232.417 23.1755 233.705 22.7315L231.097 15.1685C229.098 15.8579 227.213 16.8198 225.449 18.0412L230.003 24.6188ZM233.705 22.7315C234.898 22.3201 236.211 22.1 237.671 22.1V14.1C235.391 14.1 233.19 14.4466 231.097 15.1685L233.705 22.7315ZM237.671 22.1C240.978 22.1 243.114 23.0444 244.584 24.55L250.307 18.96C247.018 15.5922 242.637 14.1 237.671 14.1V22.1ZM244.617 24.5834C246.168 26.1336 247.101 28.3011 247.101 31.53H255.101C255.101 26.5989 253.597 22.2497 250.274 18.9266L244.617 24.5834ZM247.101 31.53V61.96H255.101V31.53H247.101ZM247.101 61.96C247.101 62.0234 247.088 61.3363 247.762 60.6616C248.437 59.9869 249.124 60 249.061 60V68C250.357 68 252.065 67.6731 253.419 66.3184C254.774 64.9637 255.101 63.2566 255.101 61.96H247.101ZM249.061 60H239.626V68H249.061V60ZM239.626 60C239.596 60 239.709 59.9956 239.913 60.0501C240.124 60.1065 240.477 60.2384 240.85 60.5365L235.852 66.7835C237.146 67.8187 238.632 68 239.626 68V60ZM241.474 61.1612C241.808 61.5784 241.932 61.9605 241.976 62.1374C242.02 62.3132 242.011 62.386 242.011 62.3H234.011C234.011 63.2414 234.15 64.8127 235.227 66.1588L241.474 61.1612ZM242.011 62.3V33.57H234.011V62.3H242.011ZM242.011 33.57C242.011 30.8904 241.241 28.2302 239.147 26.2462L233.645 32.0538C233.704 32.1098 234.011 32.3963 234.011 33.57H242.011ZM239.3 26.399C237.275 24.2617 234.519 23.535 231.806 23.535V31.535C233.172 31.535 233.477 31.885 233.492 31.901L239.3 26.399ZM231.806 23.535C230.163 23.535 228.562 23.8104 227.041 24.402L229.941 31.858C230.46 31.6562 231.068 31.535 231.806 31.535V23.535ZM227.041 24.402C225.574 24.9726 224.219 25.8011 222.973 26.8273L228.059 33.0027C228.739 32.4422 229.368 32.0808 229.941 31.858L227.041 24.402ZM223.086 26.7376C221.879 27.6607 220.681 28.8049 219.49 30.1213L225.422 35.4887C226.384 34.4251 227.226 33.6426 227.946 33.0924L223.086 26.7376ZM218.456 32.805V62.045H226.456V32.805H218.456ZM218.456 62.045C218.456 61.9443 218.507 61.1753 219.253 60.5153C219.906 59.9379 220.478 60 220.246 60V68C221.487 68 223.164 67.7362 224.554 66.5072C226.036 65.1955 226.456 63.4491 226.456 62.045H218.456ZM220.246 60H211.151V68H220.246V60Z" fill="white" mask="url(#path-1-outside-1_259_610)"/>
</svg>
