<svg width="113" height="31" viewBox="0 0 113 31" fill="none" xmlns="http://www.w3.org/2000/svg">
<mask id="path-1-outside-1_625_437" maskUnits="userSpaceOnUse" x="-2" y="-2" width="117" height="35" fill="black">
<rect fill="white" x="-2" y="-2" width="117" height="35"/>
<path d="M24.3503 28.92C24.457 29.2133 24.4436 29.4667 24.3103 29.68C24.2036 29.8933 24.017 30 23.7503 30H17.8703C17.417 30 17.1236 29.76 16.9903 29.28L12.6703 18.08C12.5103 17.7067 12.137 17.52 11.5503 17.52H7.75031C7.56365 17.52 7.43031 17.5733 7.35031 17.68C7.29698 17.7867 7.27031 17.88 7.27031 17.96V29.04C7.27031 29.68 6.91031 30 6.19031 30H1.11031C0.790314 30 0.563647 29.9333 0.430314 29.8C0.323647 29.6667 0.270314 29.4667 0.270314 29.2V1.08C0.270314 0.573332 0.483647 0.319998 0.910314 0.319998H13.3903C16.9636 0.319998 19.737 1.02667 21.7103 2.44C23.7103 3.85333 24.7103 5.86667 24.7103 8.48C24.7103 9.84 24.457 11.0533 23.9503 12.12C23.4436 13.1867 22.777 14.08 21.9503 14.8C21.1236 15.4933 20.217 16.0133 19.2303 16.36C18.9903 16.44 18.937 16.64 19.0703 16.96L24.3503 28.92ZM12.7503 12.8C14.2703 12.8 15.4303 12.48 16.2303 11.84C17.057 11.1733 17.4703 10.2133 17.4703 8.96C17.4703 7.65333 17.057 6.66667 16.2303 6C15.4036 5.33333 14.3103 5 12.9503 5H8.03031C7.52365 5 7.27031 5.22667 7.27031 5.68V12.12C7.27031 12.5733 7.45698 12.8 7.83031 12.8H12.7503ZM30.4094 21.2C30.4094 22.1867 30.636 23.0667 31.0894 23.84C31.5694 24.5867 32.196 25.1733 32.9694 25.6C33.7694 26 34.6627 26.2 35.6494 26.2C36.6094 26.2 37.4894 26 38.2894 25.6C39.116 25.1733 39.9427 24.48 40.7694 23.52C40.876 23.4133 40.9694 23.36 41.0494 23.36C41.1294 23.3333 41.276 23.3733 41.4894 23.48L44.3694 24.68C44.7427 24.84 44.7827 25.1067 44.4894 25.48C43.636 26.7067 42.7427 27.68 41.8094 28.4C40.876 29.12 39.836 29.64 38.6894 29.96C37.5694 30.2533 36.3027 30.4 34.8894 30.4C32.8094 30.4 30.956 29.9467 29.3294 29.04C27.7027 28.1333 26.4094 26.88 25.4494 25.28C24.516 23.6533 24.0494 21.8 24.0494 19.72C24.0494 17.4267 24.5294 15.44 25.4894 13.76C26.476 12.0533 27.7827 10.7333 29.4094 9.8C31.036 8.86667 32.8227 8.4 34.7694 8.4C36.8227 8.4 38.6227 8.85333 40.1694 9.76C41.716 10.64 42.9294 11.9067 43.8094 13.56C44.716 15.2133 45.1694 17.2267 45.1694 19.6C45.1694 19.8933 45.1427 20.12 45.0894 20.28C45.036 20.44 44.836 20.5333 44.4894 20.56H30.8894C30.7294 20.56 30.6094 20.6133 30.5294 20.72C30.4494 20.8267 30.4094 20.9867 30.4094 21.2ZM38.4494 17.2C38.7427 17.2 38.9294 17.1733 39.0094 17.12C39.0894 17.04 39.1294 16.88 39.1294 16.64C39.1294 15.9733 38.9694 15.2933 38.6494 14.6C38.356 13.9067 37.9027 13.3333 37.2894 12.88C36.7027 12.4 35.9427 12.16 35.0094 12.16C34.1294 12.16 33.3427 12.3733 32.6494 12.8C31.956 13.2267 31.4227 13.8267 31.0494 14.6C30.676 15.3467 30.4894 16.2 30.4894 17.16L38.4494 17.2ZM60.9669 30C60.7535 30 60.5535 29.9467 60.3669 29.84C60.2069 29.7067 60.1269 29.4933 60.1269 29.2V28.08C60.1269 27.8933 60.0735 27.7867 59.9669 27.76C59.8602 27.7333 59.7269 27.7867 59.5669 27.92C59.1402 28.32 58.6602 28.72 58.1269 29.12C57.5935 29.4933 56.9669 29.8 56.2469 30.04C55.5269 30.28 54.6869 30.4 53.7269 30.4C52.1002 30.4 50.6602 30 49.4069 29.2C48.1535 28.4 47.1669 27.2 46.4469 25.6C45.7269 23.9733 45.3669 21.96 45.3669 19.56C45.3669 17.32 45.7535 15.3733 46.5269 13.72C47.3269 12.04 48.3935 10.7333 49.7269 9.8C51.0602 8.86667 52.5269 8.4 54.1269 8.4C55.1935 8.4 56.1402 8.57333 56.9669 8.92C57.7935 9.26667 58.5935 9.8 59.3669 10.52C59.5802 10.68 59.7402 10.7467 59.8469 10.72C59.9802 10.6667 60.0469 10.4933 60.0469 10.2V1.04C60.0469 0.559998 60.2602 0.319998 60.6869 0.319998H65.5669C65.9935 0.319998 66.2069 0.573332 66.2069 1.08V29.16C66.2069 29.4533 66.1402 29.6667 66.0069 29.8C65.8735 29.9333 65.6335 30 65.2869 30H60.9669ZM60.0469 14.32C59.4602 13.68 58.8602 13.2 58.2469 12.88C57.6602 12.5333 56.9802 12.36 56.2069 12.36C55.3269 12.36 54.5269 12.6133 53.8069 13.12C53.1135 13.6 52.5669 14.36 52.1669 15.4C51.7935 16.44 51.6069 17.8 51.6069 19.48C51.6069 21.1867 51.7935 22.56 52.1669 23.6C52.5669 24.64 53.1002 25.4 53.7669 25.88C54.4602 26.3333 55.2469 26.56 56.1269 26.56C56.8735 26.56 57.5402 26.3867 58.1269 26.04C58.7135 25.6933 59.1802 25.2533 59.5269 24.72C59.8735 24.1867 60.0469 23.6267 60.0469 23.04V14.32ZM80.7419 8.8C81.0085 8.8 81.1952 8.86667 81.3019 9C81.4352 9.13333 81.5019 9.29333 81.5019 9.48V12.44C81.5019 12.84 81.2752 13.04 80.8219 13.04H77.5019C77.2352 13.04 77.1019 13.1867 77.1019 13.48V29.24C77.1019 29.7467 76.8885 30 76.4619 30H71.5419C71.1419 30 70.9419 29.7733 70.9419 29.32V13.4C70.9419 13.16 70.8352 13.04 70.6219 13.04H67.7419C67.2619 13.04 67.0219 12.84 67.0219 12.44V9.48C67.0219 9.29333 67.0752 9.13333 67.1819 9C67.3152 8.86667 67.5152 8.8 67.7819 8.8H70.4619C70.7819 8.8 70.9419 8.6 70.9419 8.2V5.76C70.9419 4.05333 71.4485 2.72 72.4619 1.76C73.4752 0.799998 74.9019 0.319998 76.7419 0.319998H80.7819C81.3685 0.319998 81.6619 0.599999 81.6619 1.16L81.7019 3.76C81.7019 3.94667 81.6485 4.10666 81.5419 4.24C81.4619 4.37333 81.3152 4.44 81.1019 4.44H78.9419C78.3552 4.44 77.8752 4.66666 77.5019 5.12C77.1285 5.54667 76.9419 6.10667 76.9419 6.8V8.36C76.9419 8.65333 77.1019 8.8 77.4219 8.8H80.7419ZM90.6619 29.04C90.6619 29.3867 90.5819 29.64 90.4219 29.8C90.2619 29.9333 89.9819 30 89.5819 30H85.3819C85.0352 30 84.7952 29.9333 84.6619 29.8C84.5552 29.6667 84.5019 29.4533 84.5019 29.16V9.56C84.5019 9.05333 84.7152 8.8 85.1419 8.8H90.0619C90.4619 8.8 90.6619 9.02667 90.6619 9.48V29.04ZM90.7419 5.24C90.7419 5.90667 90.3819 6.24 89.6619 6.24H85.3419C84.9952 6.24 84.7552 6.16 84.6219 6C84.5152 5.84 84.4619 5.61333 84.4619 5.32V1.12C84.4619 0.586665 84.6885 0.319998 85.1419 0.319998H90.1019C90.5285 0.319998 90.7419 0.573332 90.7419 1.08V5.24ZM93.7416 30C93.1816 30 92.9016 29.7333 92.9016 29.2V9.56C92.9016 9.05333 93.1149 8.8 93.5416 8.8H98.3816C98.7816 8.8 98.9816 9.02667 98.9816 9.48V11.44C98.9816 11.6 99.0216 11.7067 99.1016 11.76C99.1816 11.8133 99.3016 11.76 99.4616 11.6C100.155 10.96 100.848 10.4 101.542 9.92C102.235 9.44 102.968 9.06667 103.742 8.8C104.515 8.53333 105.342 8.4 106.222 8.4C108.168 8.4 109.702 8.97333 110.822 10.12C111.968 11.2667 112.542 12.8 112.542 14.72V29.04C112.542 29.68 112.222 30 111.582 30H107.142C106.875 30 106.675 29.9467 106.542 29.84C106.435 29.7067 106.382 29.4933 106.382 29.2V15.68C106.382 14.7733 106.128 14.08 105.622 13.6C105.142 13.0933 104.422 12.84 103.462 12.84C102.902 12.84 102.382 12.9333 101.902 13.12C101.422 13.3067 100.955 13.5867 100.502 13.96C100.048 14.3067 99.5682 14.76 99.0616 15.32V29.08C99.0616 29.6933 98.7149 30 98.0216 30H93.7416Z"/>
</mask>
<path d="M24.3503 28.92C24.457 29.2133 24.4436 29.4667 24.3103 29.68C24.2036 29.8933 24.017 30 23.7503 30H17.8703C17.417 30 17.1236 29.76 16.9903 29.28L12.6703 18.08C12.5103 17.7067 12.137 17.52 11.5503 17.52H7.75031C7.56365 17.52 7.43031 17.5733 7.35031 17.68C7.29698 17.7867 7.27031 17.88 7.27031 17.96V29.04C7.27031 29.68 6.91031 30 6.19031 30H1.11031C0.790314 30 0.563647 29.9333 0.430314 29.8C0.323647 29.6667 0.270314 29.4667 0.270314 29.2V1.08C0.270314 0.573332 0.483647 0.319998 0.910314 0.319998H13.3903C16.9636 0.319998 19.737 1.02667 21.7103 2.44C23.7103 3.85333 24.7103 5.86667 24.7103 8.48C24.7103 9.84 24.457 11.0533 23.9503 12.12C23.4436 13.1867 22.777 14.08 21.9503 14.8C21.1236 15.4933 20.217 16.0133 19.2303 16.36C18.9903 16.44 18.937 16.64 19.0703 16.96L24.3503 28.92ZM12.7503 12.8C14.2703 12.8 15.4303 12.48 16.2303 11.84C17.057 11.1733 17.4703 10.2133 17.4703 8.96C17.4703 7.65333 17.057 6.66667 16.2303 6C15.4036 5.33333 14.3103 5 12.9503 5H8.03031C7.52365 5 7.27031 5.22667 7.27031 5.68V12.12C7.27031 12.5733 7.45698 12.8 7.83031 12.8H12.7503ZM30.4094 21.2C30.4094 22.1867 30.636 23.0667 31.0894 23.84C31.5694 24.5867 32.196 25.1733 32.9694 25.6C33.7694 26 34.6627 26.2 35.6494 26.2C36.6094 26.2 37.4894 26 38.2894 25.6C39.116 25.1733 39.9427 24.48 40.7694 23.52C40.876 23.4133 40.9694 23.36 41.0494 23.36C41.1294 23.3333 41.276 23.3733 41.4894 23.48L44.3694 24.68C44.7427 24.84 44.7827 25.1067 44.4894 25.48C43.636 26.7067 42.7427 27.68 41.8094 28.4C40.876 29.12 39.836 29.64 38.6894 29.96C37.5694 30.2533 36.3027 30.4 34.8894 30.4C32.8094 30.4 30.956 29.9467 29.3294 29.04C27.7027 28.1333 26.4094 26.88 25.4494 25.28C24.516 23.6533 24.0494 21.8 24.0494 19.72C24.0494 17.4267 24.5294 15.44 25.4894 13.76C26.476 12.0533 27.7827 10.7333 29.4094 9.8C31.036 8.86667 32.8227 8.4 34.7694 8.4C36.8227 8.4 38.6227 8.85333 40.1694 9.76C41.716 10.64 42.9294 11.9067 43.8094 13.56C44.716 15.2133 45.1694 17.2267 45.1694 19.6C45.1694 19.8933 45.1427 20.12 45.0894 20.28C45.036 20.44 44.836 20.5333 44.4894 20.56H30.8894C30.7294 20.56 30.6094 20.6133 30.5294 20.72C30.4494 20.8267 30.4094 20.9867 30.4094 21.2ZM38.4494 17.2C38.7427 17.2 38.9294 17.1733 39.0094 17.12C39.0894 17.04 39.1294 16.88 39.1294 16.64C39.1294 15.9733 38.9694 15.2933 38.6494 14.6C38.356 13.9067 37.9027 13.3333 37.2894 12.88C36.7027 12.4 35.9427 12.16 35.0094 12.16C34.1294 12.16 33.3427 12.3733 32.6494 12.8C31.956 13.2267 31.4227 13.8267 31.0494 14.6C30.676 15.3467 30.4894 16.2 30.4894 17.16L38.4494 17.2ZM60.9669 30C60.7535 30 60.5535 29.9467 60.3669 29.84C60.2069 29.7067 60.1269 29.4933 60.1269 29.2V28.08C60.1269 27.8933 60.0735 27.7867 59.9669 27.76C59.8602 27.7333 59.7269 27.7867 59.5669 27.92C59.1402 28.32 58.6602 28.72 58.1269 29.12C57.5935 29.4933 56.9669 29.8 56.2469 30.04C55.5269 30.28 54.6869 30.4 53.7269 30.4C52.1002 30.4 50.6602 30 49.4069 29.2C48.1535 28.4 47.1669 27.2 46.4469 25.6C45.7269 23.9733 45.3669 21.96 45.3669 19.56C45.3669 17.32 45.7535 15.3733 46.5269 13.72C47.3269 12.04 48.3935 10.7333 49.7269 9.8C51.0602 8.86667 52.5269 8.4 54.1269 8.4C55.1935 8.4 56.1402 8.57333 56.9669 8.92C57.7935 9.26667 58.5935 9.8 59.3669 10.52C59.5802 10.68 59.7402 10.7467 59.8469 10.72C59.9802 10.6667 60.0469 10.4933 60.0469 10.2V1.04C60.0469 0.559998 60.2602 0.319998 60.6869 0.319998H65.5669C65.9935 0.319998 66.2069 0.573332 66.2069 1.08V29.16C66.2069 29.4533 66.1402 29.6667 66.0069 29.8C65.8735 29.9333 65.6335 30 65.2869 30H60.9669ZM60.0469 14.32C59.4602 13.68 58.8602 13.2 58.2469 12.88C57.6602 12.5333 56.9802 12.36 56.2069 12.36C55.3269 12.36 54.5269 12.6133 53.8069 13.12C53.1135 13.6 52.5669 14.36 52.1669 15.4C51.7935 16.44 51.6069 17.8 51.6069 19.48C51.6069 21.1867 51.7935 22.56 52.1669 23.6C52.5669 24.64 53.1002 25.4 53.7669 25.88C54.4602 26.3333 55.2469 26.56 56.1269 26.56C56.8735 26.56 57.5402 26.3867 58.1269 26.04C58.7135 25.6933 59.1802 25.2533 59.5269 24.72C59.8735 24.1867 60.0469 23.6267 60.0469 23.04V14.32ZM80.7419 8.8C81.0085 8.8 81.1952 8.86667 81.3019 9C81.4352 9.13333 81.5019 9.29333 81.5019 9.48V12.44C81.5019 12.84 81.2752 13.04 80.8219 13.04H77.5019C77.2352 13.04 77.1019 13.1867 77.1019 13.48V29.24C77.1019 29.7467 76.8885 30 76.4619 30H71.5419C71.1419 30 70.9419 29.7733 70.9419 29.32V13.4C70.9419 13.16 70.8352 13.04 70.6219 13.04H67.7419C67.2619 13.04 67.0219 12.84 67.0219 12.44V9.48C67.0219 9.29333 67.0752 9.13333 67.1819 9C67.3152 8.86667 67.5152 8.8 67.7819 8.8H70.4619C70.7819 8.8 70.9419 8.6 70.9419 8.2V5.76C70.9419 4.05333 71.4485 2.72 72.4619 1.76C73.4752 0.799998 74.9019 0.319998 76.7419 0.319998H80.7819C81.3685 0.319998 81.6619 0.599999 81.6619 1.16L81.7019 3.76C81.7019 3.94667 81.6485 4.10666 81.5419 4.24C81.4619 4.37333 81.3152 4.44 81.1019 4.44H78.9419C78.3552 4.44 77.8752 4.66666 77.5019 5.12C77.1285 5.54667 76.9419 6.10667 76.9419 6.8V8.36C76.9419 8.65333 77.1019 8.8 77.4219 8.8H80.7419ZM90.6619 29.04C90.6619 29.3867 90.5819 29.64 90.4219 29.8C90.2619 29.9333 89.9819 30 89.5819 30H85.3819C85.0352 30 84.7952 29.9333 84.6619 29.8C84.5552 29.6667 84.5019 29.4533 84.5019 29.16V9.56C84.5019 9.05333 84.7152 8.8 85.1419 8.8H90.0619C90.4619 8.8 90.6619 9.02667 90.6619 9.48V29.04ZM90.7419 5.24C90.7419 5.90667 90.3819 6.24 89.6619 6.24H85.3419C84.9952 6.24 84.7552 6.16 84.6219 6C84.5152 5.84 84.4619 5.61333 84.4619 5.32V1.12C84.4619 0.586665 84.6885 0.319998 85.1419 0.319998H90.1019C90.5285 0.319998 90.7419 0.573332 90.7419 1.08V5.24ZM93.7416 30C93.1816 30 92.9016 29.7333 92.9016 29.2V9.56C92.9016 9.05333 93.1149 8.8 93.5416 8.8H98.3816C98.7816 8.8 98.9816 9.02667 98.9816 9.48V11.44C98.9816 11.6 99.0216 11.7067 99.1016 11.76C99.1816 11.8133 99.3016 11.76 99.4616 11.6C100.155 10.96 100.848 10.4 101.542 9.92C102.235 9.44 102.968 9.06667 103.742 8.8C104.515 8.53333 105.342 8.4 106.222 8.4C108.168 8.4 109.702 8.97333 110.822 10.12C111.968 11.2667 112.542 12.8 112.542 14.72V29.04C112.542 29.68 112.222 30 111.582 30H107.142C106.875 30 106.675 29.9467 106.542 29.84C106.435 29.7067 106.382 29.4933 106.382 29.2V15.68C106.382 14.7733 106.128 14.08 105.622 13.6C105.142 13.0933 104.422 12.84 103.462 12.84C102.902 12.84 102.382 12.9333 101.902 13.12C101.422 13.3067 100.955 13.5867 100.502 13.96C100.048 14.3067 99.5682 14.76 99.0616 15.32V29.08C99.0616 29.6933 98.7149 30 98.0216 30H93.7416Z" fill="white"/>
<path d="M24.3503 28.92L26.2299 28.2365L26.207 28.1736L26.1799 28.1123L24.3503 28.92ZM24.3103 29.68L22.6143 28.62L22.5639 28.7006L22.5215 28.7856L24.3103 29.68ZM16.9903 29.28L18.9174 28.7447L18.8913 28.651L18.8563 28.5603L16.9903 29.28ZM12.6703 18.08L14.5363 17.3603L14.5231 17.326L14.5086 17.2922L12.6703 18.08ZM7.35031 17.68L5.75031 16.48L5.64211 16.6243L5.56146 16.7856L7.35031 17.68ZM0.430313 29.8L-1.13142 31.0494L-1.06223 31.1359L-0.983902 31.2142L0.430313 29.8ZM21.7103 2.44L20.5457 4.06601L20.5561 4.07333L21.7103 2.44ZM23.9503 12.12L25.7569 12.9781V12.9781L23.9503 12.12ZM21.9503 14.8L23.2355 16.3324L23.2498 16.3204L23.2639 16.3082L21.9503 14.8ZM19.2303 16.36L19.8628 18.2574L19.8781 18.2523L19.8933 18.2469L19.2303 16.36ZM19.0703 16.96L17.2242 17.7292L17.2322 17.7486L17.2407 17.7677L19.0703 16.96ZM16.2303 11.84L17.4797 13.4017L17.4858 13.3968L16.2303 11.84ZM22.4707 29.6035C22.4529 29.5543 22.4128 29.4204 22.4231 29.2249C22.4341 29.0158 22.4997 28.8035 22.6143 28.62L26.0063 30.74C26.5437 29.8802 26.491 28.9546 26.2299 28.2365L22.4707 29.6035ZM22.5215 28.7856C22.6246 28.5792 22.8115 28.3472 23.098 28.1835C23.3715 28.0273 23.6184 28 23.7503 28V32C24.1489 32 24.6225 31.9194 25.0826 31.6565C25.5558 31.3861 25.8893 30.9941 26.0992 30.5744L22.5215 28.7856ZM23.7503 28H17.8703V32H23.7503V28ZM17.8703 28C18.0111 28 18.2994 28.0452 18.5768 28.2721C18.8364 28.4845 18.908 28.711 18.9174 28.7447L15.0633 29.8153C15.206 30.329 15.4909 30.9155 16.0438 31.3679C16.6145 31.8348 17.2762 32 17.8703 32V28ZM18.8563 28.5603L14.5363 17.3603L10.8043 18.7997L15.1243 29.9997L18.8563 28.5603ZM14.5086 17.2922C13.8972 15.8657 12.5224 15.52 11.5503 15.52V19.52C11.6513 19.52 11.5562 19.539 11.3759 19.4489C11.2788 19.4003 11.1672 19.3247 11.062 19.2143C10.9564 19.1034 10.881 18.9821 10.832 18.8678L14.5086 17.2922ZM11.5503 15.52H7.75031V19.52H11.5503V15.52ZM7.75031 15.52C7.20232 15.52 6.34422 15.6881 5.75031 16.48L8.95031 18.88C8.75327 19.1427 8.49976 19.3183 8.25309 19.417C8.02435 19.5085 7.83881 19.52 7.75031 19.52V15.52ZM5.56146 16.7856C5.43181 17.0449 5.27032 17.4547 5.27032 17.96H9.27032C9.27032 18.1404 9.24062 18.2841 9.21336 18.3794C9.18607 18.475 9.1558 18.5412 9.13917 18.5744L5.56146 16.7856ZM5.27032 17.96V29.04H9.27032V17.96H5.27032ZM5.27032 29.04C5.27032 28.9867 5.29613 28.5989 5.67159 28.2652C6.00214 27.9714 6.29625 28 6.19032 28V32C6.80437 32 7.63848 31.8687 8.32904 31.2548C9.06449 30.6011 9.27032 29.7333 9.27032 29.04H5.27032ZM6.19032 28H1.11031V32H6.19032V28ZM1.11031 28C1.07856 28 1.14291 27.9955 1.26465 28.0313C1.39254 28.0689 1.622 28.1633 1.84453 28.3858L-0.983902 31.2142C-0.286232 31.9119 0.606712 32 1.11031 32V28ZM1.99205 28.5506C2.14446 28.7411 2.21288 28.9225 2.24278 29.0347C2.25777 29.0909 2.26438 29.1342 2.26738 29.1604C2.26891 29.1738 2.26963 29.1839 2.26997 29.1904C2.27015 29.1936 2.27023 29.196 2.27027 29.1976C2.27029 29.1984 2.2703 29.199 2.27031 29.1994C2.27031 29.1996 2.27031 29.1998 2.27032 29.1999C2.27032 29.1999 2.27032 29.1999 2.27032 29.2C2.27032 29.2 2.27032 29.2 2.27032 29.2C2.27032 29.1999 2.27032 29.2001 2.27032 29.2C2.27032 29.1999 2.27032 29.2001 2.27032 29.2H-1.72968C-1.72968 29.6804 -1.64236 30.4107 -1.13142 31.0494L1.99205 28.5506ZM2.27032 29.2V1.08H-1.72968V29.2H2.27032ZM2.27032 1.08C2.27032 1.08716 2.27028 1.16551 2.23589 1.28801C2.20004 1.41574 2.12234 1.60565 1.96014 1.79827C1.58292 2.24621 1.10402 2.32 0.910316 2.32V-1.68C0.28994 -1.68 -0.508965 -1.47955 -1.09951 -0.778275C-1.63461 -0.142834 -1.72968 0.594219 -1.72968 1.08H2.27032ZM0.910316 2.32H13.3903V-1.68H0.910316V2.32ZM13.3903 2.32C16.7338 2.32 19.0381 2.9862 20.5458 4.06598L22.8749 0.814018C20.4358 -0.932869 17.1935 -1.68 13.3903 -1.68V2.32ZM20.5561 4.07333C21.9851 5.08319 22.7103 6.46484 22.7103 8.48H26.7103C26.7103 5.26849 25.4355 2.62348 22.8645 0.806667L20.5561 4.07333ZM22.7103 8.48C22.7103 9.58812 22.5051 10.5012 22.1438 11.2619L25.7569 12.9781C26.4089 11.6055 26.7103 10.0919 26.7103 8.48H22.7103ZM22.1438 11.2619C21.7458 12.0997 21.2406 12.7659 20.6367 13.2918L23.2639 16.3082C24.3134 15.3941 25.1415 14.2736 25.7569 12.9781L22.1438 11.2619ZM20.6651 13.2676C20.0169 13.8113 19.3197 14.2087 18.5673 14.4731L19.8933 18.2469C21.1142 17.8179 22.2304 17.1754 23.2355 16.3324L20.6651 13.2676ZM18.5979 14.4626C18.002 14.6613 17.3177 15.1551 17.0779 16.0547C16.8834 16.7839 17.0921 17.4124 17.2242 17.7292L20.9165 16.1908C20.9269 16.2158 20.9611 16.3024 20.9821 16.4384C21.0031 16.5753 21.0172 16.8063 20.9428 17.0853C20.8635 17.3828 20.7013 17.6648 20.4663 17.8892C20.2436 18.1017 20.015 18.2066 19.8628 18.2574L18.5979 14.4626ZM17.2407 17.7677L22.5207 29.7277L26.1799 28.1123L20.8999 16.1523L17.2407 17.7677ZM12.7503 14.8C14.5131 14.8 16.1893 14.434 17.4797 13.4017L14.9809 10.2783C14.6713 10.526 14.0275 10.8 12.7503 10.8V14.8ZM17.4858 13.3968C18.8704 12.2802 19.4703 10.6966 19.4703 8.96H15.4703C15.4703 9.73006 15.2436 10.0664 14.9748 10.2832L17.4858 13.3968ZM19.4703 8.96C19.4703 7.20188 18.8909 5.57634 17.4858 4.44317L14.9748 7.55682C15.223 7.75699 15.4703 8.10478 15.4703 8.96H19.4703ZM17.4858 4.44317C16.2139 3.41743 14.6369 3 12.9503 3V7C13.9837 7 14.5934 7.24923 14.9748 7.55682L17.4858 4.44317ZM12.9503 3H8.03031V7H12.9503V3ZM8.03031 3C7.52016 3 6.76404 3.10929 6.12672 3.67952C5.44707 4.28762 5.27032 5.08395 5.27032 5.68H9.27032C9.27032 5.82272 9.22022 6.27904 8.7939 6.66048C8.40993 7.00404 8.0338 7 8.03031 7V3ZM5.27032 5.68V12.12H9.27032V5.68H5.27032ZM5.27032 12.12C5.27032 12.5708 5.35519 13.2806 5.86646 13.9014C6.43894 14.5966 7.22195 14.8 7.83031 14.8V10.8C8.06535 10.8 8.56835 10.8901 8.95418 11.3586C9.11884 11.5585 9.19743 11.755 9.23396 11.8881C9.26923 12.0165 9.27032 12.1026 9.27032 12.12H5.27032ZM7.83031 14.8H12.7503V10.8H7.83031V14.8ZM31.0894 23.84L29.364 24.8514L29.3848 24.8869L29.407 24.9215L31.0894 23.84ZM32.9694 25.6L32.0032 27.3512L32.0387 27.3707L32.075 27.3889L32.9694 25.6ZM38.2894 25.6L39.1838 27.3889L39.1953 27.3831L39.2067 27.3772L38.2894 25.6ZM40.7694 23.52L39.3551 22.1058L39.3025 22.1585L39.2538 22.215L40.7694 23.52ZM41.0494 23.36V25.36H41.3739L41.6818 25.2574L41.0494 23.36ZM41.4894 23.48L40.5949 25.2689L40.6566 25.2997L40.7201 25.3262L41.4894 23.48ZM44.3694 24.68L45.1572 22.8417L45.1479 22.8377L45.1386 22.8338L44.3694 24.68ZM44.4894 25.48L42.9167 24.2444L42.8808 24.2901L42.8476 24.3379L44.4894 25.48ZM41.8094 28.4L40.5878 26.8164L41.8094 28.4ZM38.6894 29.96L39.1961 31.8947L39.2116 31.8907L39.227 31.8864L38.6894 29.96ZM29.3294 29.04L28.3557 30.787L29.3294 29.04ZM25.4494 25.28L23.7146 26.2753L23.7243 26.2923L23.7344 26.309L25.4494 25.28ZM25.4894 13.76L23.7579 12.759L23.7529 12.7677L25.4894 13.76ZM29.4094 9.8L30.4047 11.5347L29.4094 9.8ZM40.1694 9.76L39.1579 11.4854L39.1691 11.4919L39.1803 11.4983L40.1694 9.76ZM43.8094 13.56L42.0439 14.4997L42.0497 14.5107L42.0558 14.5217L43.8094 13.56ZM45.0894 20.28L46.9867 20.9125V20.9124L45.0894 20.28ZM44.4894 20.56V22.56H44.5662L44.6428 22.5541L44.4894 20.56ZM30.5294 20.72L28.9294 19.52V19.52L30.5294 20.72ZM38.4494 17.2L38.4393 19.2H38.4494V17.2ZM39.0094 17.12L40.1188 18.7841L40.2836 18.6742L40.4236 18.5342L39.0094 17.12ZM38.6494 14.6L36.8074 15.3793L36.82 15.4089L36.8335 15.4381L38.6494 14.6ZM37.2894 12.88L36.0229 14.4279L36.061 14.4591L36.1006 14.4883L37.2894 12.88ZM32.6494 12.8L33.6976 14.5033V14.5033L32.6494 12.8ZM31.0494 14.6L32.8382 15.4944L32.8444 15.482L32.8505 15.4695L31.0494 14.6ZM30.4894 17.16H28.4894V19.15L30.4793 19.16L30.4894 17.16ZM28.4094 21.2C28.4094 22.5054 28.7131 23.7411 29.364 24.8514L32.8148 22.8286C32.559 22.3922 32.4094 21.8679 32.4094 21.2H28.4094ZM29.407 24.9215C30.0656 25.9459 30.9378 26.7633 32.0032 27.3512L33.9355 23.8488C33.4543 23.5833 33.0732 23.2274 32.7717 22.7585L29.407 24.9215ZM32.075 27.3889C33.1803 27.9415 34.3847 28.2 35.6494 28.2V24.2C34.9407 24.2 34.3584 24.0585 33.8638 23.8111L32.075 27.3889ZM35.6494 28.2C36.8966 28.2 38.086 27.9378 39.1838 27.3889L37.3949 23.8111C36.8927 24.0622 36.3222 24.2 35.6494 24.2V28.2ZM39.2067 27.3772C40.3274 26.7988 41.3477 25.9135 42.2849 24.8251L39.2538 22.215C38.5378 23.0465 37.9047 23.5479 37.3721 23.8228L39.2067 27.3772ZM42.1836 24.9342C42.1575 24.9602 42.0674 25.0475 41.9117 25.1365C41.7562 25.2253 41.4569 25.36 41.0494 25.36V21.36C40.1306 21.36 39.5402 21.9208 39.3551 22.1058L42.1836 24.9342ZM41.6818 25.2574C41.3927 25.3538 41.1474 25.3575 41.0044 25.349C40.8571 25.3404 40.7482 25.3145 40.6931 25.2995C40.589 25.2711 40.5477 25.2452 40.5949 25.2689L42.3838 21.6911C42.2177 21.6081 41.9964 21.5089 41.7456 21.4405C41.5568 21.389 41.0272 21.2592 40.4169 21.4626L41.6818 25.2574ZM40.7201 25.3262L43.6001 26.5262L45.1386 22.8338L42.2586 21.6338L40.7201 25.3262ZM43.5815 26.5183C43.4768 26.4734 42.8299 26.1525 42.7015 25.2967C42.6466 24.9309 42.7244 24.6428 42.7873 24.4839C42.8478 24.3309 42.9125 24.2497 42.9167 24.2444L46.062 26.7156C46.308 26.4025 46.8029 25.6741 46.6572 24.7033C46.4889 23.5808 45.6353 23.0466 45.1572 22.8417L43.5815 26.5183ZM42.8476 24.3379C42.0812 25.4395 41.3227 26.2495 40.5878 26.8164L43.031 29.9836C44.1627 29.1105 45.1908 27.9739 46.1312 26.6221L42.8476 24.3379ZM40.5878 26.8164C39.8603 27.3776 39.053 27.7821 38.1518 28.0336L39.227 31.8864C40.619 31.4979 41.8918 30.8624 43.031 29.9836L40.5878 26.8164ZM38.1826 28.0253C37.2597 28.267 36.1678 28.4 34.8894 28.4V32.4C36.4376 32.4 37.879 32.2397 39.1961 31.8947L38.1826 28.0253ZM34.8894 28.4C33.1096 28.4 31.5985 28.0151 30.3031 27.293L28.3557 30.787C30.3136 31.8783 32.5092 32.4 34.8894 32.4V28.4ZM30.3031 27.293C28.9827 26.5571 27.9447 25.5516 27.1644 24.251L23.7344 26.309C24.874 28.2084 26.4227 29.7096 28.3557 30.787L30.3031 27.293ZM27.1841 24.2847C26.443 22.9931 26.0494 21.4898 26.0494 19.72H22.0494C22.0494 22.1102 22.5891 24.3136 23.7146 26.2753L27.1841 24.2847ZM26.0494 19.72C26.0494 17.71 26.468 16.0785 27.2259 14.7523L23.7529 12.7677C22.5907 14.8015 22.0494 17.1433 22.0494 19.72H26.0494ZM27.2208 14.761C28.0405 13.3433 29.0997 12.2835 30.4047 11.5347L28.414 8.06527C26.4657 9.18314 24.9116 10.7634 23.7579 12.759L27.2208 14.761ZM30.4047 11.5347C31.7167 10.782 33.1581 10.4 34.7694 10.4V6.4C32.4873 6.4 30.3554 6.95136 28.414 8.06527L30.4047 11.5347ZM34.7694 10.4C36.5197 10.4 37.9604 10.7834 39.1579 11.4854L41.1808 8.0346C39.2851 6.9233 37.1257 6.4 34.7694 6.4V10.4ZM39.1803 11.4983C40.3801 12.181 41.332 13.1623 42.0439 14.4997L45.5749 12.6203C44.5267 10.651 43.052 9.09904 41.1584 8.02167L39.1803 11.4983ZM42.0558 14.5217C42.7642 15.8135 43.1694 17.4775 43.1694 19.6H47.1694C47.1694 16.9758 46.6679 14.6132 45.563 12.5983L42.0558 14.5217ZM43.1694 19.6C43.1694 19.6434 43.1684 19.6781 43.167 19.7051C43.1656 19.7322 43.164 19.7488 43.1631 19.7563C43.1622 19.7641 43.1625 19.7586 43.1658 19.7423C43.1692 19.7263 43.1768 19.6933 43.192 19.6476L46.9867 20.9124C47.1404 20.4515 47.1694 19.9742 47.1694 19.6H43.1694ZM43.192 19.6475C43.3882 19.059 43.817 18.768 44.0536 18.6576C44.2602 18.5612 44.3914 18.5616 44.336 18.5659L44.6428 22.5541C44.934 22.5317 45.3386 22.4721 45.7451 22.2824C46.1817 22.0786 46.7372 21.661 46.9867 20.9125L43.192 19.6475ZM44.4894 18.56H30.8894V22.56H44.4894V18.56ZM30.8894 18.56C30.2414 18.56 29.4646 18.8063 28.9294 19.52L32.1294 21.92C31.9679 22.1353 31.7484 22.3135 31.4917 22.4276C31.2465 22.5366 31.0295 22.56 30.8894 22.56V18.56ZM28.9294 19.52C28.4753 20.1255 28.4094 20.7943 28.4094 21.2H32.4094C32.4094 21.2118 32.4089 21.288 32.3797 21.4051C32.3499 21.5242 32.2824 21.716 32.1294 21.92L28.9294 19.52ZM38.4494 19.2C38.6449 19.2 38.8688 19.1918 39.0922 19.1599C39.2502 19.1373 39.6903 19.0697 40.1188 18.7841L37.9 15.4559C38.1004 15.3223 38.2753 15.2632 38.3547 15.2393C38.4436 15.2127 38.5066 15.203 38.5265 15.2001C38.5633 15.1948 38.5472 15.2 38.4494 15.2V19.2ZM40.4236 18.5342C40.8113 18.1465 40.9695 17.7056 41.0397 17.4251C41.1128 17.1325 41.1294 16.8565 41.1294 16.64H37.1294C37.1294 16.6635 37.1259 16.5875 37.1591 16.4549C37.1892 16.3344 37.2874 16.0135 37.5952 15.7058L40.4236 18.5342ZM41.1294 16.64C41.1294 15.6447 40.889 14.6798 40.4653 13.7619L36.8335 15.4381C37.0498 15.9068 37.1294 16.302 37.1294 16.64H41.1294ZM40.4913 13.8207C40.0565 12.793 39.3755 11.9349 38.4781 11.2716L36.1006 14.4883C36.4299 14.7317 36.6556 15.0203 36.8074 15.3793L40.4913 13.8207ZM38.5558 11.3321C37.535 10.4969 36.2943 10.16 35.0094 10.16V14.16C35.5911 14.16 35.8704 14.3031 36.0229 14.4279L38.5558 11.3321ZM35.0094 10.16C33.7904 10.16 32.6352 10.4604 31.6012 11.0967L33.6976 14.5033C34.0502 14.2863 34.4684 14.16 35.0094 14.16V10.16ZM31.6012 11.0967C30.5641 11.7349 29.7782 12.6328 29.2483 13.7305L32.8505 15.4695C33.0672 15.0205 33.3479 14.7185 33.6976 14.5033L31.6012 11.0967ZM29.2605 13.7056C28.7289 14.7689 28.4894 15.9362 28.4894 17.16H32.4894C32.4894 16.4638 32.6232 15.9244 32.8382 15.4944L29.2605 13.7056ZM30.4793 19.16L38.4393 19.2L38.4594 15.2L30.4994 15.16L30.4793 19.16ZM60.3669 29.84L59.0865 31.3764L59.2218 31.4891L59.3746 31.5765L60.3669 29.84ZM59.9669 27.76L60.452 25.8197L59.9669 27.76ZM59.5669 27.92L58.2865 26.3836L58.2416 26.421L58.199 26.4609L59.5669 27.92ZM58.1269 29.12L59.2738 30.7585L59.3007 30.7397L59.3269 30.72L58.1269 29.12ZM56.2469 30.04L55.6144 28.1426L56.2469 30.04ZM49.4069 29.2L48.3308 30.8858L49.4069 29.2ZM46.4469 25.6L44.618 26.4095L44.623 26.4207L46.4469 25.6ZM46.5269 13.72L44.7211 12.8601L44.7153 12.8726L46.5269 13.72ZM49.7269 9.8L50.8738 11.4385L49.7269 9.8ZM59.3669 10.52L58.004 11.9838L58.0818 12.0562L58.1669 12.12L59.3669 10.52ZM59.8469 10.72L60.3319 12.6603L60.4636 12.6274L60.5897 12.577L59.8469 10.72ZM60.0469 14.32H62.0469V13.542L61.5212 12.9686L60.0469 14.32ZM58.2469 12.88L57.2294 14.6019L57.2749 14.6287L57.3217 14.6532L58.2469 12.88ZM53.8069 13.12L54.9453 14.7644L54.9516 14.76L54.9579 14.7556L53.8069 13.12ZM52.1669 15.4L50.3002 14.682L50.2921 14.7031L50.2845 14.7243L52.1669 15.4ZM52.1669 23.6L50.2845 24.2757L50.2921 24.2969L50.3002 24.318L52.1669 23.6ZM53.7669 25.88L52.5983 27.5031L52.6348 27.5293L52.6724 27.5539L53.7669 25.88ZM58.1269 26.04L59.1443 27.7619L58.1269 26.04ZM59.5269 24.72L61.2038 25.81L59.5269 24.72ZM60.9669 28C61.0288 28 61.099 28.008 61.1722 28.0275C61.2453 28.047 61.3084 28.0745 61.3592 28.1035L59.3746 31.5765C59.861 31.8544 60.4026 32 60.9669 32V28ZM61.6472 28.3036C62.1072 28.6868 62.1269 29.1527 62.1269 29.2H58.1269C58.1269 29.834 58.3066 30.7265 59.0865 31.3764L61.6472 28.3036ZM62.1269 29.2V28.08H58.1269V29.2H62.1269ZM62.1269 28.08C62.1269 27.8342 62.0979 27.4099 61.8757 26.9656C61.613 26.4401 61.1238 25.9877 60.452 25.8197L59.4818 29.7003C58.9166 29.559 58.5074 29.1733 58.298 28.7544C58.1292 28.4168 58.1269 28.1392 58.1269 28.08H62.1269ZM60.452 25.8197C59.3454 25.5431 58.526 26.184 58.2865 26.3836L60.8472 29.4564C60.8319 29.4692 60.7242 29.5592 60.5297 29.637C60.325 29.7188 59.9452 29.8161 59.4818 29.7003L60.452 25.8197ZM58.199 26.4609C57.8324 26.8046 57.4096 27.1579 56.9269 27.52L59.3269 30.72C59.9108 30.2821 60.448 29.8354 60.9348 29.3791L58.199 26.4609ZM56.9799 27.4815C56.6284 27.7276 56.1809 27.9538 55.6144 28.1426L56.8793 31.9374C57.7529 31.6462 58.5587 31.259 59.2738 30.7585L56.9799 27.4815ZM55.6144 28.1426C55.1441 28.2994 54.5262 28.4 53.7269 28.4V32.4C54.8476 32.4 55.9096 32.2606 56.8793 31.9374L55.6144 28.1426ZM53.7269 28.4C52.4443 28.4 51.3849 28.0899 50.4829 27.5142L48.3308 30.8858C49.9355 31.9101 51.7561 32.4 53.7269 32.4V28.4ZM50.4829 27.5142C49.6131 26.959 48.8602 26.0893 48.2707 24.7793L44.623 26.4207C45.4735 28.3107 46.694 29.841 48.3308 30.8858L50.4829 27.5142ZM48.2757 24.7905C47.7007 23.4913 47.3669 21.7732 47.3669 19.56H43.3669C43.3669 22.1468 43.7531 24.4554 44.618 26.4095L48.2757 24.7905ZM47.3669 19.56C47.3669 17.5477 47.7141 15.9022 48.3385 14.5674L44.7153 12.8726C43.7929 14.8445 43.3669 17.0923 43.3669 19.56H47.3669ZM48.3326 14.5799C49.0056 13.1666 49.8622 12.1466 50.8738 11.4385L48.58 8.16154C46.9249 9.32005 45.6482 10.9134 44.7212 12.8601L48.3326 14.5799ZM50.8738 11.4385C51.8772 10.7361 52.9447 10.4 54.1269 10.4V6.4C52.109 6.4 50.2433 6.99722 48.58 8.16154L50.8738 11.4385ZM54.1269 10.4C54.9775 10.4 55.6535 10.538 56.1934 10.7644L57.7403 7.07561C56.6269 6.60868 55.4096 6.4 54.1269 6.4V10.4ZM56.1934 10.7644C56.7677 11.0052 57.373 11.3963 58.004 11.9838L60.7297 9.05621C59.814 8.20369 58.8194 7.52811 57.7403 7.07561L56.1934 10.7644ZM58.1669 12.12C58.3433 12.2523 58.5856 12.4145 58.8776 12.5362C59.1416 12.6462 59.6823 12.8227 60.3319 12.6603L59.3618 8.77971C59.9048 8.64398 60.3121 8.80051 60.4161 8.84385C60.5481 8.89886 60.6037 8.94765 60.5669 8.92L58.1669 12.12ZM60.5897 12.577C61.3141 12.2872 61.6923 11.7132 61.8636 11.268C62.021 10.8585 62.0469 10.4664 62.0469 10.2H58.0469C58.0469 10.1991 58.0469 10.1915 58.0477 10.178C58.0486 10.1647 58.0504 10.1431 58.0545 10.1147C58.062 10.0619 58.0807 9.96064 58.1302 9.83204C58.2347 9.56018 58.513 9.09947 59.1041 8.86304L60.5897 12.577ZM62.0469 10.2V1.04H58.0469V10.2H62.0469ZM62.0469 1.04C62.0469 1.05406 62.0489 1.43816 61.7017 1.82873C61.3146 2.26418 60.8468 2.32 60.6869 2.32V-1.68C60.1002 -1.68 59.3125 -1.50418 58.7121 -0.828728C58.1516 -0.19817 58.0469 0.545937 58.0469 1.04H62.0469ZM60.6869 2.32H65.5669V-1.68H60.6869V2.32ZM65.5669 2.32C65.3732 2.32 64.8943 2.24621 64.5171 1.79827C64.3548 1.60565 64.2772 1.41574 64.2413 1.28801C64.2069 1.16551 64.2069 1.08716 64.2069 1.08H68.2069C68.2069 0.594219 68.1118 -0.14283 67.5767 -0.778271C66.9862 -1.47955 66.1873 -1.68 65.5669 -1.68V2.32ZM64.2069 1.08V29.16H68.2069V1.08H64.2069ZM64.2069 29.16C64.2069 29.1586 64.2069 29.1388 64.2115 29.1041C64.216 29.0694 64.2259 29.0139 64.2479 28.9435C64.2932 28.7986 64.392 28.5865 64.5927 28.3858L67.4211 31.2142C68.0927 30.5426 68.2069 29.6968 68.2069 29.16H64.2069ZM64.5927 28.3858C64.8358 28.1426 65.0826 28.0532 65.1916 28.023C65.299 27.9931 65.3443 28 65.2869 28V32C65.7618 32 66.7013 31.934 67.4211 31.2142L64.5927 28.3858ZM65.2869 28H60.9669V32H65.2869V28ZM61.5212 12.9686C60.8158 12.199 60.0365 11.5579 59.172 11.1068L57.3217 14.6532C57.6839 14.8421 58.1046 15.161 58.5726 15.6714L61.5212 12.9686ZM59.2643 11.1581C58.3297 10.6059 57.2889 10.36 56.2069 10.36V14.36C56.6715 14.36 56.9907 14.4608 57.2294 14.6019L59.2643 11.1581ZM56.2069 10.36C54.9146 10.36 53.7127 10.7407 52.6559 11.4844L54.9579 14.7556C55.3411 14.486 55.7391 14.36 56.2069 14.36V10.36ZM52.6685 11.4756C51.5538 12.2473 50.7987 13.3858 50.3002 14.682L54.0336 16.118C54.335 15.3342 54.6733 14.9527 54.9453 14.7644L52.6685 11.4756ZM50.2845 14.7243C49.8039 16.0631 49.6069 17.6769 49.6069 19.48H53.6069C53.6069 17.9231 53.7832 16.8169 54.0493 16.0757L50.2845 14.7243ZM49.6069 19.48C49.6069 21.3055 49.8029 22.9343 50.2845 24.2757L54.0493 22.9243C53.7841 22.1857 53.6069 21.0679 53.6069 19.48H49.6069ZM50.3002 24.318C50.7915 25.5953 51.5218 26.728 52.5983 27.5031L54.9355 24.2569C54.6787 24.072 54.3423 23.6847 54.0336 22.882L50.3002 24.318ZM52.6724 27.5539C53.7117 28.2335 54.8835 28.56 56.1269 28.56V24.56C55.6102 24.56 55.2087 24.4331 54.8614 24.2061L52.6724 27.5539ZM56.1269 28.56C57.1962 28.56 58.2205 28.3078 59.1443 27.7619L57.1094 24.3181C56.8599 24.4656 56.5509 24.56 56.1269 24.56V28.56ZM59.1443 27.7619C59.9772 27.2697 60.6771 26.6202 61.2038 25.81L57.85 23.63C57.6833 23.8865 57.4498 24.117 57.1094 24.3181L59.1443 27.7619ZM61.2038 25.81C61.7428 24.9807 62.0469 24.0463 62.0469 23.04H58.0469C58.0469 23.2071 58.0043 23.3926 57.85 23.63L61.2038 25.81ZM62.0469 23.04V14.32H58.0469V23.04H62.0469ZM81.3019 9L79.7401 10.2494L79.8093 10.3359L79.8877 10.4142L81.3019 9ZM67.1819 9L65.7677 7.58578L65.6893 7.66411L65.6201 7.75061L67.1819 9ZM72.4619 1.76L71.0864 0.308094L72.4619 1.76ZM81.6619 1.16H79.6619V1.17538L79.6621 1.19077L81.6619 1.16ZM81.7019 3.76H83.7019V3.74461L83.7016 3.72923L81.7019 3.76ZM81.5419 4.24L79.9801 2.9906L79.8961 3.09565L79.8269 3.21101L81.5419 4.24ZM77.5019 5.12L79.007 6.43701L79.0267 6.4145L79.0457 6.39141L77.5019 5.12ZM90.4219 29.8L91.7023 31.3364L91.7719 31.2784L91.8361 31.2142L90.4219 29.8ZM84.6619 29.8L83.1001 31.0494L83.1693 31.1359L83.2477 31.2142L84.6619 29.8ZM84.6219 6L82.9578 7.1094L83.017 7.1983L83.0854 7.28037L84.6219 6ZM80.7419 10.8C80.72 10.8 80.592 10.7988 80.4092 10.7335C80.2103 10.6624 79.9538 10.5165 79.7401 10.2494L82.8636 7.75061C82.2049 6.92717 81.2721 6.8 80.7419 6.8V10.8ZM79.8877 10.4142C79.7859 10.3125 79.6814 10.1708 79.6057 9.98923C79.5299 9.80724 79.5019 9.6302 79.5019 9.48H83.5019C83.5019 8.75687 83.2202 8.08991 82.7161 7.58578L79.8877 10.4142ZM79.5019 9.48V12.44H83.5019V9.48H79.5019ZM79.5019 12.44C79.5019 12.2622 79.5638 11.7828 80.0086 11.3903C80.4057 11.0399 80.7975 11.04 80.8219 11.04V15.04C81.2995 15.04 82.0314 14.9401 82.6551 14.3897C83.3266 13.7972 83.5019 13.0178 83.5019 12.44H79.5019ZM80.8219 11.04H77.5019V15.04H80.8219V11.04ZM77.5019 11.04C77.0085 11.04 76.2858 11.1844 75.722 11.8047C75.191 12.3887 75.1019 13.0697 75.1019 13.48H79.1019C79.1019 13.597 79.0794 14.058 78.6818 14.4953C78.2513 14.9689 77.7286 15.04 77.5019 15.04V11.04ZM75.1019 13.48V29.24H79.1019V13.48H75.1019ZM75.1019 29.24C75.1019 29.2328 75.1019 29.1545 75.1363 29.032C75.1721 28.9043 75.2498 28.7143 75.4121 28.5217C75.7893 28.0738 76.2682 28 76.4619 28V32C77.0823 32 77.8811 31.7995 78.4717 31.0983C79.0068 30.4628 79.1019 29.7258 79.1019 29.24H75.1019ZM76.4619 28H71.5419V32H76.4619V28ZM71.5419 28C71.7196 28 72.199 28.0619 72.5916 28.5068C72.9419 28.9039 72.9419 29.2957 72.9419 29.32H68.9419C68.9419 29.7977 69.0418 30.5295 69.5922 31.1532C70.1847 31.8248 70.9641 32 71.5419 32V28ZM72.9419 29.32V13.4H68.9419V29.32H72.9419ZM72.9419 13.4C72.9419 13.0259 72.8639 12.3718 72.3567 11.8013C71.8096 11.1858 71.1019 11.04 70.6219 11.04V15.04C70.3552 15.04 69.8075 14.9542 69.3671 14.4587C68.9666 14.0082 68.9419 13.5341 68.9419 13.4H72.9419ZM70.6219 11.04H67.7419V15.04H70.6219V11.04ZM67.7419 11.04C67.7542 11.04 67.8366 11.0406 67.9622 11.0755C68.0927 11.1117 68.286 11.19 68.4822 11.3536C68.9403 11.7353 69.0219 12.2261 69.0219 12.44H65.0219C65.0219 13.0539 65.2235 13.8447 65.9215 14.4264C66.5497 14.9499 67.2734 15.04 67.7419 15.04V11.04ZM69.0219 12.44V9.48H65.0219V12.44H69.0219ZM69.0219 9.48C69.0219 9.57884 69.0074 9.70797 68.9592 9.85245C68.9104 9.99911 68.8358 10.1342 68.7436 10.2494L65.6201 7.75061C65.2028 8.27227 65.0219 8.88432 65.0219 9.48H69.0219ZM68.5961 10.4142C68.2221 10.7882 67.8235 10.8 67.7819 10.8V6.8C67.2069 6.8 66.4084 6.94509 65.7677 7.58578L68.5961 10.4142ZM67.7819 10.8H70.4619V6.8H67.7819V10.8ZM70.4619 10.8C71.0633 10.8 71.8312 10.5899 72.3836 9.89939C72.8679 9.29405 72.9419 8.61369 72.9419 8.2H68.9419C68.9419 8.18631 68.9359 7.80595 69.2601 7.40061C69.6526 6.91005 70.1805 6.8 70.4619 6.8V10.8ZM72.9419 8.2V5.76H68.9419V8.2H72.9419ZM72.9419 5.76C72.9419 4.47129 73.3089 3.71256 73.8374 3.2119L71.0864 0.308094C69.5882 1.72744 68.9419 3.63537 68.9419 5.76H72.9419ZM73.8374 3.2119C74.3732 2.70426 75.2461 2.32 76.7419 2.32V-1.68C74.5577 -1.68 72.5772 -1.10427 71.0864 0.308094L73.8374 3.2119ZM76.7419 2.32H80.7819V-1.68H76.7419V2.32ZM80.7819 2.32C80.7757 2.32 80.6913 2.31998 80.5605 2.27835C80.4211 2.23399 80.2362 2.14402 80.0609 1.97671C79.6804 1.61345 79.6619 1.21262 79.6619 1.16H83.6619C83.6619 0.547382 83.4967 -0.273457 82.8228 -0.91671C82.1663 -1.54337 81.3609 -1.68 80.7819 -1.68V2.32ZM79.6621 1.19077L79.7021 3.79076L83.7016 3.72923L83.6616 1.12923L79.6621 1.19077ZM79.7019 3.76C79.7019 3.66115 79.7164 3.53202 79.7645 3.38754C79.8134 3.24089 79.888 3.10584 79.9801 2.9906L83.1036 5.48939C83.5209 4.96773 83.7019 4.35569 83.7019 3.76H79.7019ZM79.8269 3.21101C80.0034 2.91678 80.2625 2.69732 80.5443 2.56926C80.8006 2.45274 81.0112 2.44 81.1019 2.44V6.44C81.7255 6.44 82.6869 6.21896 83.2569 5.26899L79.8269 3.21101ZM81.1019 2.44H78.9419V6.44H81.1019V2.44ZM78.9419 2.44C77.7569 2.44 76.7108 2.93448 75.958 3.84858L79.0457 6.39141C79.0571 6.37761 79.0587 6.37835 79.0483 6.38662C79.0374 6.39529 79.0195 6.40733 78.9959 6.4185C78.9722 6.42966 78.9515 6.43587 78.9376 6.43882C78.9244 6.44163 78.9244 6.44 78.9419 6.44V2.44ZM75.9967 3.80299C75.2373 4.67092 74.9419 5.73486 74.9419 6.8H78.9419C78.9419 6.63169 78.9646 6.53648 78.9792 6.49245C78.9921 6.45383 79.0025 6.44223 79.007 6.43701L75.9967 3.80299ZM74.9419 6.8V8.36H78.9419V6.8H74.9419ZM74.9419 8.36C74.9419 8.86188 75.0868 9.59264 75.7104 10.1643C76.3011 10.7058 76.9946 10.8 77.4219 10.8V6.8C77.5291 6.8 77.9826 6.82089 78.4133 7.21569C78.877 7.64069 78.9419 8.15145 78.9419 8.36H74.9419ZM77.4219 10.8H80.7419V6.8H77.4219V10.8ZM88.6619 29.04C88.6619 29.1328 88.6342 28.7593 89.0077 28.3858L91.8361 31.2142C92.5296 30.5207 92.6619 29.6406 92.6619 29.04H88.6619ZM89.1415 28.2636C89.3714 28.0719 89.5766 28.0168 89.6286 28.0044C89.6863 27.9907 89.6815 28 89.5819 28V32C90.0777 32 90.9746 31.9428 91.7023 31.3364L89.1415 28.2636ZM89.5819 28H85.3819V32H89.5819V28ZM85.3819 28C85.3245 28 85.3697 27.9931 85.4772 28.023C85.5862 28.0532 85.8329 28.1426 86.0761 28.3858L83.2477 31.2142C83.9675 31.934 84.9069 32 85.3819 32V28ZM86.2236 28.5506C86.3938 28.7634 86.4584 28.9598 86.4822 29.0549C86.5058 29.1495 86.5019 29.1938 86.5019 29.16H82.5019C82.5019 29.6124 82.5684 30.3847 83.1001 31.0494L86.2236 28.5506ZM86.5019 29.16V9.56H82.5019V29.16H86.5019ZM86.5019 9.56C86.5019 9.56716 86.5018 9.64551 86.4675 9.76801C86.4316 9.89574 86.3539 10.0857 86.1917 10.2783C85.8145 10.7262 85.3356 10.8 85.1419 10.8V6.8C84.5215 6.8 83.7226 7.00045 83.132 7.70173C82.597 8.33717 82.5019 9.07422 82.5019 9.56H86.5019ZM85.1419 10.8H90.0619V6.8H85.1419V10.8ZM90.0619 10.8C89.8841 10.8 89.4047 10.7381 89.0122 10.2932C88.6618 9.89614 88.6619 9.50433 88.6619 9.48H92.6619C92.6619 9.00234 92.5619 8.27052 92.0116 7.64676C91.419 6.97523 90.6396 6.8 90.0619 6.8V10.8ZM88.6619 9.48V29.04H92.6619V9.48H88.6619ZM88.7419 5.24C88.7419 5.22385 88.7534 4.85548 89.1131 4.52248C89.4436 4.21638 89.7502 4.24 89.6619 4.24V8.24C90.2936 8.24 91.1401 8.09695 91.8307 7.45752C92.5503 6.79118 92.7419 5.92281 92.7419 5.24H88.7419ZM89.6619 4.24H85.3419V8.24H89.6619V4.24ZM85.3419 4.24C85.3097 4.24 85.3905 4.23469 85.5343 4.28263C85.6912 4.33491 85.9403 4.45805 86.1583 4.71962L83.0854 7.28037C83.7903 8.12619 84.7857 8.24 85.3419 8.24V4.24ZM86.286 4.8906C86.3896 5.04605 86.4319 5.18057 86.4487 5.25192C86.4651 5.32158 86.4619 5.3503 86.4619 5.32H82.4619C82.4619 5.81481 82.545 6.49026 82.9578 7.1094L86.286 4.8906ZM86.4619 5.32V1.12H82.4619V5.32H86.4619ZM86.4619 1.12C86.4619 1.12181 86.4624 1.19601 86.4286 1.3152C86.3933 1.43989 86.3164 1.62635 86.1558 1.8153C85.7834 2.25342 85.3163 2.32 85.1419 2.32V-1.68C84.5142 -1.68 83.7071 -1.48009 83.108 -0.775299C82.5618 -0.132744 82.4619 0.61729 82.4619 1.12H86.4619ZM85.1419 2.32H90.1019V-1.68H85.1419V2.32ZM90.1019 2.32C89.9082 2.32 89.4293 2.24621 89.0521 1.79827C88.8898 1.60566 88.8122 1.41574 88.7763 1.28801C88.7419 1.16551 88.7419 1.08716 88.7419 1.08H92.7419C92.7419 0.594219 92.6468 -0.142834 92.1117 -0.778275C91.5211 -1.47955 90.7222 -1.68 90.1019 -1.68V2.32ZM88.7419 1.08V5.24H92.7419V1.08H88.7419ZM99.1016 11.76L97.9922 13.4241V13.4241L99.1016 11.76ZM99.4616 11.6L98.105 10.1304L98.0756 10.1575L98.0474 10.1858L99.4616 11.6ZM101.542 9.92L102.68 11.5644L101.542 9.92ZM103.742 8.8L103.09 6.90925L103.742 8.8ZM110.822 10.12L109.391 11.5175L109.399 11.5259L109.407 11.5342L110.822 10.12ZM106.542 29.84L104.98 31.0894L105.119 31.2629L105.292 31.4017L106.542 29.84ZM105.622 13.6L104.17 14.9755L104.207 15.0147L104.246 15.0519L105.622 13.6ZM101.902 13.12L101.177 11.256L101.902 13.12ZM100.502 13.96L101.716 15.5487L101.745 15.5268L101.773 15.5039L100.502 13.96ZM99.0616 15.32L97.5785 13.9782L97.0616 14.5495V15.32H99.0616ZM93.7416 28C93.7462 28 94.121 27.9994 94.4909 28.3517C94.879 28.7214 94.9016 29.1328 94.9016 29.2H90.9016C90.9016 29.8005 91.0641 30.6119 91.7323 31.2483C92.3822 31.8672 93.177 32 93.7416 32V28ZM94.9016 29.2V9.56H90.9016V29.2H94.9016ZM94.9016 9.56C94.9016 9.56716 94.9015 9.64551 94.8671 9.76801C94.8313 9.89574 94.7536 10.0857 94.5914 10.2783C94.2142 10.7262 93.7353 10.8 93.5416 10.8V6.8C92.9212 6.8 92.1223 7.00045 91.5318 7.70173C90.9966 8.33717 90.9016 9.07422 90.9016 9.56H94.9016ZM93.5416 10.8H98.3816V6.8H93.5416V10.8ZM98.3816 10.8C98.2038 10.8 97.7244 10.7381 97.3319 10.2932C96.9815 9.89614 96.9816 9.50433 96.9816 9.48H100.982C100.982 9.00234 100.882 8.27052 100.331 7.64676C99.7387 6.97523 98.9593 6.8 98.3816 6.8V10.8ZM96.9816 9.48V11.44H100.982V9.48H96.9816ZM96.9816 11.44C96.9816 11.8191 97.0643 12.8055 97.9922 13.4241L100.211 10.0959C100.581 10.3425 100.785 10.673 100.884 10.9378C100.975 11.1798 100.982 11.3698 100.982 11.44H96.9816ZM97.9922 13.4241C98.8006 13.963 99.6316 13.7797 100.064 13.5876C100.454 13.4142 100.729 13.1608 100.876 13.0142L98.0474 10.1858C98.0538 10.1793 98.084 10.1495 98.137 10.1091C98.1866 10.0713 98.2886 9.99935 98.4393 9.93237C98.5886 9.866 98.8412 9.78 99.1691 9.78C99.5222 9.78 99.8888 9.88111 100.211 10.0959L97.9922 13.4241ZM100.818 13.0696C101.451 12.4856 102.072 11.9855 102.68 11.5644L100.403 8.27562C99.6247 8.81453 98.8589 9.43444 98.105 10.1304L100.818 13.0696ZM102.68 11.5644C103.228 11.1851 103.798 10.8961 104.394 10.6907L103.09 6.90925C102.138 7.23727 101.242 7.6949 100.403 8.27562L102.68 11.5644ZM104.394 10.6907C104.942 10.5017 105.547 10.4 106.222 10.4V6.4C105.137 6.4 104.088 6.56496 103.09 6.90925L104.394 10.6907ZM106.222 10.4C107.753 10.4 108.726 10.8364 109.391 11.5175L112.252 8.72252C110.678 7.11029 108.583 6.4 106.222 6.4V10.4ZM109.407 11.5342C110.111 12.2376 110.542 13.2255 110.542 14.72H114.542C114.542 12.3745 113.826 10.2957 112.236 8.70579L109.407 11.5342ZM110.542 14.72V29.04H114.542V14.72H110.542ZM110.542 29.04C110.542 29.0393 110.541 28.9573 110.584 28.8275C110.631 28.6881 110.723 28.5101 110.887 28.3458C111.052 28.1815 111.23 28.0891 111.369 28.0426C111.499 27.9994 111.581 28 111.582 28V32C112.21 32 113.048 31.8416 113.716 31.1742C114.383 30.5069 114.542 29.6683 114.542 29.04H110.542ZM111.582 28H107.142V32H111.582V28ZM107.142 28C107.141 28 107.142 28 107.142 28C107.141 28 107.142 28 107.142 28C107.142 28 107.142 28 107.142 28C107.142 28 107.142 28 107.142 28C107.142 28 107.142 28 107.142 28C107.143 28 107.143 28 107.144 28C107.146 28.0001 107.148 28.0002 107.151 28.0003C107.158 28.0007 107.168 28.0014 107.181 28.0029C107.207 28.0059 107.251 28.0125 107.307 28.0275C107.419 28.0574 107.6 28.1258 107.791 28.2783L105.292 31.4017C105.931 31.9127 106.661 32 107.142 32V28ZM108.103 28.5906C108.273 28.8034 108.338 28.9998 108.362 29.0949C108.385 29.1895 108.382 29.2338 108.382 29.2H104.382C104.382 29.6524 104.448 30.4247 104.98 31.0894L108.103 28.5906ZM108.382 29.2V15.68H104.382V29.2H108.382ZM108.382 15.68C108.382 14.3969 108.012 13.1101 106.997 12.1481L104.246 15.0519C104.262 15.0668 104.286 15.0932 104.313 15.1664C104.343 15.2494 104.382 15.4092 104.382 15.68H108.382ZM107.073 12.2245C106.091 11.1875 104.758 10.84 103.462 10.84V14.84C103.771 14.84 103.958 14.8815 104.058 14.9166C104.147 14.9479 104.168 14.9737 104.17 14.9755L107.073 12.2245ZM103.462 10.84C102.675 10.84 101.907 10.9719 101.177 11.256L102.626 14.984C102.856 14.8948 103.128 14.84 103.462 14.84V10.84ZM101.177 11.256C100.473 11.5296 99.8249 11.9264 99.2301 12.4161L101.773 15.5039C102.085 15.247 102.37 15.0837 102.626 14.984L101.177 11.256ZM99.2867 12.3713C98.7114 12.8112 98.1424 13.3549 97.5785 13.9782L100.545 16.6618C100.994 16.1651 101.385 15.8022 101.716 15.5487L99.2867 12.3713ZM97.0616 15.32V29.08H101.062V15.32H97.0616ZM97.0616 29.08C97.0616 29.0105 97.0925 28.6116 97.4764 28.272C97.8136 27.9738 98.1162 28 98.0216 28V32C98.6203 32 99.4429 31.8729 100.127 31.268C100.857 30.6217 101.062 29.7629 101.062 29.08H97.0616ZM98.0216 28H93.7416V32H98.0216V28Z" fill="#B12929" mask="url(#path-1-outside-1_625_437)"/>
<path d="M24.3503 28.92L26.2299 28.2365L26.207 28.1736L26.1799 28.1123L24.3503 28.92ZM24.3103 29.68L22.6143 28.62L22.5639 28.7006L22.5215 28.7856L24.3103 29.68ZM16.9903 29.28L18.9174 28.7447L18.8913 28.651L18.8563 28.5603L16.9903 29.28ZM12.6703 18.08L14.5363 17.3603L14.5231 17.326L14.5086 17.2922L12.6703 18.08ZM7.35031 17.68L5.75031 16.48L5.64211 16.6243L5.56146 16.7856L7.35031 17.68ZM0.430313 29.8L-1.13142 31.0494L-1.06223 31.1359L-0.983902 31.2142L0.430313 29.8ZM21.7103 2.44L20.5457 4.06601L20.5561 4.07333L21.7103 2.44ZM23.9503 12.12L25.7569 12.9781V12.9781L23.9503 12.12ZM21.9503 14.8L23.2355 16.3324L23.2498 16.3204L23.2639 16.3082L21.9503 14.8ZM19.2303 16.36L19.8628 18.2574L19.8781 18.2523L19.8933 18.2469L19.2303 16.36ZM19.0703 16.96L17.2242 17.7292L17.2322 17.7486L17.2407 17.7677L19.0703 16.96ZM16.2303 11.84L17.4797 13.4017L17.4858 13.3968L16.2303 11.84ZM22.4707 29.6035C22.4529 29.5543 22.4128 29.4204 22.4231 29.2249C22.4341 29.0158 22.4997 28.8035 22.6143 28.62L26.0063 30.74C26.5437 29.8802 26.491 28.9546 26.2299 28.2365L22.4707 29.6035ZM22.5215 28.7856C22.6246 28.5792 22.8115 28.3472 23.098 28.1835C23.3715 28.0273 23.6184 28 23.7503 28V32C24.1489 32 24.6225 31.9194 25.0826 31.6565C25.5558 31.3861 25.8893 30.9941 26.0992 30.5744L22.5215 28.7856ZM23.7503 28H17.8703V32H23.7503V28ZM17.8703 28C18.0111 28 18.2994 28.0452 18.5768 28.2721C18.8364 28.4845 18.908 28.711 18.9174 28.7447L15.0633 29.8153C15.206 30.329 15.4909 30.9155 16.0438 31.3679C16.6145 31.8348 17.2762 32 17.8703 32V28ZM18.8563 28.5603L14.5363 17.3603L10.8043 18.7997L15.1243 29.9997L18.8563 28.5603ZM14.5086 17.2922C13.8972 15.8657 12.5224 15.52 11.5503 15.52V19.52C11.6513 19.52 11.5562 19.539 11.3759 19.4489C11.2788 19.4003 11.1672 19.3247 11.062 19.2143C10.9564 19.1034 10.881 18.9821 10.832 18.8678L14.5086 17.2922ZM11.5503 15.52H7.75031V19.52H11.5503V15.52ZM7.75031 15.52C7.20232 15.52 6.34422 15.6881 5.75031 16.48L8.95031 18.88C8.75327 19.1427 8.49976 19.3183 8.25309 19.417C8.02435 19.5085 7.83881 19.52 7.75031 19.52V15.52ZM5.56146 16.7856C5.43181 17.0449 5.27032 17.4547 5.27032 17.96H9.27032C9.27032 18.1404 9.24062 18.2841 9.21336 18.3794C9.18607 18.475 9.1558 18.5412 9.13917 18.5744L5.56146 16.7856ZM5.27032 17.96V29.04H9.27032V17.96H5.27032ZM5.27032 29.04C5.27032 28.9867 5.29613 28.5989 5.67159 28.2652C6.00214 27.9714 6.29625 28 6.19032 28V32C6.80437 32 7.63848 31.8687 8.32904 31.2548C9.06449 30.6011 9.27032 29.7333 9.27032 29.04H5.27032ZM6.19032 28H1.11031V32H6.19032V28ZM1.11031 28C1.07856 28 1.14291 27.9955 1.26465 28.0313C1.39254 28.0689 1.622 28.1633 1.84453 28.3858L-0.983902 31.2142C-0.286232 31.9119 0.606712 32 1.11031 32V28ZM1.99205 28.5506C2.14446 28.7411 2.21288 28.9225 2.24278 29.0347C2.25777 29.0909 2.26438 29.1342 2.26738 29.1604C2.26891 29.1738 2.26963 29.1839 2.26997 29.1904C2.27015 29.1936 2.27023 29.196 2.27027 29.1976C2.27029 29.1984 2.2703 29.199 2.27031 29.1994C2.27031 29.1996 2.27031 29.1998 2.27032 29.1999C2.27032 29.1999 2.27032 29.1999 2.27032 29.2C2.27032 29.2 2.27032 29.2 2.27032 29.2C2.27032 29.1999 2.27032 29.2001 2.27032 29.2C2.27032 29.1999 2.27032 29.2001 2.27032 29.2H-1.72968C-1.72968 29.6804 -1.64236 30.4107 -1.13142 31.0494L1.99205 28.5506ZM2.27032 29.2V1.08H-1.72968V29.2H2.27032ZM2.27032 1.08C2.27032 1.08716 2.27028 1.16551 2.23589 1.28801C2.20004 1.41574 2.12234 1.60565 1.96014 1.79827C1.58292 2.24621 1.10402 2.32 0.910316 2.32V-1.68C0.28994 -1.68 -0.508965 -1.47955 -1.09951 -0.778275C-1.63461 -0.142834 -1.72968 0.594219 -1.72968 1.08H2.27032ZM0.910316 2.32H13.3903V-1.68H0.910316V2.32ZM13.3903 2.32C16.7338 2.32 19.0381 2.9862 20.5458 4.06598L22.8749 0.814018C20.4358 -0.932869 17.1935 -1.68 13.3903 -1.68V2.32ZM20.5561 4.07333C21.9851 5.08319 22.7103 6.46484 22.7103 8.48H26.7103C26.7103 5.26849 25.4355 2.62348 22.8645 0.806667L20.5561 4.07333ZM22.7103 8.48C22.7103 9.58812 22.5051 10.5012 22.1438 11.2619L25.7569 12.9781C26.4089 11.6055 26.7103 10.0919 26.7103 8.48H22.7103ZM22.1438 11.2619C21.7458 12.0997 21.2406 12.7659 20.6367 13.2918L23.2639 16.3082C24.3134 15.3941 25.1415 14.2736 25.7569 12.9781L22.1438 11.2619ZM20.6651 13.2676C20.0169 13.8113 19.3197 14.2087 18.5673 14.4731L19.8933 18.2469C21.1142 17.8179 22.2304 17.1754 23.2355 16.3324L20.6651 13.2676ZM18.5979 14.4626C18.002 14.6613 17.3177 15.1551 17.0779 16.0547C16.8834 16.7839 17.0921 17.4124 17.2242 17.7292L20.9165 16.1908C20.9269 16.2158 20.9611 16.3024 20.9821 16.4384C21.0031 16.5753 21.0172 16.8063 20.9428 17.0853C20.8635 17.3828 20.7013 17.6648 20.4663 17.8892C20.2436 18.1017 20.015 18.2066 19.8628 18.2574L18.5979 14.4626ZM17.2407 17.7677L22.5207 29.7277L26.1799 28.1123L20.8999 16.1523L17.2407 17.7677ZM12.7503 14.8C14.5131 14.8 16.1893 14.434 17.4797 13.4017L14.9809 10.2783C14.6713 10.526 14.0275 10.8 12.7503 10.8V14.8ZM17.4858 13.3968C18.8704 12.2802 19.4703 10.6966 19.4703 8.96H15.4703C15.4703 9.73006 15.2436 10.0664 14.9748 10.2832L17.4858 13.3968ZM19.4703 8.96C19.4703 7.20188 18.8909 5.57634 17.4858 4.44317L14.9748 7.55682C15.223 7.75699 15.4703 8.10478 15.4703 8.96H19.4703ZM17.4858 4.44317C16.2139 3.41743 14.6369 3 12.9503 3V7C13.9837 7 14.5934 7.24923 14.9748 7.55682L17.4858 4.44317ZM12.9503 3H8.03031V7H12.9503V3ZM8.03031 3C7.52016 3 6.76404 3.10929 6.12672 3.67952C5.44707 4.28762 5.27032 5.08395 5.27032 5.68H9.27032C9.27032 5.82272 9.22022 6.27904 8.7939 6.66048C8.40993 7.00404 8.0338 7 8.03031 7V3ZM5.27032 5.68V12.12H9.27032V5.68H5.27032ZM5.27032 12.12C5.27032 12.5708 5.35519 13.2806 5.86646 13.9014C6.43894 14.5966 7.22195 14.8 7.83031 14.8V10.8C8.06535 10.8 8.56835 10.8901 8.95418 11.3586C9.11884 11.5585 9.19743 11.755 9.23396 11.8881C9.26923 12.0165 9.27032 12.1026 9.27032 12.12H5.27032ZM7.83031 14.8H12.7503V10.8H7.83031V14.8ZM31.0894 23.84L29.364 24.8514L29.3848 24.8869L29.407 24.9215L31.0894 23.84ZM32.9694 25.6L32.0032 27.3512L32.0387 27.3707L32.075 27.3889L32.9694 25.6ZM38.2894 25.6L39.1838 27.3889L39.1953 27.3831L39.2067 27.3772L38.2894 25.6ZM40.7694 23.52L39.3551 22.1058L39.3025 22.1585L39.2538 22.215L40.7694 23.52ZM41.0494 23.36V25.36H41.3739L41.6818 25.2574L41.0494 23.36ZM41.4894 23.48L40.5949 25.2689L40.6566 25.2997L40.7201 25.3262L41.4894 23.48ZM44.3694 24.68L45.1572 22.8417L45.1479 22.8377L45.1386 22.8338L44.3694 24.68ZM44.4894 25.48L42.9167 24.2444L42.8808 24.2901L42.8476 24.3379L44.4894 25.48ZM41.8094 28.4L40.5878 26.8164L41.8094 28.4ZM38.6894 29.96L39.1961 31.8947L39.2116 31.8907L39.227 31.8864L38.6894 29.96ZM29.3294 29.04L28.3557 30.787L29.3294 29.04ZM25.4494 25.28L23.7146 26.2753L23.7243 26.2923L23.7344 26.309L25.4494 25.28ZM25.4894 13.76L23.7579 12.759L23.7529 12.7677L25.4894 13.76ZM29.4094 9.8L30.4047 11.5347L29.4094 9.8ZM40.1694 9.76L39.1579 11.4854L39.1691 11.4919L39.1803 11.4983L40.1694 9.76ZM43.8094 13.56L42.0439 14.4997L42.0497 14.5107L42.0558 14.5217L43.8094 13.56ZM45.0894 20.28L46.9867 20.9125V20.9124L45.0894 20.28ZM44.4894 20.56V22.56H44.5662L44.6428 22.5541L44.4894 20.56ZM30.5294 20.72L28.9294 19.52V19.52L30.5294 20.72ZM38.4494 17.2L38.4393 19.2H38.4494V17.2ZM39.0094 17.12L40.1188 18.7841L40.2836 18.6742L40.4236 18.5342L39.0094 17.12ZM38.6494 14.6L36.8074 15.3793L36.82 15.4089L36.8335 15.4381L38.6494 14.6ZM37.2894 12.88L36.0229 14.4279L36.061 14.4591L36.1006 14.4883L37.2894 12.88ZM32.6494 12.8L33.6976 14.5033V14.5033L32.6494 12.8ZM31.0494 14.6L32.8382 15.4944L32.8444 15.482L32.8505 15.4695L31.0494 14.6ZM30.4894 17.16H28.4894V19.15L30.4793 19.16L30.4894 17.16ZM28.4094 21.2C28.4094 22.5054 28.7131 23.7411 29.364 24.8514L32.8148 22.8286C32.559 22.3922 32.4094 21.8679 32.4094 21.2H28.4094ZM29.407 24.9215C30.0656 25.9459 30.9378 26.7633 32.0032 27.3512L33.9355 23.8488C33.4543 23.5833 33.0732 23.2274 32.7717 22.7585L29.407 24.9215ZM32.075 27.3889C33.1803 27.9415 34.3847 28.2 35.6494 28.2V24.2C34.9407 24.2 34.3584 24.0585 33.8638 23.8111L32.075 27.3889ZM35.6494 28.2C36.8966 28.2 38.086 27.9378 39.1838 27.3889L37.3949 23.8111C36.8927 24.0622 36.3222 24.2 35.6494 24.2V28.2ZM39.2067 27.3772C40.3274 26.7988 41.3477 25.9135 42.2849 24.8251L39.2538 22.215C38.5378 23.0465 37.9047 23.5479 37.3721 23.8228L39.2067 27.3772ZM42.1836 24.9342C42.1575 24.9602 42.0674 25.0475 41.9117 25.1365C41.7562 25.2253 41.4569 25.36 41.0494 25.36V21.36C40.1306 21.36 39.5402 21.9208 39.3551 22.1058L42.1836 24.9342ZM41.6818 25.2574C41.3927 25.3538 41.1474 25.3575 41.0044 25.349C40.8571 25.3404 40.7482 25.3145 40.6931 25.2995C40.589 25.2711 40.5477 25.2452 40.5949 25.2689L42.3838 21.6911C42.2177 21.6081 41.9964 21.5089 41.7456 21.4405C41.5568 21.389 41.0272 21.2592 40.4169 21.4626L41.6818 25.2574ZM40.7201 25.3262L43.6001 26.5262L45.1386 22.8338L42.2586 21.6338L40.7201 25.3262ZM43.5815 26.5183C43.4768 26.4734 42.8299 26.1525 42.7015 25.2967C42.6466 24.9309 42.7244 24.6428 42.7873 24.4839C42.8478 24.3309 42.9125 24.2497 42.9167 24.2444L46.062 26.7156C46.308 26.4025 46.8029 25.6741 46.6572 24.7033C46.4889 23.5808 45.6353 23.0466 45.1572 22.8417L43.5815 26.5183ZM42.8476 24.3379C42.0812 25.4395 41.3227 26.2495 40.5878 26.8164L43.031 29.9836C44.1627 29.1105 45.1908 27.9739 46.1312 26.6221L42.8476 24.3379ZM40.5878 26.8164C39.8603 27.3776 39.053 27.7821 38.1518 28.0336L39.227 31.8864C40.619 31.4979 41.8918 30.8624 43.031 29.9836L40.5878 26.8164ZM38.1826 28.0253C37.2597 28.267 36.1678 28.4 34.8894 28.4V32.4C36.4376 32.4 37.879 32.2397 39.1961 31.8947L38.1826 28.0253ZM34.8894 28.4C33.1096 28.4 31.5985 28.0151 30.3031 27.293L28.3557 30.787C30.3136 31.8783 32.5092 32.4 34.8894 32.4V28.4ZM30.3031 27.293C28.9827 26.5571 27.9447 25.5516 27.1644 24.251L23.7344 26.309C24.874 28.2084 26.4227 29.7096 28.3557 30.787L30.3031 27.293ZM27.1841 24.2847C26.443 22.9931 26.0494 21.4898 26.0494 19.72H22.0494C22.0494 22.1102 22.5891 24.3136 23.7146 26.2753L27.1841 24.2847ZM26.0494 19.72C26.0494 17.71 26.468 16.0785 27.2259 14.7523L23.7529 12.7677C22.5907 14.8015 22.0494 17.1433 22.0494 19.72H26.0494ZM27.2208 14.761C28.0405 13.3433 29.0997 12.2835 30.4047 11.5347L28.414 8.06527C26.4657 9.18314 24.9116 10.7634 23.7579 12.759L27.2208 14.761ZM30.4047 11.5347C31.7167 10.782 33.1581 10.4 34.7694 10.4V6.4C32.4873 6.4 30.3554 6.95136 28.414 8.06527L30.4047 11.5347ZM34.7694 10.4C36.5197 10.4 37.9604 10.7834 39.1579 11.4854L41.1808 8.0346C39.2851 6.9233 37.1257 6.4 34.7694 6.4V10.4ZM39.1803 11.4983C40.3801 12.181 41.332 13.1623 42.0439 14.4997L45.5749 12.6203C44.5267 10.651 43.052 9.09904 41.1584 8.02167L39.1803 11.4983ZM42.0558 14.5217C42.7642 15.8135 43.1694 17.4775 43.1694 19.6H47.1694C47.1694 16.9758 46.6679 14.6132 45.563 12.5983L42.0558 14.5217ZM43.1694 19.6C43.1694 19.6434 43.1684 19.6781 43.167 19.7051C43.1656 19.7322 43.164 19.7488 43.1631 19.7563C43.1622 19.7641 43.1625 19.7586 43.1658 19.7423C43.1692 19.7263 43.1768 19.6933 43.192 19.6476L46.9867 20.9124C47.1404 20.4515 47.1694 19.9742 47.1694 19.6H43.1694ZM43.192 19.6475C43.3882 19.059 43.817 18.768 44.0536 18.6576C44.2602 18.5612 44.3914 18.5616 44.336 18.5659L44.6428 22.5541C44.934 22.5317 45.3386 22.4721 45.7451 22.2824C46.1817 22.0786 46.7372 21.661 46.9867 20.9125L43.192 19.6475ZM44.4894 18.56H30.8894V22.56H44.4894V18.56ZM30.8894 18.56C30.2414 18.56 29.4646 18.8063 28.9294 19.52L32.1294 21.92C31.9679 22.1353 31.7484 22.3135 31.4917 22.4276C31.2465 22.5366 31.0295 22.56 30.8894 22.56V18.56ZM28.9294 19.52C28.4753 20.1255 28.4094 20.7943 28.4094 21.2H32.4094C32.4094 21.2118 32.4089 21.288 32.3797 21.4051C32.3499 21.5242 32.2824 21.716 32.1294 21.92L28.9294 19.52ZM38.4494 19.2C38.6449 19.2 38.8688 19.1918 39.0922 19.1599C39.2502 19.1373 39.6903 19.0697 40.1188 18.7841L37.9 15.4559C38.1004 15.3223 38.2753 15.2632 38.3547 15.2393C38.4436 15.2127 38.5066 15.203 38.5265 15.2001C38.5633 15.1948 38.5472 15.2 38.4494 15.2V19.2ZM40.4236 18.5342C40.8113 18.1465 40.9695 17.7056 41.0397 17.4251C41.1128 17.1325 41.1294 16.8565 41.1294 16.64H37.1294C37.1294 16.6635 37.1259 16.5875 37.1591 16.4549C37.1892 16.3344 37.2874 16.0135 37.5952 15.7058L40.4236 18.5342ZM41.1294 16.64C41.1294 15.6447 40.889 14.6798 40.4653 13.7619L36.8335 15.4381C37.0498 15.9068 37.1294 16.302 37.1294 16.64H41.1294ZM40.4913 13.8207C40.0565 12.793 39.3755 11.9349 38.4781 11.2716L36.1006 14.4883C36.4299 14.7317 36.6556 15.0203 36.8074 15.3793L40.4913 13.8207ZM38.5558 11.3321C37.535 10.4969 36.2943 10.16 35.0094 10.16V14.16C35.5911 14.16 35.8704 14.3031 36.0229 14.4279L38.5558 11.3321ZM35.0094 10.16C33.7904 10.16 32.6352 10.4604 31.6012 11.0967L33.6976 14.5033C34.0502 14.2863 34.4684 14.16 35.0094 14.16V10.16ZM31.6012 11.0967C30.5641 11.7349 29.7782 12.6328 29.2483 13.7305L32.8505 15.4695C33.0672 15.0205 33.3479 14.7185 33.6976 14.5033L31.6012 11.0967ZM29.2605 13.7056C28.7289 14.7689 28.4894 15.9362 28.4894 17.16H32.4894C32.4894 16.4638 32.6232 15.9244 32.8382 15.4944L29.2605 13.7056ZM30.4793 19.16L38.4393 19.2L38.4594 15.2L30.4994 15.16L30.4793 19.16ZM60.3669 29.84L59.0865 31.3764L59.2218 31.4891L59.3746 31.5765L60.3669 29.84ZM59.9669 27.76L60.452 25.8197L59.9669 27.76ZM59.5669 27.92L58.2865 26.3836L58.2416 26.421L58.199 26.4609L59.5669 27.92ZM58.1269 29.12L59.2738 30.7585L59.3007 30.7397L59.3269 30.72L58.1269 29.12ZM56.2469 30.04L55.6144 28.1426L56.2469 30.04ZM49.4069 29.2L48.3308 30.8858L49.4069 29.2ZM46.4469 25.6L44.618 26.4095L44.623 26.4207L46.4469 25.6ZM46.5269 13.72L44.7211 12.8601L44.7153 12.8726L46.5269 13.72ZM49.7269 9.8L50.8738 11.4385L49.7269 9.8ZM59.3669 10.52L58.004 11.9838L58.0818 12.0562L58.1669 12.12L59.3669 10.52ZM59.8469 10.72L60.3319 12.6603L60.4636 12.6274L60.5897 12.577L59.8469 10.72ZM60.0469 14.32H62.0469V13.542L61.5212 12.9686L60.0469 14.32ZM58.2469 12.88L57.2294 14.6019L57.2749 14.6287L57.3217 14.6532L58.2469 12.88ZM53.8069 13.12L54.9453 14.7644L54.9516 14.76L54.9579 14.7556L53.8069 13.12ZM52.1669 15.4L50.3002 14.682L50.2921 14.7031L50.2845 14.7243L52.1669 15.4ZM52.1669 23.6L50.2845 24.2757L50.2921 24.2969L50.3002 24.318L52.1669 23.6ZM53.7669 25.88L52.5983 27.5031L52.6348 27.5293L52.6724 27.5539L53.7669 25.88ZM58.1269 26.04L59.1443 27.7619L58.1269 26.04ZM59.5269 24.72L61.2038 25.81L59.5269 24.72ZM60.9669 28C61.0288 28 61.099 28.008 61.1722 28.0275C61.2453 28.047 61.3084 28.0745 61.3592 28.1035L59.3746 31.5765C59.861 31.8544 60.4026 32 60.9669 32V28ZM61.6472 28.3036C62.1072 28.6868 62.1269 29.1527 62.1269 29.2H58.1269C58.1269 29.834 58.3066 30.7265 59.0865 31.3764L61.6472 28.3036ZM62.1269 29.2V28.08H58.1269V29.2H62.1269ZM62.1269 28.08C62.1269 27.8342 62.0979 27.4099 61.8757 26.9656C61.613 26.4401 61.1238 25.9877 60.452 25.8197L59.4818 29.7003C58.9166 29.559 58.5074 29.1733 58.298 28.7544C58.1292 28.4168 58.1269 28.1392 58.1269 28.08H62.1269ZM60.452 25.8197C59.3454 25.5431 58.526 26.184 58.2865 26.3836L60.8472 29.4564C60.8319 29.4692 60.7242 29.5592 60.5297 29.637C60.325 29.7188 59.9452 29.8161 59.4818 29.7003L60.452 25.8197ZM58.199 26.4609C57.8324 26.8046 57.4096 27.1579 56.9269 27.52L59.3269 30.72C59.9108 30.2821 60.448 29.8354 60.9348 29.3791L58.199 26.4609ZM56.9799 27.4815C56.6284 27.7276 56.1809 27.9538 55.6144 28.1426L56.8793 31.9374C57.7529 31.6462 58.5587 31.259 59.2738 30.7585L56.9799 27.4815ZM55.6144 28.1426C55.1441 28.2994 54.5262 28.4 53.7269 28.4V32.4C54.8476 32.4 55.9096 32.2606 56.8793 31.9374L55.6144 28.1426ZM53.7269 28.4C52.4443 28.4 51.3849 28.0899 50.4829 27.5142L48.3308 30.8858C49.9355 31.9101 51.7561 32.4 53.7269 32.4V28.4ZM50.4829 27.5142C49.6131 26.959 48.8602 26.0893 48.2707 24.7793L44.623 26.4207C45.4735 28.3107 46.694 29.841 48.3308 30.8858L50.4829 27.5142ZM48.2757 24.7905C47.7007 23.4913 47.3669 21.7732 47.3669 19.56H43.3669C43.3669 22.1468 43.7531 24.4554 44.618 26.4095L48.2757 24.7905ZM47.3669 19.56C47.3669 17.5477 47.7141 15.9022 48.3385 14.5674L44.7153 12.8726C43.7929 14.8445 43.3669 17.0923 43.3669 19.56H47.3669ZM48.3326 14.5799C49.0056 13.1666 49.8622 12.1466 50.8738 11.4385L48.58 8.16154C46.9249 9.32005 45.6482 10.9134 44.7212 12.8601L48.3326 14.5799ZM50.8738 11.4385C51.8772 10.7361 52.9447 10.4 54.1269 10.4V6.4C52.109 6.4 50.2433 6.99722 48.58 8.16154L50.8738 11.4385ZM54.1269 10.4C54.9775 10.4 55.6535 10.538 56.1934 10.7644L57.7403 7.07561C56.6269 6.60868 55.4096 6.4 54.1269 6.4V10.4ZM56.1934 10.7644C56.7677 11.0052 57.373 11.3963 58.004 11.9838L60.7297 9.05621C59.814 8.20369 58.8194 7.52811 57.7403 7.07561L56.1934 10.7644ZM58.1669 12.12C58.3433 12.2523 58.5856 12.4145 58.8776 12.5362C59.1416 12.6462 59.6823 12.8227 60.3319 12.6603L59.3618 8.77971C59.9048 8.64398 60.3121 8.80051 60.4161 8.84385C60.5481 8.89886 60.6037 8.94765 60.5669 8.92L58.1669 12.12ZM60.5897 12.577C61.3141 12.2872 61.6923 11.7132 61.8636 11.268C62.021 10.8585 62.0469 10.4664 62.0469 10.2H58.0469C58.0469 10.1991 58.0469 10.1915 58.0477 10.178C58.0486 10.1647 58.0504 10.1431 58.0545 10.1147C58.062 10.0619 58.0807 9.96064 58.1302 9.83204C58.2347 9.56018 58.513 9.09947 59.1041 8.86304L60.5897 12.577ZM62.0469 10.2V1.04H58.0469V10.2H62.0469ZM62.0469 1.04C62.0469 1.05406 62.0489 1.43816 61.7017 1.82873C61.3146 2.26418 60.8468 2.32 60.6869 2.32V-1.68C60.1002 -1.68 59.3125 -1.50418 58.7121 -0.828728C58.1516 -0.19817 58.0469 0.545937 58.0469 1.04H62.0469ZM60.6869 2.32H65.5669V-1.68H60.6869V2.32ZM65.5669 2.32C65.3732 2.32 64.8943 2.24621 64.5171 1.79827C64.3548 1.60565 64.2772 1.41574 64.2413 1.28801C64.2069 1.16551 64.2069 1.08716 64.2069 1.08H68.2069C68.2069 0.594219 68.1118 -0.14283 67.5767 -0.778271C66.9862 -1.47955 66.1873 -1.68 65.5669 -1.68V2.32ZM64.2069 1.08V29.16H68.2069V1.08H64.2069ZM64.2069 29.16C64.2069 29.1586 64.2069 29.1388 64.2115 29.1041C64.216 29.0694 64.2259 29.0139 64.2479 28.9435C64.2932 28.7986 64.392 28.5865 64.5927 28.3858L67.4211 31.2142C68.0927 30.5426 68.2069 29.6968 68.2069 29.16H64.2069ZM64.5927 28.3858C64.8358 28.1426 65.0826 28.0532 65.1916 28.023C65.299 27.9931 65.3443 28 65.2869 28V32C65.7618 32 66.7013 31.934 67.4211 31.2142L64.5927 28.3858ZM65.2869 28H60.9669V32H65.2869V28ZM61.5212 12.9686C60.8158 12.199 60.0365 11.5579 59.172 11.1068L57.3217 14.6532C57.6839 14.8421 58.1046 15.161 58.5726 15.6714L61.5212 12.9686ZM59.2643 11.1581C58.3297 10.6059 57.2889 10.36 56.2069 10.36V14.36C56.6715 14.36 56.9907 14.4608 57.2294 14.6019L59.2643 11.1581ZM56.2069 10.36C54.9146 10.36 53.7127 10.7407 52.6559 11.4844L54.9579 14.7556C55.3411 14.486 55.7391 14.36 56.2069 14.36V10.36ZM52.6685 11.4756C51.5538 12.2473 50.7987 13.3858 50.3002 14.682L54.0336 16.118C54.335 15.3342 54.6733 14.9527 54.9453 14.7644L52.6685 11.4756ZM50.2845 14.7243C49.8039 16.0631 49.6069 17.6769 49.6069 19.48H53.6069C53.6069 17.9231 53.7832 16.8169 54.0493 16.0757L50.2845 14.7243ZM49.6069 19.48C49.6069 21.3055 49.8029 22.9343 50.2845 24.2757L54.0493 22.9243C53.7841 22.1857 53.6069 21.0679 53.6069 19.48H49.6069ZM50.3002 24.318C50.7915 25.5953 51.5218 26.728 52.5983 27.5031L54.9355 24.2569C54.6787 24.072 54.3423 23.6847 54.0336 22.882L50.3002 24.318ZM52.6724 27.5539C53.7117 28.2335 54.8835 28.56 56.1269 28.56V24.56C55.6102 24.56 55.2087 24.4331 54.8614 24.2061L52.6724 27.5539ZM56.1269 28.56C57.1962 28.56 58.2205 28.3078 59.1443 27.7619L57.1094 24.3181C56.8599 24.4656 56.5509 24.56 56.1269 24.56V28.56ZM59.1443 27.7619C59.9772 27.2697 60.6771 26.6202 61.2038 25.81L57.85 23.63C57.6833 23.8865 57.4498 24.117 57.1094 24.3181L59.1443 27.7619ZM61.2038 25.81C61.7428 24.9807 62.0469 24.0463 62.0469 23.04H58.0469C58.0469 23.2071 58.0043 23.3926 57.85 23.63L61.2038 25.81ZM62.0469 23.04V14.32H58.0469V23.04H62.0469ZM81.3019 9L79.7401 10.2494L79.8093 10.3359L79.8877 10.4142L81.3019 9ZM67.1819 9L65.7677 7.58578L65.6893 7.66411L65.6201 7.75061L67.1819 9ZM72.4619 1.76L71.0864 0.308094L72.4619 1.76ZM81.6619 1.16H79.6619V1.17538L79.6621 1.19077L81.6619 1.16ZM81.7019 3.76H83.7019V3.74461L83.7016 3.72923L81.7019 3.76ZM81.5419 4.24L79.9801 2.9906L79.8961 3.09565L79.8269 3.21101L81.5419 4.24ZM77.5019 5.12L79.007 6.43701L79.0267 6.4145L79.0457 6.39141L77.5019 5.12ZM90.4219 29.8L91.7023 31.3364L91.7719 31.2784L91.8361 31.2142L90.4219 29.8ZM84.6619 29.8L83.1001 31.0494L83.1693 31.1359L83.2477 31.2142L84.6619 29.8ZM84.6219 6L82.9578 7.1094L83.017 7.1983L83.0854 7.28037L84.6219 6ZM80.7419 10.8C80.72 10.8 80.592 10.7988 80.4092 10.7335C80.2103 10.6624 79.9538 10.5165 79.7401 10.2494L82.8636 7.75061C82.2049 6.92717 81.2721 6.8 80.7419 6.8V10.8ZM79.8877 10.4142C79.7859 10.3125 79.6814 10.1708 79.6057 9.98923C79.5299 9.80724 79.5019 9.6302 79.5019 9.48H83.5019C83.5019 8.75687 83.2202 8.08991 82.7161 7.58578L79.8877 10.4142ZM79.5019 9.48V12.44H83.5019V9.48H79.5019ZM79.5019 12.44C79.5019 12.2622 79.5638 11.7828 80.0086 11.3903C80.4057 11.0399 80.7975 11.04 80.8219 11.04V15.04C81.2995 15.04 82.0314 14.9401 82.6551 14.3897C83.3266 13.7972 83.5019 13.0178 83.5019 12.44H79.5019ZM80.8219 11.04H77.5019V15.04H80.8219V11.04ZM77.5019 11.04C77.0085 11.04 76.2858 11.1844 75.722 11.8047C75.191 12.3887 75.1019 13.0697 75.1019 13.48H79.1019C79.1019 13.597 79.0794 14.058 78.6818 14.4953C78.2513 14.9689 77.7286 15.04 77.5019 15.04V11.04ZM75.1019 13.48V29.24H79.1019V13.48H75.1019ZM75.1019 29.24C75.1019 29.2328 75.1019 29.1545 75.1363 29.032C75.1721 28.9043 75.2498 28.7143 75.4121 28.5217C75.7893 28.0738 76.2682 28 76.4619 28V32C77.0823 32 77.8811 31.7995 78.4717 31.0983C79.0068 30.4628 79.1019 29.7258 79.1019 29.24H75.1019ZM76.4619 28H71.5419V32H76.4619V28ZM71.5419 28C71.7196 28 72.199 28.0619 72.5916 28.5068C72.9419 28.9039 72.9419 29.2957 72.9419 29.32H68.9419C68.9419 29.7977 69.0418 30.5295 69.5922 31.1532C70.1847 31.8248 70.9641 32 71.5419 32V28ZM72.9419 29.32V13.4H68.9419V29.32H72.9419ZM72.9419 13.4C72.9419 13.0259 72.8639 12.3718 72.3567 11.8013C71.8096 11.1858 71.1019 11.04 70.6219 11.04V15.04C70.3552 15.04 69.8075 14.9542 69.3671 14.4587C68.9666 14.0082 68.9419 13.5341 68.9419 13.4H72.9419ZM70.6219 11.04H67.7419V15.04H70.6219V11.04ZM67.7419 11.04C67.7542 11.04 67.8366 11.0406 67.9622 11.0755C68.0927 11.1117 68.286 11.19 68.4822 11.3536C68.9403 11.7353 69.0219 12.2261 69.0219 12.44H65.0219C65.0219 13.0539 65.2235 13.8447 65.9215 14.4264C66.5497 14.9499 67.2734 15.04 67.7419 15.04V11.04ZM69.0219 12.44V9.48H65.0219V12.44H69.0219ZM69.0219 9.48C69.0219 9.57884 69.0074 9.70797 68.9592 9.85245C68.9104 9.99911 68.8358 10.1342 68.7436 10.2494L65.6201 7.75061C65.2028 8.27227 65.0219 8.88432 65.0219 9.48H69.0219ZM68.5961 10.4142C68.2221 10.7882 67.8235 10.8 67.7819 10.8V6.8C67.2069 6.8 66.4084 6.94509 65.7677 7.58578L68.5961 10.4142ZM67.7819 10.8H70.4619V6.8H67.7819V10.8ZM70.4619 10.8C71.0633 10.8 71.8312 10.5899 72.3836 9.89939C72.8679 9.29405 72.9419 8.61369 72.9419 8.2H68.9419C68.9419 8.18631 68.9359 7.80595 69.2601 7.40061C69.6526 6.91005 70.1805 6.8 70.4619 6.8V10.8ZM72.9419 8.2V5.76H68.9419V8.2H72.9419ZM72.9419 5.76C72.9419 4.47129 73.3089 3.71256 73.8374 3.2119L71.0864 0.308094C69.5882 1.72744 68.9419 3.63537 68.9419 5.76H72.9419ZM73.8374 3.2119C74.3732 2.70426 75.2461 2.32 76.7419 2.32V-1.68C74.5577 -1.68 72.5772 -1.10427 71.0864 0.308094L73.8374 3.2119ZM76.7419 2.32H80.7819V-1.68H76.7419V2.32ZM80.7819 2.32C80.7757 2.32 80.6913 2.31998 80.5605 2.27835C80.4211 2.23399 80.2362 2.14402 80.0609 1.97671C79.6804 1.61345 79.6619 1.21262 79.6619 1.16H83.6619C83.6619 0.547382 83.4967 -0.273457 82.8228 -0.91671C82.1663 -1.54337 81.3609 -1.68 80.7819 -1.68V2.32ZM79.6621 1.19077L79.7021 3.79076L83.7016 3.72923L83.6616 1.12923L79.6621 1.19077ZM79.7019 3.76C79.7019 3.66115 79.7164 3.53202 79.7645 3.38754C79.8134 3.24089 79.888 3.10584 79.9801 2.9906L83.1036 5.48939C83.5209 4.96773 83.7019 4.35569 83.7019 3.76H79.7019ZM79.8269 3.21101C80.0034 2.91678 80.2625 2.69732 80.5443 2.56926C80.8006 2.45274 81.0112 2.44 81.1019 2.44V6.44C81.7255 6.44 82.6869 6.21896 83.2569 5.26899L79.8269 3.21101ZM81.1019 2.44H78.9419V6.44H81.1019V2.44ZM78.9419 2.44C77.7569 2.44 76.7108 2.93448 75.958 3.84858L79.0457 6.39141C79.0571 6.37761 79.0587 6.37835 79.0483 6.38662C79.0374 6.39529 79.0195 6.40733 78.9959 6.4185C78.9722 6.42966 78.9515 6.43587 78.9376 6.43882C78.9244 6.44163 78.9244 6.44 78.9419 6.44V2.44ZM75.9967 3.80299C75.2373 4.67092 74.9419 5.73486 74.9419 6.8H78.9419C78.9419 6.63169 78.9646 6.53648 78.9792 6.49245C78.9921 6.45383 79.0025 6.44223 79.007 6.43701L75.9967 3.80299ZM74.9419 6.8V8.36H78.9419V6.8H74.9419ZM74.9419 8.36C74.9419 8.86188 75.0868 9.59264 75.7104 10.1643C76.3011 10.7058 76.9946 10.8 77.4219 10.8V6.8C77.5291 6.8 77.9826 6.82089 78.4133 7.21569C78.877 7.64069 78.9419 8.15145 78.9419 8.36H74.9419ZM77.4219 10.8H80.7419V6.8H77.4219V10.8ZM88.6619 29.04C88.6619 29.1328 88.6342 28.7593 89.0077 28.3858L91.8361 31.2142C92.5296 30.5207 92.6619 29.6406 92.6619 29.04H88.6619ZM89.1415 28.2636C89.3714 28.0719 89.5766 28.0168 89.6286 28.0044C89.6863 27.9907 89.6815 28 89.5819 28V32C90.0777 32 90.9746 31.9428 91.7023 31.3364L89.1415 28.2636ZM89.5819 28H85.3819V32H89.5819V28ZM85.3819 28C85.3245 28 85.3697 27.9931 85.4772 28.023C85.5862 28.0532 85.8329 28.1426 86.0761 28.3858L83.2477 31.2142C83.9675 31.934 84.9069 32 85.3819 32V28ZM86.2236 28.5506C86.3938 28.7634 86.4584 28.9598 86.4822 29.0549C86.5058 29.1495 86.5019 29.1938 86.5019 29.16H82.5019C82.5019 29.6124 82.5684 30.3847 83.1001 31.0494L86.2236 28.5506ZM86.5019 29.16V9.56H82.5019V29.16H86.5019ZM86.5019 9.56C86.5019 9.56716 86.5018 9.64551 86.4675 9.76801C86.4316 9.89574 86.3539 10.0857 86.1917 10.2783C85.8145 10.7262 85.3356 10.8 85.1419 10.8V6.8C84.5215 6.8 83.7226 7.00045 83.132 7.70173C82.597 8.33717 82.5019 9.07422 82.5019 9.56H86.5019ZM85.1419 10.8H90.0619V6.8H85.1419V10.8ZM90.0619 10.8C89.8841 10.8 89.4047 10.7381 89.0122 10.2932C88.6618 9.89614 88.6619 9.50433 88.6619 9.48H92.6619C92.6619 9.00234 92.5619 8.27052 92.0116 7.64676C91.419 6.97523 90.6396 6.8 90.0619 6.8V10.8ZM88.6619 9.48V29.04H92.6619V9.48H88.6619ZM88.7419 5.24C88.7419 5.22385 88.7534 4.85548 89.1131 4.52248C89.4436 4.21638 89.7502 4.24 89.6619 4.24V8.24C90.2936 8.24 91.1401 8.09695 91.8307 7.45752C92.5503 6.79118 92.7419 5.92281 92.7419 5.24H88.7419ZM89.6619 4.24H85.3419V8.24H89.6619V4.24ZM85.3419 4.24C85.3097 4.24 85.3905 4.23469 85.5343 4.28263C85.6912 4.33491 85.9403 4.45805 86.1583 4.71962L83.0854 7.28037C83.7903 8.12619 84.7857 8.24 85.3419 8.24V4.24ZM86.286 4.8906C86.3896 5.04605 86.4319 5.18057 86.4487 5.25192C86.4651 5.32158 86.4619 5.3503 86.4619 5.32H82.4619C82.4619 5.81481 82.545 6.49026 82.9578 7.1094L86.286 4.8906ZM86.4619 5.32V1.12H82.4619V5.32H86.4619ZM86.4619 1.12C86.4619 1.12181 86.4624 1.19601 86.4286 1.3152C86.3933 1.43989 86.3164 1.62635 86.1558 1.8153C85.7834 2.25342 85.3163 2.32 85.1419 2.32V-1.68C84.5142 -1.68 83.7071 -1.48009 83.108 -0.775299C82.5618 -0.132744 82.4619 0.61729 82.4619 1.12H86.4619ZM85.1419 2.32H90.1019V-1.68H85.1419V2.32ZM90.1019 2.32C89.9082 2.32 89.4293 2.24621 89.0521 1.79827C88.8898 1.60566 88.8122 1.41574 88.7763 1.28801C88.7419 1.16551 88.7419 1.08716 88.7419 1.08H92.7419C92.7419 0.594219 92.6468 -0.142834 92.1117 -0.778275C91.5211 -1.47955 90.7222 -1.68 90.1019 -1.68V2.32ZM88.7419 1.08V5.24H92.7419V1.08H88.7419ZM99.1016 11.76L97.9922 13.4241V13.4241L99.1016 11.76ZM99.4616 11.6L98.105 10.1304L98.0756 10.1575L98.0474 10.1858L99.4616 11.6ZM101.542 9.92L102.68 11.5644L101.542 9.92ZM103.742 8.8L103.09 6.90925L103.742 8.8ZM110.822 10.12L109.391 11.5175L109.399 11.5259L109.407 11.5342L110.822 10.12ZM106.542 29.84L104.98 31.0894L105.119 31.2629L105.292 31.4017L106.542 29.84ZM105.622 13.6L104.17 14.9755L104.207 15.0147L104.246 15.0519L105.622 13.6ZM101.902 13.12L101.177 11.256L101.902 13.12ZM100.502 13.96L101.716 15.5487L101.745 15.5268L101.773 15.5039L100.502 13.96ZM99.0616 15.32L97.5785 13.9782L97.0616 14.5495V15.32H99.0616ZM93.7416 28C93.7462 28 94.121 27.9994 94.4909 28.3517C94.879 28.7214 94.9016 29.1328 94.9016 29.2H90.9016C90.9016 29.8005 91.0641 30.6119 91.7323 31.2483C92.3822 31.8672 93.177 32 93.7416 32V28ZM94.9016 29.2V9.56H90.9016V29.2H94.9016ZM94.9016 9.56C94.9016 9.56716 94.9015 9.64551 94.8671 9.76801C94.8313 9.89574 94.7536 10.0857 94.5914 10.2783C94.2142 10.7262 93.7353 10.8 93.5416 10.8V6.8C92.9212 6.8 92.1223 7.00045 91.5318 7.70173C90.9966 8.33717 90.9016 9.07422 90.9016 9.56H94.9016ZM93.5416 10.8H98.3816V6.8H93.5416V10.8ZM98.3816 10.8C98.2038 10.8 97.7244 10.7381 97.3319 10.2932C96.9815 9.89614 96.9816 9.50433 96.9816 9.48H100.982C100.982 9.00234 100.882 8.27052 100.331 7.64676C99.7387 6.97523 98.9593 6.8 98.3816 6.8V10.8ZM96.9816 9.48V11.44H100.982V9.48H96.9816ZM96.9816 11.44C96.9816 11.8191 97.0643 12.8055 97.9922 13.4241L100.211 10.0959C100.581 10.3425 100.785 10.673 100.884 10.9378C100.975 11.1798 100.982 11.3698 100.982 11.44H96.9816ZM97.9922 13.4241C98.8006 13.963 99.6316 13.7797 100.064 13.5876C100.454 13.4142 100.729 13.1608 100.876 13.0142L98.0474 10.1858C98.0538 10.1793 98.084 10.1495 98.137 10.1091C98.1866 10.0713 98.2886 9.99935 98.4393 9.93237C98.5886 9.866 98.8412 9.78 99.1691 9.78C99.5222 9.78 99.8888 9.88111 100.211 10.0959L97.9922 13.4241ZM100.818 13.0696C101.451 12.4856 102.072 11.9855 102.68 11.5644L100.403 8.27562C99.6247 8.81453 98.8589 9.43444 98.105 10.1304L100.818 13.0696ZM102.68 11.5644C103.228 11.1851 103.798 10.8961 104.394 10.6907L103.09 6.90925C102.138 7.23727 101.242 7.6949 100.403 8.27562L102.68 11.5644ZM104.394 10.6907C104.942 10.5017 105.547 10.4 106.222 10.4V6.4C105.137 6.4 104.088 6.56496 103.09 6.90925L104.394 10.6907ZM106.222 10.4C107.753 10.4 108.726 10.8364 109.391 11.5175L112.252 8.72252C110.678 7.11029 108.583 6.4 106.222 6.4V10.4ZM109.407 11.5342C110.111 12.2376 110.542 13.2255 110.542 14.72H114.542C114.542 12.3745 113.826 10.2957 112.236 8.70579L109.407 11.5342ZM110.542 14.72V29.04H114.542V14.72H110.542ZM110.542 29.04C110.542 29.0393 110.541 28.9573 110.584 28.8275C110.631 28.6881 110.723 28.5101 110.887 28.3458C111.052 28.1815 111.23 28.0891 111.369 28.0426C111.499 27.9994 111.581 28 111.582 28V32C112.21 32 113.048 31.8416 113.716 31.1742C114.383 30.5069 114.542 29.6683 114.542 29.04H110.542ZM111.582 28H107.142V32H111.582V28ZM107.142 28C107.141 28 107.142 28 107.142 28C107.141 28 107.142 28 107.142 28C107.142 28 107.142 28 107.142 28C107.142 28 107.142 28 107.142 28C107.142 28 107.142 28 107.142 28C107.143 28 107.143 28 107.144 28C107.146 28.0001 107.148 28.0002 107.151 28.0003C107.158 28.0007 107.168 28.0014 107.181 28.0029C107.207 28.0059 107.251 28.0125 107.307 28.0275C107.419 28.0574 107.6 28.1258 107.791 28.2783L105.292 31.4017C105.931 31.9127 106.661 32 107.142 32V28ZM108.103 28.5906C108.273 28.8034 108.338 28.9998 108.362 29.0949C108.385 29.1895 108.382 29.2338 108.382 29.2H104.382C104.382 29.6524 104.448 30.4247 104.98 31.0894L108.103 28.5906ZM108.382 29.2V15.68H104.382V29.2H108.382ZM108.382 15.68C108.382 14.3969 108.012 13.1101 106.997 12.1481L104.246 15.0519C104.262 15.0668 104.286 15.0932 104.313 15.1664C104.343 15.2494 104.382 15.4092 104.382 15.68H108.382ZM107.073 12.2245C106.091 11.1875 104.758 10.84 103.462 10.84V14.84C103.771 14.84 103.958 14.8815 104.058 14.9166C104.147 14.9479 104.168 14.9737 104.17 14.9755L107.073 12.2245ZM103.462 10.84C102.675 10.84 101.907 10.9719 101.177 11.256L102.626 14.984C102.856 14.8948 103.128 14.84 103.462 14.84V10.84ZM101.177 11.256C100.473 11.5296 99.8249 11.9264 99.2301 12.4161L101.773 15.5039C102.085 15.247 102.37 15.0837 102.626 14.984L101.177 11.256ZM99.2867 12.3713C98.7114 12.8112 98.1424 13.3549 97.5785 13.9782L100.545 16.6618C100.994 16.1651 101.385 15.8022 101.716 15.5487L99.2867 12.3713ZM97.0616 15.32V29.08H101.062V15.32H97.0616ZM97.0616 29.08C97.0616 29.0105 97.0925 28.6116 97.4764 28.272C97.8136 27.9738 98.1162 28 98.0216 28V32C98.6203 32 99.4429 31.8729 100.127 31.268C100.857 30.6217 101.062 29.7629 101.062 29.08H97.0616ZM98.0216 28H93.7416V32H98.0216V28Z" fill="black" fill-opacity="0.2" mask="url(#path-1-outside-1_625_437)"/>
</svg>
