<svg width="340" height="128" viewBox="0 0 340 128" fill="none" xmlns="http://www.w3.org/2000/svg">
<g id="Redfin">
<mask id="path-1-outside-1_240_107" maskUnits="userSpaceOnUse" x="35" y="27" width="271" height="73" fill="black">
<rect fill="white" x="35" y="27" width="271" height="73"/>
<path d="M91.0569 92.705C91.2836 93.3283 91.2553 93.8667 90.9719 94.32C90.7453 94.7733 90.3486 95 89.7819 95H77.2869C76.3236 95 75.7003 94.49 75.4169 93.47L66.2369 69.67C65.8969 68.8767 65.1036 68.48 63.8569 68.48H55.7819C55.3853 68.48 55.1019 68.5933 54.9319 68.82C54.8186 69.0467 54.7619 69.245 54.7619 69.415V92.96C54.7619 94.32 53.9969 95 52.4669 95H41.6719C40.9919 95 40.5103 94.8583 40.2269 94.575C40.0003 94.2917 39.8869 93.8667 39.8869 93.3V33.545C39.8869 32.4683 40.3403 31.93 41.2469 31.93H67.7669C75.3603 31.93 81.2536 33.4317 85.4469 36.435C89.6969 39.4383 91.8219 43.7167 91.8219 49.27C91.8219 52.16 91.2836 54.7383 90.2069 57.005C89.1303 59.2717 87.7136 61.17 85.9569 62.7C84.2003 64.1733 82.2736 65.2783 80.1769 66.015C79.6669 66.185 79.5536 66.61 79.8369 67.29L91.0569 92.705ZM66.4069 58.45C69.6369 58.45 72.1019 57.77 73.8019 56.41C75.5586 54.9933 76.4369 52.9533 76.4369 50.29C76.4369 47.5133 75.5586 45.4167 73.8019 44C72.0453 42.5833 69.7219 41.875 66.8319 41.875H56.3769C55.3003 41.875 54.7619 42.3567 54.7619 43.32V57.005C54.7619 57.9683 55.1586 58.45 55.9519 58.45H66.4069ZM110.732 76.3C110.732 78.3967 111.214 80.2667 112.177 81.91C113.197 83.4967 114.529 84.7433 116.172 85.65C117.872 86.5 119.771 86.925 121.867 86.925C123.907 86.925 125.777 86.5 127.477 85.65C129.234 84.7433 130.991 83.27 132.747 81.23C132.974 81.0033 133.172 80.89 133.342 80.89C133.512 80.8333 133.824 80.9183 134.277 81.145L140.397 83.695C141.191 84.035 141.276 84.6017 140.652 85.395C138.839 88.0017 136.941 90.07 134.957 91.6C132.974 93.13 130.764 94.235 128.327 94.915C125.947 95.5383 123.256 95.85 120.252 95.85C115.832 95.85 111.894 94.8867 108.437 92.96C104.981 91.0333 102.232 88.37 100.192 84.97C98.2091 81.5133 97.2174 77.575 97.2174 73.155C97.2174 68.2817 98.2374 64.06 100.277 60.49C102.374 56.8633 105.151 54.0583 108.607 52.075C112.064 50.0917 115.861 49.1 119.997 49.1C124.361 49.1 128.186 50.0633 131.472 51.99C134.759 53.86 137.337 56.5517 139.207 60.065C141.134 63.5783 142.097 67.8567 142.097 72.9C142.097 73.5233 142.041 74.005 141.927 74.345C141.814 74.685 141.389 74.8833 140.652 74.94H111.752C111.412 74.94 111.157 75.0533 110.987 75.28C110.817 75.5067 110.732 75.8467 110.732 76.3ZM127.817 67.8C128.441 67.8 128.837 67.7433 129.007 67.63C129.177 67.46 129.262 67.12 129.262 66.61C129.262 65.1933 128.922 63.7483 128.242 62.275C127.619 60.8017 126.656 59.5833 125.352 58.62C124.106 57.6 122.491 57.09 120.507 57.09C118.637 57.09 116.966 57.5433 115.492 58.45C114.019 59.3567 112.886 60.6317 112.092 62.275C111.299 63.8617 110.902 65.675 110.902 67.715L127.817 67.8ZM182.467 95C182.014 95 181.589 94.8867 181.192 94.66C180.852 94.3767 180.682 93.9233 180.682 93.3V90.92C180.682 90.5233 180.569 90.2967 180.342 90.24C180.115 90.1833 179.832 90.2967 179.492 90.58C178.585 91.43 177.565 92.28 176.432 93.13C175.299 93.9233 173.967 94.575 172.437 95.085C170.907 95.595 169.122 95.85 167.082 95.85C163.625 95.85 160.565 95 157.902 93.3C155.239 91.6 153.142 89.05 151.612 85.65C150.082 82.1933 149.317 77.915 149.317 72.815C149.317 68.055 150.139 63.9183 151.782 60.405C153.482 56.835 155.749 54.0583 158.582 52.075C161.415 50.0917 164.532 49.1 167.932 49.1C170.199 49.1 172.21 49.4683 173.967 50.205C175.724 50.9417 177.424 52.075 179.067 53.605C179.52 53.945 179.86 54.0867 180.087 54.03C180.37 53.9167 180.512 53.5483 180.512 52.925V33.46C180.512 32.44 180.965 31.93 181.872 31.93H192.242C193.149 31.93 193.602 32.4683 193.602 33.545V93.215C193.602 93.8383 193.46 94.2917 193.177 94.575C192.894 94.8583 192.384 95 191.647 95H182.467ZM180.512 61.68C179.265 60.32 177.99 59.3 176.687 58.62C175.44 57.8833 173.995 57.515 172.352 57.515C170.482 57.515 168.782 58.0533 167.252 59.13C165.779 60.15 164.617 61.765 163.767 63.975C162.974 66.185 162.577 69.075 162.577 72.645C162.577 76.2717 162.974 79.19 163.767 81.4C164.617 83.61 165.75 85.225 167.167 86.245C168.64 87.2083 170.312 87.69 172.182 87.69C173.769 87.69 175.185 87.3217 176.432 86.585C177.679 85.8483 178.67 84.9133 179.407 83.78C180.144 82.6467 180.512 81.4567 180.512 80.21V61.68ZM231.289 49.95C231.856 49.95 232.252 50.0917 232.479 50.375C232.762 50.6583 232.904 50.9983 232.904 51.395V57.685C232.904 58.535 232.422 58.96 231.459 58.96H224.404C223.837 58.96 223.554 59.2717 223.554 59.895V93.385C223.554 94.4617 223.101 95 222.194 95H211.739C210.889 95 210.464 94.5183 210.464 93.555V59.725C210.464 59.215 210.237 58.96 209.784 58.96H203.664C202.644 58.96 202.134 58.535 202.134 57.685V51.395C202.134 50.9983 202.247 50.6583 202.474 50.375C202.757 50.0917 203.182 49.95 203.749 49.95H209.444C210.124 49.95 210.464 49.525 210.464 48.675V43.49C210.464 39.8633 211.541 37.03 213.694 34.99C215.847 32.95 218.879 31.93 222.789 31.93H231.374C232.621 31.93 233.244 32.525 233.244 33.715L233.329 39.24C233.329 39.6367 233.216 39.9767 232.989 40.26C232.819 40.5433 232.507 40.685 232.054 40.685H227.464C226.217 40.685 225.197 41.1667 224.404 42.13C223.611 43.0367 223.214 44.2267 223.214 45.7V49.015C223.214 49.6383 223.554 49.95 224.234 49.95H231.289ZM252.369 92.96C252.369 93.6967 252.199 94.235 251.859 94.575C251.519 94.8583 250.924 95 250.074 95H241.149C240.412 95 239.902 94.8583 239.619 94.575C239.392 94.2917 239.279 93.8383 239.279 93.215V51.565C239.279 50.4883 239.732 49.95 240.639 49.95H251.094C251.944 49.95 252.369 50.4317 252.369 51.395V92.96ZM252.539 42.385C252.539 43.8017 251.774 44.51 250.244 44.51H241.064C240.327 44.51 239.817 44.34 239.534 44C239.307 43.66 239.194 43.1783 239.194 42.555V33.63C239.194 32.4967 239.676 31.93 240.639 31.93H251.179C252.086 31.93 252.539 32.4683 252.539 33.545V42.385ZM261.888 95C260.698 95 260.103 94.4333 260.103 93.3V51.565C260.103 50.4883 260.557 49.95 261.463 49.95H271.748C272.598 49.95 273.023 50.4317 273.023 51.395V55.56C273.023 55.9 273.108 56.1267 273.278 56.24C273.448 56.3533 273.703 56.24 274.043 55.9C275.517 54.54 276.99 53.35 278.463 52.33C279.937 51.31 281.495 50.5167 283.138 49.95C284.782 49.3833 286.538 49.1 288.408 49.1C292.545 49.1 295.803 50.3183 298.183 52.755C300.62 55.1917 301.838 58.45 301.838 62.53V92.96C301.838 94.32 301.158 95 299.798 95H290.363C289.797 95 289.372 94.8867 289.088 94.66C288.862 94.3767 288.748 93.9233 288.748 93.3V64.57C288.748 62.6433 288.21 61.17 287.133 60.15C286.113 59.0733 284.583 58.535 282.543 58.535C281.353 58.535 280.248 58.7333 279.228 59.13C278.208 59.5267 277.217 60.1217 276.253 60.915C275.29 61.6517 274.27 62.615 273.193 63.805V93.045C273.193 94.3483 272.457 95 270.983 95H261.888Z"/>
</mask>
<path d="M91.0569 92.705C91.2836 93.3283 91.2553 93.8667 90.9719 94.32C90.7453 94.7733 90.3486 95 89.7819 95H77.2869C76.3236 95 75.7003 94.49 75.4169 93.47L66.2369 69.67C65.8969 68.8767 65.1036 68.48 63.8569 68.48H55.7819C55.3853 68.48 55.1019 68.5933 54.9319 68.82C54.8186 69.0467 54.7619 69.245 54.7619 69.415V92.96C54.7619 94.32 53.9969 95 52.4669 95H41.6719C40.9919 95 40.5103 94.8583 40.2269 94.575C40.0003 94.2917 39.8869 93.8667 39.8869 93.3V33.545C39.8869 32.4683 40.3403 31.93 41.2469 31.93H67.7669C75.3603 31.93 81.2536 33.4317 85.4469 36.435C89.6969 39.4383 91.8219 43.7167 91.8219 49.27C91.8219 52.16 91.2836 54.7383 90.2069 57.005C89.1303 59.2717 87.7136 61.17 85.9569 62.7C84.2003 64.1733 82.2736 65.2783 80.1769 66.015C79.6669 66.185 79.5536 66.61 79.8369 67.29L91.0569 92.705ZM66.4069 58.45C69.6369 58.45 72.1019 57.77 73.8019 56.41C75.5586 54.9933 76.4369 52.9533 76.4369 50.29C76.4369 47.5133 75.5586 45.4167 73.8019 44C72.0453 42.5833 69.7219 41.875 66.8319 41.875H56.3769C55.3003 41.875 54.7619 42.3567 54.7619 43.32V57.005C54.7619 57.9683 55.1586 58.45 55.9519 58.45H66.4069ZM110.732 76.3C110.732 78.3967 111.214 80.2667 112.177 81.91C113.197 83.4967 114.529 84.7433 116.172 85.65C117.872 86.5 119.771 86.925 121.867 86.925C123.907 86.925 125.777 86.5 127.477 85.65C129.234 84.7433 130.991 83.27 132.747 81.23C132.974 81.0033 133.172 80.89 133.342 80.89C133.512 80.8333 133.824 80.9183 134.277 81.145L140.397 83.695C141.191 84.035 141.276 84.6017 140.652 85.395C138.839 88.0017 136.941 90.07 134.957 91.6C132.974 93.13 130.764 94.235 128.327 94.915C125.947 95.5383 123.256 95.85 120.252 95.85C115.832 95.85 111.894 94.8867 108.437 92.96C104.981 91.0333 102.232 88.37 100.192 84.97C98.2091 81.5133 97.2174 77.575 97.2174 73.155C97.2174 68.2817 98.2374 64.06 100.277 60.49C102.374 56.8633 105.151 54.0583 108.607 52.075C112.064 50.0917 115.861 49.1 119.997 49.1C124.361 49.1 128.186 50.0633 131.472 51.99C134.759 53.86 137.337 56.5517 139.207 60.065C141.134 63.5783 142.097 67.8567 142.097 72.9C142.097 73.5233 142.041 74.005 141.927 74.345C141.814 74.685 141.389 74.8833 140.652 74.94H111.752C111.412 74.94 111.157 75.0533 110.987 75.28C110.817 75.5067 110.732 75.8467 110.732 76.3ZM127.817 67.8C128.441 67.8 128.837 67.7433 129.007 67.63C129.177 67.46 129.262 67.12 129.262 66.61C129.262 65.1933 128.922 63.7483 128.242 62.275C127.619 60.8017 126.656 59.5833 125.352 58.62C124.106 57.6 122.491 57.09 120.507 57.09C118.637 57.09 116.966 57.5433 115.492 58.45C114.019 59.3567 112.886 60.6317 112.092 62.275C111.299 63.8617 110.902 65.675 110.902 67.715L127.817 67.8ZM182.467 95C182.014 95 181.589 94.8867 181.192 94.66C180.852 94.3767 180.682 93.9233 180.682 93.3V90.92C180.682 90.5233 180.569 90.2967 180.342 90.24C180.115 90.1833 179.832 90.2967 179.492 90.58C178.585 91.43 177.565 92.28 176.432 93.13C175.299 93.9233 173.967 94.575 172.437 95.085C170.907 95.595 169.122 95.85 167.082 95.85C163.625 95.85 160.565 95 157.902 93.3C155.239 91.6 153.142 89.05 151.612 85.65C150.082 82.1933 149.317 77.915 149.317 72.815C149.317 68.055 150.139 63.9183 151.782 60.405C153.482 56.835 155.749 54.0583 158.582 52.075C161.415 50.0917 164.532 49.1 167.932 49.1C170.199 49.1 172.21 49.4683 173.967 50.205C175.724 50.9417 177.424 52.075 179.067 53.605C179.52 53.945 179.86 54.0867 180.087 54.03C180.37 53.9167 180.512 53.5483 180.512 52.925V33.46C180.512 32.44 180.965 31.93 181.872 31.93H192.242C193.149 31.93 193.602 32.4683 193.602 33.545V93.215C193.602 93.8383 193.46 94.2917 193.177 94.575C192.894 94.8583 192.384 95 191.647 95H182.467ZM180.512 61.68C179.265 60.32 177.99 59.3 176.687 58.62C175.44 57.8833 173.995 57.515 172.352 57.515C170.482 57.515 168.782 58.0533 167.252 59.13C165.779 60.15 164.617 61.765 163.767 63.975C162.974 66.185 162.577 69.075 162.577 72.645C162.577 76.2717 162.974 79.19 163.767 81.4C164.617 83.61 165.75 85.225 167.167 86.245C168.64 87.2083 170.312 87.69 172.182 87.69C173.769 87.69 175.185 87.3217 176.432 86.585C177.679 85.8483 178.67 84.9133 179.407 83.78C180.144 82.6467 180.512 81.4567 180.512 80.21V61.68ZM231.289 49.95C231.856 49.95 232.252 50.0917 232.479 50.375C232.762 50.6583 232.904 50.9983 232.904 51.395V57.685C232.904 58.535 232.422 58.96 231.459 58.96H224.404C223.837 58.96 223.554 59.2717 223.554 59.895V93.385C223.554 94.4617 223.101 95 222.194 95H211.739C210.889 95 210.464 94.5183 210.464 93.555V59.725C210.464 59.215 210.237 58.96 209.784 58.96H203.664C202.644 58.96 202.134 58.535 202.134 57.685V51.395C202.134 50.9983 202.247 50.6583 202.474 50.375C202.757 50.0917 203.182 49.95 203.749 49.95H209.444C210.124 49.95 210.464 49.525 210.464 48.675V43.49C210.464 39.8633 211.541 37.03 213.694 34.99C215.847 32.95 218.879 31.93 222.789 31.93H231.374C232.621 31.93 233.244 32.525 233.244 33.715L233.329 39.24C233.329 39.6367 233.216 39.9767 232.989 40.26C232.819 40.5433 232.507 40.685 232.054 40.685H227.464C226.217 40.685 225.197 41.1667 224.404 42.13C223.611 43.0367 223.214 44.2267 223.214 45.7V49.015C223.214 49.6383 223.554 49.95 224.234 49.95H231.289ZM252.369 92.96C252.369 93.6967 252.199 94.235 251.859 94.575C251.519 94.8583 250.924 95 250.074 95H241.149C240.412 95 239.902 94.8583 239.619 94.575C239.392 94.2917 239.279 93.8383 239.279 93.215V51.565C239.279 50.4883 239.732 49.95 240.639 49.95H251.094C251.944 49.95 252.369 50.4317 252.369 51.395V92.96ZM252.539 42.385C252.539 43.8017 251.774 44.51 250.244 44.51H241.064C240.327 44.51 239.817 44.34 239.534 44C239.307 43.66 239.194 43.1783 239.194 42.555V33.63C239.194 32.4967 239.676 31.93 240.639 31.93H251.179C252.086 31.93 252.539 32.4683 252.539 33.545V42.385ZM261.888 95C260.698 95 260.103 94.4333 260.103 93.3V51.565C260.103 50.4883 260.557 49.95 261.463 49.95H271.748C272.598 49.95 273.023 50.4317 273.023 51.395V55.56C273.023 55.9 273.108 56.1267 273.278 56.24C273.448 56.3533 273.703 56.24 274.043 55.9C275.517 54.54 276.99 53.35 278.463 52.33C279.937 51.31 281.495 50.5167 283.138 49.95C284.782 49.3833 286.538 49.1 288.408 49.1C292.545 49.1 295.803 50.3183 298.183 52.755C300.62 55.1917 301.838 58.45 301.838 62.53V92.96C301.838 94.32 301.158 95 299.798 95H290.363C289.797 95 289.372 94.8867 289.088 94.66C288.862 94.3767 288.748 93.9233 288.748 93.3V64.57C288.748 62.6433 288.21 61.17 287.133 60.15C286.113 59.0733 284.583 58.535 282.543 58.535C281.353 58.535 280.248 58.7333 279.228 59.13C278.208 59.5267 277.217 60.1217 276.253 60.915C275.29 61.6517 274.27 62.615 273.193 63.805V93.045C273.193 94.3483 272.457 95 270.983 95H261.888Z" fill="#B12929"/>
<path d="M91.0569 92.705L94.8161 91.338L94.7703 91.2121L94.7162 91.0895L91.0569 92.705ZM90.9719 94.32L87.5799 92.2L87.4792 92.3612L87.3942 92.5312L90.9719 94.32ZM75.4169 93.47L79.271 92.3994L79.2189 92.212L79.1489 92.0305L75.4169 93.47ZM66.2369 69.67L69.9689 68.2305L69.9425 68.1619L69.9135 68.0943L66.2369 69.67ZM54.9319 68.82L51.7319 66.42L51.5155 66.7085L51.3542 67.0311L54.9319 68.82ZM40.2269 94.575L37.1034 97.0738L37.2418 97.2468L37.3985 97.4034L40.2269 94.575ZM85.4469 36.435L83.1178 39.687L83.1281 39.6943L83.1385 39.7017L85.4469 36.435ZM90.2069 57.005L93.82 58.7212L93.82 58.7212L90.2069 57.005ZM85.9569 62.7L88.5274 65.7648L88.5559 65.7408L88.584 65.7163L85.9569 62.7ZM80.1769 66.015L81.4418 69.8097L81.4724 69.7995L81.5029 69.7888L80.1769 66.015ZM79.8369 67.29L76.1446 68.8285L76.1607 68.8671L76.1777 68.9055L79.8369 67.29ZM73.8019 56.41L76.3007 59.5335L76.3068 59.5286L76.3129 59.5236L73.8019 56.41ZM87.2978 94.072C87.2687 93.992 87.1915 93.7413 87.2112 93.366C87.2324 92.9637 87.3589 92.5536 87.5799 92.2L94.3639 96.44C95.4554 94.6937 95.3517 92.8109 94.8161 91.338L87.2978 94.072ZM87.3942 92.5312C87.5939 92.1318 87.9585 91.6778 88.5199 91.357C89.0551 91.0512 89.5347 91 89.7819 91V99C90.5958 99 91.5571 98.8355 92.489 98.303C93.447 97.7556 94.1233 96.9616 94.5496 96.1088L87.3942 92.5312ZM89.7819 91H77.2869V99H89.7819V91ZM77.2869 91C77.5401 91 78.0935 91.0828 78.6299 91.5217C79.1307 91.9314 79.2606 92.362 79.271 92.3994L71.5629 94.5406C71.8566 95.598 72.4398 96.7936 73.564 97.7133C74.7237 98.6622 76.0704 99 77.2869 99V91ZM79.1489 92.0305L69.9689 68.2305L62.5049 71.1095L71.6849 94.9095L79.1489 92.0305ZM69.9135 68.0943C68.6708 65.1947 65.8745 64.48 63.8569 64.48V72.48C64.0955 72.48 63.9353 72.5238 63.5981 72.3552C63.4156 72.2639 63.2023 72.12 63.0004 71.908C62.7974 71.6948 62.6533 71.4626 62.5603 71.2457L69.9135 68.0943ZM63.8569 64.48H55.7819V72.48H63.8569V64.48ZM55.7819 64.48C54.6626 64.48 52.9297 64.8229 51.7319 66.42L58.1319 71.22C57.7428 71.7388 57.2425 72.0849 56.7575 72.2789C56.3083 72.4586 55.9472 72.48 55.7819 72.48V64.48ZM51.3542 67.0311C51.0882 67.5631 50.7619 68.3945 50.7619 69.415H58.7619C58.7619 69.7709 58.7034 70.0527 58.6505 70.2376C58.5976 70.4228 58.5396 70.549 58.5096 70.6088L51.3542 67.0311ZM50.7619 69.415V92.96H58.7619V69.415H50.7619ZM50.7619 92.96C50.7619 92.8934 50.8023 92.1478 51.5307 91.5004C52.1693 90.9327 52.7238 91 52.4669 91V99C53.74 99 55.442 98.7273 56.8456 97.4796C58.339 96.1522 58.7619 94.3866 58.7619 92.96H50.7619ZM52.4669 91H41.6719V99H52.4669V91ZM41.6719 91C41.5884 91 41.7 90.9888 41.9293 91.0563C42.171 91.1274 42.6186 91.3098 43.0553 91.7466L37.3985 97.4034C38.8105 98.8154 40.6247 99 41.6719 99V91ZM43.3504 92.0762C43.6486 92.4489 43.7804 92.8013 43.8369 93.0131C43.8913 93.2172 43.8869 93.3298 43.8869 93.3H35.8869C35.8869 94.294 36.0682 95.7798 37.1034 97.0738L43.3504 92.0762ZM43.8869 93.3V33.545H35.8869V93.3H43.8869ZM43.8869 33.545C43.8869 33.5493 43.8868 33.584 43.8795 33.6442C43.8723 33.7043 43.8569 33.799 43.8231 33.9195C43.7547 34.1631 43.6043 34.533 43.2866 34.9103C42.5455 35.7903 41.6077 35.93 41.2469 35.93V27.93C39.9795 27.93 38.3617 28.3388 37.1673 29.7572C36.0837 31.0439 35.8869 32.5418 35.8869 33.545H43.8869ZM41.2469 35.93H67.7669V27.93H41.2469V35.93ZM67.7669 35.93C74.9005 35.93 79.8559 37.3507 83.1178 39.687L87.776 33.183C82.6513 29.5126 75.82 27.93 67.7669 27.93V35.93ZM83.1385 39.7017C86.2466 41.898 87.8219 44.913 87.8219 49.27H95.8219C95.8219 42.5203 93.1473 36.9786 87.7554 33.1683L83.1385 39.7017ZM87.8219 49.27C87.8219 51.6562 87.3798 53.6341 86.5938 55.2888L93.82 58.7212C95.1874 55.8426 95.8219 52.6638 95.8219 49.27H87.8219ZM86.5938 55.2888C85.7346 57.0977 84.6407 58.5419 83.3298 59.6837L88.584 65.7163C90.7864 63.7981 92.526 61.4456 93.82 58.7212L86.5938 55.2888ZM83.3865 59.6352C81.9867 60.8092 80.4791 61.6691 78.851 62.2412L81.5029 69.7888C84.0681 68.8876 86.4138 67.5374 88.5274 65.7648L83.3865 59.6352ZM78.912 62.2203C77.7053 62.6225 76.3276 63.6189 75.8445 65.4306C75.4522 66.9016 75.8723 68.1748 76.1446 68.8285L83.5292 65.7515C83.5459 65.7915 83.6117 65.9557 83.6523 66.2196C83.6932 66.4853 83.7215 66.9401 83.5744 67.4919C83.4174 68.0805 83.0963 68.6393 82.6307 69.0837C82.19 69.5044 81.7388 69.7108 81.4418 69.8097L78.912 62.2203ZM76.1777 68.9055L87.3977 94.3205L94.7162 91.0895L83.4962 65.6745L76.1777 68.9055ZM66.4069 62.45C70.1226 62.45 73.6199 61.6781 76.3007 59.5335L71.3031 53.2865C70.5839 53.8619 69.1513 54.45 66.4069 54.45V62.45ZM76.3129 59.5236C79.1854 57.2071 80.4369 53.9199 80.4369 50.29H72.4369C72.4369 51.9868 71.9318 52.7795 71.2909 53.2963L76.3129 59.5236ZM80.4369 50.29C80.4369 46.6104 79.2265 43.236 76.3129 40.8863L71.2909 47.1137C71.8907 47.5973 72.4369 48.4162 72.4369 50.29H80.4369ZM76.3129 40.8863C73.6658 38.7515 70.3751 37.875 66.8319 37.875V45.875C69.0688 45.875 70.4247 46.4151 71.2909 47.1137L76.3129 40.8863ZM66.8319 37.875H56.3769V45.875H66.8319V37.875ZM56.3769 37.875C55.325 37.875 53.7889 38.1007 52.4985 39.2553C51.1234 40.4857 50.7619 42.0996 50.7619 43.32H58.7619C58.7619 43.5771 58.6697 44.4685 57.8328 45.2172C57.4611 45.5498 57.0828 45.7182 56.8136 45.7985C56.5582 45.8746 56.3932 45.875 56.3769 45.875V37.875ZM50.7619 43.32V57.005H58.7619V43.32H50.7619ZM50.7619 57.005C50.7619 57.9348 50.9375 59.3758 51.9717 60.6316C53.1283 62.0361 54.7118 62.45 55.9519 62.45V54.45C56.3987 54.45 57.3872 54.6231 58.1471 55.5459C58.4706 55.9387 58.6234 56.3228 58.6936 56.5783C58.7612 56.8246 58.7619 56.9844 58.7619 57.005H50.7619ZM55.9519 62.45H66.4069V54.45H55.9519V62.45ZM112.177 81.91L108.727 83.9329L108.768 84.0038L108.813 84.073L112.177 81.91ZM116.172 85.65L114.24 89.1523L114.311 89.1915L114.384 89.2277L116.172 85.65ZM127.477 85.65L129.266 89.2277L129.289 89.2162L129.312 89.2045L127.477 85.65ZM132.747 81.23L129.919 78.4016L129.814 78.507L129.716 78.6199L132.747 81.23ZM133.342 80.89V84.89H133.992L134.607 84.6847L133.342 80.89ZM134.277 81.145L132.489 84.7227L132.612 84.7843L132.739 84.8373L134.277 81.145ZM140.397 83.695L141.973 80.0184L141.955 80.0105L141.936 80.0027L140.397 83.695ZM140.652 85.395L137.507 82.9237L137.435 83.0152L137.369 83.1107L140.652 85.395ZM134.957 91.6L132.514 88.4329L134.957 91.6ZM128.327 94.915L129.341 98.7845L129.372 98.7764L129.403 98.7678L128.327 94.915ZM108.437 92.96L106.49 96.4539L108.437 92.96ZM100.192 84.97L96.723 86.9607L96.7424 86.9945L96.7625 87.028L100.192 84.97ZM100.277 60.49L96.8145 58.488L96.8094 58.4967L96.8045 58.5054L100.277 60.49ZM108.607 52.075L110.598 55.5445L108.607 52.075ZM131.472 51.99L129.45 55.4408L129.472 55.4539L129.494 55.4667L131.472 51.99ZM139.207 60.065L135.676 61.9444L135.688 61.9664L135.7 61.9883L139.207 60.065ZM141.927 74.345L145.722 75.6099L145.722 75.6099L141.927 74.345ZM140.652 74.94V78.94H140.806L140.959 78.9282L140.652 74.94ZM110.987 75.28L107.787 72.88V72.88L110.987 75.28ZM127.817 67.8L127.797 71.7999L127.807 71.8H127.817V67.8ZM129.007 67.63L131.226 70.9582L131.556 70.7385L131.836 70.4584L129.007 67.63ZM128.242 62.275L124.559 63.8336L124.584 63.8928L124.611 63.9512L128.242 62.275ZM125.352 58.62L122.819 61.7158L122.896 61.7782L122.975 61.8367L125.352 58.62ZM115.492 58.45L117.589 61.8566H117.589L115.492 58.45ZM112.092 62.275L115.67 64.0639L115.683 64.039L115.695 64.014L112.092 62.275ZM110.902 67.715H106.902V71.6949L110.882 71.715L110.902 67.715ZM106.732 76.3C106.732 79.0342 107.368 81.6155 108.727 83.9329L115.628 79.8871C115.06 78.9178 114.732 77.7592 114.732 76.3H106.732ZM108.813 84.073C110.19 86.2151 112.013 87.9233 114.24 89.1523L118.105 82.1477C117.046 81.5634 116.205 80.7782 115.542 79.747L108.813 84.073ZM114.384 89.2277C116.694 90.3831 119.215 90.925 121.867 90.925V82.925C120.327 82.925 119.051 82.6169 117.961 82.0723L114.384 89.2277ZM121.867 90.925C124.482 90.925 126.971 90.3755 129.266 89.2277L125.689 82.0723C124.584 82.6245 123.333 82.925 121.867 82.925V90.925ZM129.312 89.2045C131.657 87.9942 133.801 86.1369 135.779 83.8401L129.716 78.6199C128.181 80.4031 126.811 81.4924 125.643 82.0955L129.312 89.2045ZM135.576 84.0584C135.53 84.1038 135.356 84.2733 135.051 84.448C134.746 84.6223 134.153 84.89 133.342 84.89V76.89C131.495 76.89 130.302 78.0182 129.919 78.4016L135.576 84.0584ZM134.607 84.6847C134.031 84.8767 133.544 84.8838 133.262 84.8672C132.97 84.85 132.757 84.7991 132.651 84.7703C132.452 84.716 132.381 84.6688 132.489 84.7227L136.066 77.5673C135.721 77.3945 135.267 77.1915 134.756 77.0522C134.369 76.9467 133.303 76.6867 132.078 77.0953L134.607 84.6847ZM132.739 84.8373L138.859 87.3873L141.936 80.0027L135.816 77.4527L132.739 84.8373ZM138.822 87.3716C138.636 87.2918 137.355 86.6633 137.1 84.9684C136.992 84.2452 137.146 83.6781 137.268 83.3703C137.33 83.2145 137.391 83.1023 137.432 83.0357C137.473 82.9683 137.502 82.9308 137.507 82.9237L143.798 87.8663C144.308 87.2167 145.306 85.7398 145.012 83.7816C144.673 81.52 142.953 80.4382 141.973 80.0184L138.822 87.3716ZM137.369 83.1107C135.729 85.4673 134.101 87.2089 132.514 88.4329L137.401 94.7671C139.781 92.9311 141.949 90.5361 143.936 87.6793L137.369 83.1107ZM132.514 88.4329C130.943 89.6452 129.198 90.5192 127.252 91.0622L129.403 98.7678C132.33 97.9508 135.006 96.6148 137.401 94.7671L132.514 88.4329ZM127.314 91.0455C125.328 91.5656 122.986 91.85 120.252 91.85V99.85C123.526 99.85 126.567 99.511 129.341 98.7845L127.314 91.0455ZM120.252 91.85C116.433 91.85 113.179 91.0234 110.385 89.4661L106.49 96.4539C110.609 98.7499 115.232 99.85 120.252 99.85V91.85ZM110.385 89.4661C107.541 87.8808 105.303 85.7132 103.622 82.912L96.7625 87.028C99.1618 91.0268 102.421 94.1858 106.49 96.4539L110.385 89.4661ZM103.662 82.9793C102.063 80.1928 101.217 76.9545 101.217 73.155H93.2174C93.2174 78.1954 94.3551 82.8339 96.723 86.9607L103.662 82.9793ZM101.217 73.155C101.217 68.8483 102.115 65.3369 103.75 62.4746L96.8045 58.5054C94.3601 62.7831 93.2174 67.715 93.2174 73.155H101.217ZM103.74 62.492C105.503 59.4432 107.785 57.1587 110.598 55.5445L106.617 48.6055C102.517 50.9579 99.2452 54.2835 96.8145 58.488L103.74 62.492ZM110.598 55.5445C113.425 53.9223 116.532 53.1 119.997 53.1V45.1C115.19 45.1 110.703 46.2611 106.617 48.6055L110.598 55.5445ZM119.997 53.1C123.755 53.1 126.861 53.9234 129.45 55.4408L133.495 48.5392C129.51 46.2033 124.967 45.1 119.997 45.1V53.1ZM129.494 55.4667C132.087 56.9419 134.143 59.063 135.676 61.9444L142.738 58.1856C140.532 54.0404 137.431 50.7781 133.451 48.5133L129.494 55.4667ZM135.7 61.9883C137.23 64.7787 138.097 68.3583 138.097 72.9H146.097C146.097 67.355 145.038 62.378 142.715 58.1417L135.7 61.9883ZM138.097 72.9C138.097 73.097 138.088 73.2121 138.082 73.2614C138.08 73.284 138.079 73.2797 138.085 73.253C138.09 73.2272 138.104 73.1666 138.133 73.0801L145.722 75.6099C146.036 74.668 146.097 73.685 146.097 72.9H138.097ZM138.133 73.0801C138.522 71.913 139.372 71.339 139.832 71.124C140.233 70.937 140.478 70.9416 140.346 70.9518L140.959 78.9282C141.563 78.8818 142.39 78.7588 143.215 78.3735C144.101 77.9602 145.22 77.117 145.722 75.6099L138.133 73.0801ZM140.652 70.94H111.752V78.94H140.652V70.94ZM111.752 70.94C110.436 70.94 108.868 71.4393 107.787 72.88L114.187 77.68C113.87 78.1039 113.437 78.4553 112.931 78.6802C112.448 78.8949 112.023 78.94 111.752 78.94V70.94ZM107.787 72.88C106.869 74.1042 106.732 75.462 106.732 76.3H114.732C114.732 76.3103 114.733 76.451 114.677 76.6751C114.62 76.9035 114.488 77.2787 114.187 77.68L107.787 72.88ZM127.817 71.8C128.227 71.8 128.69 71.7828 129.148 71.7173C129.476 71.6705 130.364 71.5328 131.226 70.9582L126.789 64.3018C127.187 64.0362 127.533 63.9194 127.688 63.8731C127.862 63.821 127.983 63.8026 128.017 63.7977C128.079 63.7889 128.031 63.8 127.817 63.8V71.8ZM131.836 70.4584C132.616 69.6779 132.937 68.7886 133.079 68.2176C133.228 67.6224 133.262 67.0581 133.262 66.61H125.262C125.262 66.6719 125.254 66.5326 125.318 66.2774C125.376 66.0464 125.569 65.412 126.179 64.8016L131.836 70.4584ZM133.262 66.61C133.262 64.536 132.762 62.5213 131.874 60.5988L124.611 63.9512C125.083 64.9753 125.262 65.8507 125.262 66.61H133.262ZM131.926 60.7164C131.02 58.5744 129.601 56.7865 127.73 55.4033L122.975 61.8367C123.71 62.3801 124.218 63.029 124.559 63.8336L131.926 60.7164ZM127.885 55.5242C125.77 53.7937 123.194 53.09 120.507 53.09V61.09C121.788 61.09 122.441 61.4063 122.819 61.7158L127.885 55.5242ZM120.507 53.09C117.959 53.09 115.551 53.7174 113.396 55.0434L117.589 61.8566C118.381 61.3693 119.315 61.09 120.507 61.09V53.09ZM113.396 55.0434C111.235 56.3731 109.597 58.2439 108.49 60.536L115.695 64.014C116.175 63.0194 116.803 62.3403 117.589 61.8566L113.396 55.0434ZM108.515 60.4861C107.405 62.7061 106.902 65.1474 106.902 67.715H114.902C114.902 66.2026 115.193 65.0172 115.67 64.0639L108.515 60.4861ZM110.882 71.715L127.797 71.7999L127.838 63.8L110.923 63.715L110.882 71.715ZM181.192 94.66L178.631 97.7329L178.902 97.9583L179.208 98.133L181.192 94.66ZM180.342 90.24L181.312 86.3594H181.312L180.342 90.24ZM179.492 90.58L176.931 87.5071L176.842 87.5819L176.756 87.6618L179.492 90.58ZM176.432 93.13L178.726 96.4069L178.78 96.3693L178.832 96.33L176.432 93.13ZM172.437 95.085L171.172 91.2903L172.437 95.085ZM157.902 93.3L155.75 96.6717L157.902 93.3ZM151.612 85.65L147.954 87.269L147.959 87.2802L147.964 87.2915L151.612 85.65ZM151.782 60.405L148.171 58.6853L148.165 58.6977L148.159 58.7103L151.782 60.405ZM158.582 52.075L160.876 55.3519L158.582 52.075ZM179.067 53.605L176.341 56.5326L176.497 56.6774L176.667 56.805L179.067 53.605ZM180.087 54.03L181.057 57.9106L181.321 57.8447L181.573 57.7439L180.087 54.03ZM180.512 61.68H184.512V60.1241L183.461 58.9771L180.512 61.68ZM176.687 58.62L174.652 62.0637L174.743 62.1175L174.837 62.1663L176.687 58.62ZM167.252 59.13L169.529 62.4188L169.542 62.41L169.554 62.4012L167.252 59.13ZM163.767 63.975L160.034 62.5391L160.018 62.5811L160.002 62.6235L163.767 63.975ZM163.767 81.4L160.002 82.7515L160.018 82.7939L160.034 82.8359L163.767 81.4ZM167.167 86.245L164.83 89.4911L164.903 89.5437L164.978 89.5929L167.167 86.245ZM176.432 86.585L178.467 90.0287V90.0287L176.432 86.585ZM179.407 83.78L182.761 85.96L179.407 83.78ZM182.467 91C182.578 91 182.705 91.0144 182.839 91.0501C182.973 91.0857 183.087 91.1357 183.177 91.187L179.208 98.133C180.204 98.7022 181.312 99 182.467 99V91ZM183.753 91.5871C184.165 91.9305 184.42 92.3429 184.555 92.703C184.679 93.0338 184.682 93.2633 184.682 93.3H176.682C176.682 94.6047 177.052 96.4163 178.631 97.7329L183.753 91.5871ZM184.682 93.3V90.92H176.682V93.3H184.682ZM184.682 90.92C184.682 90.4167 184.622 89.559 184.175 88.6637C183.646 87.6059 182.663 86.697 181.312 86.3594L179.372 94.1206C178.248 93.8396 177.435 93.0724 177.019 92.2413C176.685 91.5727 176.682 91.0266 176.682 90.92H184.682ZM181.312 86.3594C179.086 85.8028 177.43 87.0912 176.931 87.5071L182.053 93.6529C182.032 93.6701 181.826 93.8441 181.445 93.9964C181.044 94.1568 180.292 94.3506 179.372 94.1206L181.312 86.3594ZM176.756 87.6618C175.97 88.3992 175.064 89.1559 174.032 89.93L178.832 96.33C180.067 95.4041 181.201 94.4608 182.228 93.4981L176.756 87.6618ZM174.138 89.8531C173.368 90.392 172.395 90.8826 171.172 91.2903L173.702 98.8797C175.539 98.2674 177.229 97.4547 178.726 96.4069L174.138 89.8531ZM171.172 91.2903C170.142 91.6338 168.801 91.85 167.082 91.85V99.85C169.444 99.85 171.673 99.5562 173.702 98.8797L171.172 91.2903ZM167.082 91.85C164.314 91.85 162.015 91.1797 160.054 89.9283L155.75 96.6717C159.116 98.8203 162.937 99.85 167.082 99.85V91.85ZM160.054 89.9283C158.158 88.7179 156.529 86.8287 155.26 84.0085L147.964 87.2915C149.755 91.2713 152.32 94.4821 155.75 96.6717L160.054 89.9283ZM155.27 84.031C154.03 81.2292 153.317 77.5413 153.317 72.815H145.317C145.317 78.2887 146.135 83.1575 147.954 87.269L155.27 84.031ZM153.317 72.815C153.317 68.5105 154.06 64.9761 155.405 62.0997L148.159 58.7103C146.218 62.8606 145.317 67.5995 145.317 72.815H153.317ZM155.394 62.1247C156.84 59.0882 158.686 56.8849 160.876 55.3519L156.288 48.7981C152.812 51.2318 150.125 54.5818 148.171 58.6853L155.394 62.1247ZM160.876 55.3519C163.049 53.8306 165.368 53.1 167.932 53.1V45.1C163.696 45.1 159.782 46.3528 156.288 48.7981L160.876 55.3519ZM167.932 53.1C169.767 53.1 171.237 53.3976 172.42 53.8938L175.514 46.5162C173.184 45.539 170.631 45.1 167.932 45.1V53.1ZM172.42 53.8938C173.672 54.4188 174.983 55.2676 176.341 56.5326L181.793 50.6774C179.865 48.8824 177.775 47.4645 175.514 46.5162L172.42 53.8938ZM176.667 56.805C177.033 57.0797 177.53 57.411 178.124 57.6586C178.662 57.8827 179.751 58.237 181.057 57.9106L179.117 50.1494C180.196 49.8796 181.003 50.1914 181.201 50.2739C181.455 50.3798 181.554 50.4703 181.467 50.405L176.667 56.805ZM181.573 57.7439C183.03 57.161 183.793 56.0059 184.139 55.1047C184.458 54.275 184.512 53.4761 184.512 52.925H176.512C176.512 52.9972 176.495 52.6942 176.672 52.2328C176.877 51.6999 177.428 50.7856 178.602 50.3161L181.573 57.7439ZM184.512 52.925V33.46H176.512V52.925H184.512ZM184.512 33.46C184.512 33.4884 184.51 33.6634 184.432 33.927C184.35 34.204 184.179 34.5904 183.842 34.97C183.081 35.8259 182.165 35.93 181.872 35.93V27.93C180.672 27.93 179.077 28.2891 177.862 29.655C176.728 30.9312 176.512 32.4419 176.512 33.46H184.512ZM181.872 35.93H192.242V27.93H181.872V35.93ZM192.242 35.93C191.881 35.93 190.944 35.7903 190.202 34.9103C189.885 34.533 189.734 34.163 189.666 33.9195C189.632 33.799 189.617 33.7043 189.609 33.6442C189.602 33.584 189.602 33.5493 189.602 33.545H197.602C197.602 32.5418 197.405 31.0439 196.322 29.7572C195.127 28.3388 193.51 27.93 192.242 27.93V35.93ZM189.602 33.545V93.215H197.602V33.545H189.602ZM189.602 93.215C189.602 93.2408 189.597 93.0879 189.678 92.8294C189.764 92.553 189.956 92.1396 190.349 91.7466L196.006 97.4034C197.365 96.0435 197.602 94.3252 197.602 93.215H189.602ZM190.349 91.7466C190.827 91.2685 191.308 91.0961 191.512 91.0397C191.711 90.9842 191.784 91 191.647 91V99C192.64 99 194.549 98.8597 196.006 97.4034L190.349 91.7466ZM191.647 91H182.467V99H191.647V91ZM183.461 58.9771C181.977 57.358 180.343 56.0158 178.537 55.0737L174.837 62.1663C175.638 62.5842 176.554 63.282 177.563 64.3829L183.461 58.9771ZM178.722 55.1763C176.779 54.0284 174.613 53.515 172.352 53.515V61.515C173.378 61.515 174.101 61.7383 174.652 62.0637L178.722 55.1763ZM172.352 53.515C169.658 53.515 167.154 54.3081 164.95 55.8588L169.554 62.4012C170.41 61.7986 171.307 61.515 172.352 61.515V53.515ZM164.975 55.8412C162.659 57.4446 161.081 59.8167 160.034 62.5391L167.501 65.4109C168.153 63.7133 168.898 62.8554 169.529 62.4188L164.975 55.8412ZM160.002 62.6235C158.994 65.4312 158.577 68.8288 158.577 72.645H166.577C166.577 69.3212 166.953 66.9388 167.532 65.3265L160.002 62.6235ZM158.577 72.645C158.577 76.5093 158.993 79.9385 160.002 82.7515L167.532 80.0485C166.955 78.4415 166.577 76.034 166.577 72.645H158.577ZM160.034 82.8359C161.066 85.5206 162.594 87.881 164.83 89.4911L169.504 82.9989C168.907 82.569 168.168 81.6994 167.501 79.9641L160.034 82.8359ZM164.978 89.5929C167.144 91.0087 169.585 91.69 172.182 91.69V83.69C171.039 83.69 170.137 83.408 169.356 82.8971L164.978 89.5929ZM172.182 91.69C174.414 91.69 176.546 91.1639 178.467 90.0287L174.397 83.1413C173.825 83.4795 173.124 83.69 172.182 83.69V91.69ZM178.467 90.0287C180.206 89.001 181.664 87.647 182.761 85.96L176.053 81.6C175.677 82.1796 175.151 82.6956 174.397 83.1413L178.467 90.0287ZM182.761 85.96C183.882 84.2348 184.512 82.2958 184.512 80.21H176.512C176.512 80.6175 176.405 81.0585 176.053 81.6001L182.761 85.96ZM184.512 80.21V61.68H176.512V80.21H184.512ZM232.479 50.375L229.356 52.8738L229.494 53.0468L229.651 53.2034L232.479 50.375ZM202.474 50.375L199.646 47.5466L199.489 47.7032L199.351 47.8762L202.474 50.375ZM213.694 34.99L210.943 32.0862V32.0862L213.694 34.99ZM233.244 33.715H229.244V33.7458L229.244 33.7765L233.244 33.715ZM233.329 39.24H237.329V39.2092L237.329 39.1785L233.329 39.24ZM232.989 40.26L229.866 37.7612L229.697 37.9713L229.559 38.202L232.989 40.26ZM224.404 42.13L227.414 44.764L227.454 44.719L227.492 44.6728L224.404 42.13ZM251.859 94.575L254.42 97.6479L254.559 97.5317L254.687 97.4034L251.859 94.575ZM239.619 94.575L236.496 97.0738L236.634 97.2468L236.791 97.4034L239.619 94.575ZM239.534 44L236.206 46.2188L236.324 46.3966L236.461 46.5607L239.534 44ZM231.289 53.95C231.262 53.95 231.02 53.9496 230.666 53.8232C230.28 53.6853 229.776 53.3996 229.356 52.8738L235.602 47.8762C234.272 46.2127 232.383 45.95 231.289 45.95V53.95ZM229.651 53.2034C229.455 53.0083 229.253 52.7341 229.105 52.381C228.958 52.027 228.904 51.6837 228.904 51.395H236.904C236.904 49.9254 236.332 48.5715 235.307 47.5466L229.651 53.2034ZM228.904 51.395V57.685H236.904V51.395H228.904ZM228.904 57.685C228.904 57.3545 229.021 56.4144 229.896 55.6419C230.676 54.9536 231.439 54.96 231.459 54.96V62.96C232.443 62.96 233.928 62.7539 235.189 61.6406C236.546 60.4431 236.904 58.8655 236.904 57.685H228.904ZM231.459 54.96H224.404V62.96H231.459V54.96ZM224.404 54.96C223.401 54.96 221.943 55.2535 220.807 56.5031C219.736 57.6803 219.554 59.0561 219.554 59.895H227.554C227.554 60.1106 227.513 61.0188 226.726 61.8844C225.874 62.8224 224.841 62.96 224.404 62.96V54.96ZM219.554 59.895V93.385H227.554V59.895H219.554ZM219.554 93.385C219.554 93.3807 219.554 93.346 219.561 93.2858C219.569 93.2257 219.584 93.131 219.618 93.0105C219.686 92.7669 219.837 92.397 220.154 92.0197C220.895 91.1397 221.833 91 222.194 91V99C223.461 99 225.079 98.5912 226.274 97.1728C227.357 95.8861 227.554 94.3882 227.554 93.385H219.554ZM222.194 91H211.739V99H222.194V91ZM211.739 91C212.07 91 213.01 91.1167 213.782 91.9923C214.47 92.7723 214.464 93.5347 214.464 93.555H206.464C206.464 94.5387 206.67 96.0235 207.783 97.2852C208.981 98.6425 210.558 99 211.739 99V91ZM214.464 93.555V59.725H206.464V93.555H214.464ZM214.464 59.725C214.464 58.9619 214.305 57.6424 213.284 56.4938C212.183 55.2554 210.757 54.96 209.784 54.96V62.96C209.264 62.96 208.178 62.7921 207.304 61.8087C206.51 60.9151 206.464 59.9781 206.464 59.725H214.464ZM209.784 54.96H203.664V62.96H209.784V54.96ZM203.664 54.96C203.674 54.96 203.825 54.9596 204.065 55.0262C204.315 55.0956 204.692 55.2475 205.077 55.5684C205.978 56.3193 206.134 57.2823 206.134 57.685H198.134C198.134 58.9377 198.545 60.5382 199.956 61.7141C201.227 62.7736 202.697 62.96 203.664 62.96V54.96ZM206.134 57.685V51.395H198.134V57.685H206.134ZM206.134 51.395C206.134 51.581 206.107 51.8284 206.014 52.1074C205.919 52.3907 205.775 52.6516 205.597 52.8738L199.351 47.8762C198.503 48.9362 198.134 50.1803 198.134 51.395H206.134ZM205.302 53.2034C204.571 53.9348 203.799 53.95 203.749 53.95V45.95C202.566 45.95 200.944 46.2485 199.646 47.5466L205.302 53.2034ZM203.749 53.95H209.444V45.95H203.749V53.95ZM209.444 53.95C210.667 53.95 212.218 53.5236 213.332 52.13C214.311 50.9069 214.464 49.5274 214.464 48.675H206.464C206.464 48.6726 206.447 47.9306 207.086 47.1325C207.86 46.1639 208.901 45.95 209.444 45.95V53.95ZM214.464 48.675V43.49H206.464V48.675H214.464ZM214.464 43.49C214.464 40.6993 215.261 39.0151 216.445 37.8938L210.943 32.0862C207.82 35.0449 206.464 39.0274 206.464 43.49H214.464ZM216.445 37.8938C217.643 36.7585 219.567 35.93 222.789 35.93V27.93C218.191 27.93 214.051 29.1415 210.943 32.0862L216.445 37.8938ZM222.789 35.93H231.374V27.93H222.789V35.93ZM231.374 35.93C231.372 35.93 231.336 35.93 231.272 35.9212C231.207 35.9124 231.106 35.8937 230.979 35.8533C230.714 35.7689 230.356 35.5955 230.015 35.2697C229.272 34.5607 229.244 33.7852 229.244 33.715H237.244C237.244 32.4548 236.905 30.7868 235.538 29.4828C234.207 28.212 232.569 27.93 231.374 27.93V35.93ZM229.244 33.7765L229.329 39.3015L237.329 39.1785L237.244 33.6535L229.244 33.7765ZM229.329 39.24C229.329 39.054 229.356 38.8065 229.449 38.5276C229.544 38.2443 229.688 37.9833 229.866 37.7612L236.112 42.7588C236.96 41.6988 237.329 40.4547 237.329 39.24H229.329ZM229.559 38.202C229.907 37.6219 230.418 37.1892 230.973 36.9373C231.476 36.7084 231.886 36.685 232.054 36.685V44.685C233.328 44.685 235.269 44.2346 236.419 42.318L229.559 38.202ZM232.054 36.685H227.464V44.685H232.054V36.685ZM227.464 36.685C225.021 36.685 222.869 37.7023 221.316 39.5872L227.492 44.6728C227.526 44.6311 227.542 44.6201 227.534 44.626C227.531 44.6287 227.524 44.6343 227.512 44.6414C227.501 44.6486 227.487 44.6561 227.472 44.6632C227.457 44.6704 227.442 44.6761 227.43 44.6804C227.417 44.6847 227.407 44.687 227.403 44.6879C227.393 44.69 227.411 44.685 227.464 44.685V36.685ZM221.394 39.496C219.828 41.2852 219.214 43.4831 219.214 45.7H227.214C227.214 44.9703 227.393 44.7882 227.414 44.764L221.394 39.496ZM219.214 45.7V49.015H227.214V45.7H219.214ZM219.214 49.015C219.214 50.0371 219.509 51.5124 220.766 52.6649C221.957 53.757 223.359 53.95 224.234 53.95V45.95C224.428 45.95 225.321 45.9872 226.172 46.7676C227.089 47.6085 227.214 48.6162 227.214 49.015H219.214ZM224.234 53.95H231.289V45.95H224.234V53.95ZM248.369 92.96C248.369 93.037 248.358 92.9302 248.427 92.7117C248.502 92.4748 248.673 92.1038 249.031 91.7466L254.687 97.4034C256.094 95.9964 256.369 94.2045 256.369 92.96H248.369ZM249.298 91.5021C249.748 91.1272 250.145 91.0232 250.231 91.0025C250.329 90.9792 250.298 91 250.074 91V99C251.116 99 252.944 98.8773 254.42 97.6479L249.298 91.5021ZM250.074 91H241.149V99H250.074V91ZM241.149 91C241.012 91 241.085 90.9842 241.285 91.0397C241.488 91.0961 241.969 91.2685 242.447 91.7466L236.791 97.4034C238.247 98.8597 240.156 99 241.149 99V91ZM242.742 92.0762C243.076 92.4934 243.2 92.8755 243.245 93.0524C243.289 93.2282 243.279 93.301 243.279 93.215H235.279C235.279 94.1564 235.419 95.7277 236.496 97.0738L242.742 92.0762ZM243.279 93.215V51.565H235.279V93.215H243.279ZM243.279 51.565C243.279 51.5693 243.279 51.604 243.272 51.6642C243.264 51.7243 243.249 51.819 243.215 51.9395C243.147 52.1831 242.996 52.553 242.679 52.9303C241.938 53.8103 241 53.95 240.639 53.95V45.95C239.372 45.95 237.754 46.3588 236.559 47.7772C235.476 49.0639 235.279 50.5618 235.279 51.565H243.279ZM240.639 53.95H251.094V45.95H240.639V53.95ZM251.094 53.95C250.763 53.95 249.823 53.8333 249.051 52.9577C248.363 52.1777 248.369 51.4153 248.369 51.395H256.369C256.369 50.4113 256.163 48.9265 255.05 47.6648C253.852 46.3075 252.275 45.95 251.094 45.95V53.95ZM248.369 51.395V92.96H256.369V51.395H248.369ZM248.539 42.385C248.539 42.3836 248.539 42.3439 248.55 42.2731C248.561 42.2017 248.584 42.0935 248.632 41.9598C248.735 41.6738 248.93 41.3375 249.248 41.0437C249.886 40.4523 250.466 40.51 250.244 40.51V48.51C251.552 48.51 253.279 48.2135 254.683 46.9138C256.145 45.5603 256.539 43.7923 256.539 42.385H248.539ZM250.244 40.51H241.064V48.51H250.244V40.51ZM241.064 40.51C240.978 40.51 241.121 40.4969 241.394 40.5878C241.693 40.6873 242.179 40.9261 242.607 41.4392L236.461 46.5607C237.887 48.2724 239.908 48.51 241.064 48.51V40.51ZM242.862 41.7812C243.063 42.0821 243.142 42.3391 243.173 42.4676C243.202 42.5927 243.194 42.6339 243.194 42.555H235.194C235.194 43.5813 235.367 44.9605 236.206 46.2188L242.862 41.7812ZM243.194 42.555V33.63H235.194V42.555H243.194ZM243.194 33.63C243.194 33.6294 243.194 33.6306 243.194 33.63C243.194 33.6295 243.194 33.6306 243.194 33.6301C243.194 33.6301 243.194 33.6302 243.194 33.6303C243.194 33.6305 243.194 33.6308 243.194 33.6312C243.194 33.6321 243.194 33.6334 243.194 33.635C243.194 33.6384 243.194 33.6436 243.193 33.6504C243.192 33.664 243.191 33.6854 243.187 33.7137C243.181 33.7693 243.166 33.8598 243.133 33.9767C243.066 34.2135 242.917 34.576 242.603 34.9456C241.872 35.8052 240.959 35.93 240.639 35.93V27.93C239.355 27.93 237.72 28.3381 236.507 29.7644C235.401 31.0662 235.194 32.5913 235.194 33.63H243.194ZM240.639 35.93H251.179V27.93H240.639V35.93ZM251.179 35.93C250.818 35.93 249.88 35.7903 249.139 34.9103C248.822 34.533 248.671 34.1631 248.603 33.9195C248.569 33.799 248.554 33.7043 248.546 33.6442C248.539 33.584 248.539 33.5493 248.539 33.545H256.539C256.539 32.5418 256.342 31.0439 255.259 29.7572C254.064 28.3388 252.446 27.93 251.179 27.93V35.93ZM248.539 33.545V42.385H256.539V33.545H248.539ZM273.278 56.24L271.06 59.5682L271.06 59.5682L273.278 56.24ZM274.043 55.9L271.33 52.9608L271.271 53.015L271.215 53.0716L274.043 55.9ZM278.463 52.33L280.74 55.6188L278.463 52.33ZM283.138 49.95L281.834 46.1685L283.138 49.95ZM298.183 52.755L295.322 55.55L295.338 55.5668L295.355 55.5834L298.183 52.755ZM289.088 94.66L285.965 97.1588L286.242 97.5058L286.59 97.7835L289.088 94.66ZM287.133 60.15L284.23 62.901L284.304 62.9795L284.382 63.0538L287.133 60.15ZM279.228 59.13L277.779 55.402V55.402L279.228 59.13ZM276.253 60.915L278.683 64.0924L278.74 64.0486L278.796 64.0027L276.253 60.915ZM273.193 63.805L270.227 61.1213L269.193 62.264V63.805H273.193ZM261.888 91C261.896 91 262.06 90.9995 262.318 91.0813C262.592 91.1685 262.959 91.3462 263.308 91.6785C264.067 92.4011 264.103 93.199 264.103 93.3H256.103C256.103 94.5344 256.437 96.1822 257.791 97.4715C259.108 98.7261 260.724 99 261.888 99V91ZM264.103 93.3V51.565H256.103V93.3H264.103ZM264.103 51.565C264.103 51.5693 264.103 51.604 264.096 51.6642C264.089 51.7243 264.073 51.819 264.039 51.9395C263.971 52.1831 263.821 52.553 263.503 52.9303C262.762 53.8103 261.824 53.95 261.463 53.95V45.95C260.196 45.95 258.578 46.3588 257.384 47.7772C256.3 49.0639 256.103 50.5618 256.103 51.565H264.103ZM261.463 53.95H271.748V45.95H261.463V53.95ZM271.748 53.95C271.418 53.95 270.478 53.8333 269.705 52.9577C269.017 52.1777 269.023 51.4153 269.023 51.395H277.023C277.023 50.4113 276.817 48.9265 275.704 47.6648C274.506 46.3075 272.929 45.95 271.748 45.95V53.95ZM269.023 51.395V55.56H277.023V51.395H269.023ZM269.023 55.56C269.023 56.3382 269.194 58.3243 271.06 59.5682L275.497 52.9118C276.232 53.4016 276.636 54.0576 276.832 54.5805C277.011 55.058 277.023 55.4295 277.023 55.56H269.023ZM271.06 59.5682C272.681 60.6494 274.35 60.2828 275.222 59.8952C276.009 59.5451 276.569 59.0316 276.872 58.7284L271.215 53.0716C271.223 53.0636 271.278 53.0082 271.38 52.9308C271.475 52.8584 271.675 52.717 271.973 52.5847C272.267 52.4537 272.769 52.2825 273.422 52.2825C274.125 52.2825 274.855 52.4839 275.497 52.9118L271.06 59.5682ZM276.756 58.8392C278.109 57.5911 279.437 56.5209 280.74 55.6188L276.186 49.0412C274.543 50.1791 272.925 51.4889 271.33 52.9608L276.756 58.8392ZM280.74 55.6188C281.923 54.8002 283.155 54.1755 284.442 53.7315L281.834 46.1685C279.835 46.8579 277.951 47.8198 276.186 49.0412L280.74 55.6188ZM284.442 53.7315C285.635 53.3201 286.948 53.1 288.408 53.1V45.1C286.128 45.1 283.928 45.4466 281.834 46.1685L284.442 53.7315ZM288.408 53.1C291.715 53.1 293.851 54.0444 295.322 55.55L301.045 49.96C297.755 46.5922 293.375 45.1 288.408 45.1V53.1ZM295.355 55.5834C296.905 57.1336 297.838 59.3011 297.838 62.53H305.838C305.838 57.5989 304.335 53.2497 301.012 49.9266L295.355 55.5834ZM297.838 62.53V92.96H305.838V62.53H297.838ZM297.838 92.96C297.838 93.0234 297.825 92.3363 298.5 91.6616C299.175 90.9869 299.862 91 299.798 91V99C301.095 99 302.802 98.6731 304.157 97.3184C305.511 95.9637 305.838 94.2566 305.838 92.96H297.838ZM299.798 91H290.363V99H299.798V91ZM290.363 91C290.334 91 290.446 90.9956 290.65 91.0501C290.862 91.1065 291.214 91.2384 291.587 91.5365L286.59 97.7835C287.884 98.8187 289.369 99 290.363 99V91ZM292.212 92.1612C292.546 92.5784 292.67 92.9605 292.714 93.1374C292.758 93.3132 292.748 93.386 292.748 93.3H284.748C284.748 94.2414 284.888 95.8127 285.965 97.1588L292.212 92.1612ZM292.748 93.3V64.57H284.748V93.3H292.748ZM292.748 64.57C292.748 61.8904 291.978 59.2302 289.884 57.2462L284.382 63.0538C284.441 63.1098 284.748 63.3963 284.748 64.57H292.748ZM290.037 57.399C288.012 55.2617 285.257 54.535 282.543 54.535V62.535C283.91 62.535 284.214 62.885 284.23 62.901L290.037 57.399ZM282.543 54.535C280.901 54.535 279.3 54.8104 277.779 55.402L280.678 62.858C281.197 62.6562 281.806 62.535 282.543 62.535V54.535ZM277.779 55.402C276.311 55.9726 274.957 56.8011 273.711 57.8273L278.796 64.0027C279.477 63.4422 280.105 63.0808 280.678 62.858L277.779 55.402ZM273.824 57.7376C272.616 58.6607 271.418 59.8049 270.227 61.1213L276.159 66.4887C277.122 65.4251 277.964 64.6426 278.683 64.0924L273.824 57.7376ZM269.193 63.805V93.045H277.193V63.805H269.193ZM269.193 93.045C269.193 92.9443 269.244 92.1753 269.991 91.5153C270.643 90.9379 271.216 91 270.983 91V99C272.224 99 273.902 98.7362 275.291 97.5072C276.774 96.1955 277.193 94.4491 277.193 93.045H269.193ZM270.983 91H261.888V99H270.983V91Z" fill="white" mask="url(#path-1-outside-1_240_107)"/>
</g>
</svg>
